<?xml version="1.0" encoding="UTF-8"?>
<svg fill="#E3DDDC" width="100pt" height="100pt" version="1.1" viewBox="0 0 100 100" xmlns="http://www.w3.org/2000/svg">
 <g>
  <path d="m47.602 73.531-1.7422 5.1875h3.5898l-1.75-5.1875z"/>
  <path d="m58.852 9.25h-35.082c-1.9414 0-3.5195 1.6016-3.5195 3.5586v74.391c0 1.9609 1.5781 3.5586 3.5195 3.5586h52.461c1.9414 0 3.5195-1.6016 3.5195-3.5586v-57.051zm-7.7031 74.512-1.0703-3.1797h-4.8398l-1.0703 3.1797h-2.4688l4.5312-12.859h2.8398l4.5508 12.859zm6.3008 0h-2.3086v-12.863h2.3086zm19.422-20.883h-53.742v-50.07c0-0.35938 0.28906-0.64844 0.64062-0.64844h33.98v17.32c0 1.25 1.0195 2.2695 2.2695 2.2695h16.852z"/>
 </g>
</svg>
