<?xml version="1.0" encoding="UTF-8"?>
<svg fill="#E3DDDC" width="100pt" height="100pt" version="1.1" viewBox="0 0 100 100" xmlns="http://www.w3.org/2000/svg">
 <path d="m5.4961 3.6016h86.223c1.3047 0 2.3672 1.0625 2.3672 2.3672v42.527c-0.69531-0.16797-1.4297-0.25391-2.1914-0.22266h-0.042969c-0.42969 0.019531-0.71484-0.09375-1.043-0.36719l-1.5898-1.3789c-0.32812-0.28516-0.67188-0.53516-1.0312-0.75781l0.003906-33.129c0-0.86328-0.34766-1.6523-0.92578-2.2227-0.57031-0.57031-1.3594-0.92578-2.2227-0.92578l-72.875 0.003906c-0.86328 0-1.6523 0.35938-2.2227 0.92578-0.57031 0.57031-0.92578 1.3594-0.92578 2.2227v47.316c0 0.86328 0.35938 1.6523 0.92578 2.2227 0.57031 0.57031 1.3594 0.92578 2.2227 0.92578h52.285c-0.13672 2.1172 0.57812 4.2734 2.1367 5.8945l-61.094-0.003906c-1.3047 0-2.3672-1.0625-2.3672-2.3672l-0.003906-60.652c0-1.3086 1.0664-2.3789 2.3711-2.3789zm84.914 76.691v16.094l-6.6094-4.3906-6.6523 4.3906v-16l1.1914 1.0312c3.1562 2.7383 7.9688 2.4844 10.801-0.60156l0.03125-0.03125c0.29297-0.31641 0.57812-0.44141 1-0.47266zm-3.2305-31.398c-1.8945-1.6406-4.7578-1.4844-6.4531 0.34766l-0.03125 0.03125c-0.83203 0.90625-1.8516 1.3906-3.0859 1.4727l-2.0938 0.14844c-2.5039 0.17969-4.4102 2.3164-4.3164 4.8203v0.042968c0.042969 1.2227-0.32812 2.293-1.1367 3.2227l-1.3789 1.5898c-1.6406 1.8945-1.4844 4.7461 0.35938 6.4531l0.03125 0.03125c0.89453 0.83203 1.3906 1.8516 1.4727 3.0859l0.14844 2.0938c0.17969 2.5039 2.3047 4.4102 4.8086 4.3164h0.042969c1.2305-0.042969 2.293 0.32812 3.2227 1.1367l1.5898 1.3789c1.8945 1.6406 4.7461 1.4844 6.4531-0.35938l0.03125-0.03125c0.83203-0.90625 1.8516-1.3906 3.0859-1.4844l2.0938-0.14844c2.5039-0.17969 4.4102-2.3047 4.3164-4.8086v-0.042969c-0.050782-1.2227 0.32812-2.293 1.1367-3.2227l1.3789-1.5898c1.6406-1.8945 1.4844-4.7461-0.35938-6.4531l-0.03125-0.03125c-0.89453-0.83203-1.3906-1.8516-1.4844-3.0859l-0.14844-2.0938c-0.17969-2.4961-2.3164-4.4102-4.8203-4.3164h-0.042969c-1.2305 0.050781-2.293-0.32813-3.2227-1.1367zm-3.4023 4.8633c-2.8203 0-5.3789 1.1484-7.2305 3-1.8516 1.8516-3 4.4102-3 7.2305 0 2.8203 1.1484 5.3789 3 7.2305s4.4102 3 7.2305 3c2.8203 0 5.3789-1.1484 7.2305-3 1.8516-1.8516 3-4.4102 3-7.2305 0-2.8203-1.1484-5.3789-3-7.2305-1.8516-1.8633-4.4062-3-7.2305-3zm5.0234 5.1992c-1.2852-1.2852-3.0625-2.0859-5.0195-2.0859s-3.7383 0.78906-5.0195 2.0859c-1.2852 1.2852-2.0859 3.0625-2.0859 5.0195 0 1.957 0.80078 3.7383 2.0859 5.0195 1.2852 1.2852 3.0625 2.0859 5.0195 2.0859s3.7383-0.78906 5.0195-2.0859c1.2852-1.2852 2.0859-3.0625 2.0859-5.0195-0.003907-1.957-0.80078-3.7344-2.0859-5.0195zm-69.074-18.652h57.758c0.86328 0 1.5703-0.69531 1.5703-1.5703 0-0.86328-0.69531-1.5586-1.5703-1.5586l-57.758 0.003907c-0.86328 0-1.5586 0.69531-1.5586 1.5586s0.69531 1.5664 1.5586 1.5664zm0-7.7344h57.758c0.86328 0 1.5703-0.70703 1.5703-1.5586 0-0.85156-0.69531-1.5586-1.5703-1.5586h-57.758c-0.86328 0-1.5586 0.69531-1.5586 1.5586s0.69531 1.5586 1.5586 1.5586zm18.969-7.8984h19.809c0.86328 0 1.5703-0.69531 1.5703-1.5586s-0.69531-1.5586-1.5703-1.5586l-19.809 0.003906c-0.86328 0-1.5586 0.69531-1.5586 1.5586 0 0.86328 0.69531 1.5547 1.5586 1.5547zm46.367 20.023v-32.055s0-0.011719-0.011719-0.011719-0.011719-0.011718-0.011719-0.011718l-72.871 0.003906s-0.011719 0-0.011719 0.011718c0 0.011719-0.011719 0.011719-0.011719 0.011719v47.316s0 0.011718 0.011719 0.011718l0.011719 0.011719h53.168c0.27344-0.50391 0.60156-1 0.98828-1.4531l1.3789-1.5898c0.27344-0.31641 0.39062-0.60938 0.36719-1.043v-0.042969c-0.17969-4.1914 3.0312-7.7695 7.2109-8.0625l2.0938-0.14844c0.42969-0.03125 0.71484-0.15625 1-0.47266l0.03125-0.03125c1.7617-1.9102 4.2578-2.7305 6.6562-2.4453z" fill-rule="evenodd"/>
</svg>
