<?xml version="1.0" encoding="UTF-8"?>
<svg fill="#E3DDDC" width="100pt" height="100pt" version="1.1" viewBox="0 0 100 100" xmlns="http://www.w3.org/2000/svg">
 <g>
  <path d="m59.398 73.699c-2.5 3.3984-6.3984 5.3984-10.5 5.5h-0.39844c-4 0-7.8984-1.8008-10.398-4.8984l-15.699-19c-4.8008-5.8008-3.8984-14.301 1.8008-19.102 5.8008-4.8008 14.301-3.8984 19.102 1.8008l4.6016 5.6016 26.695-36.102c-1-0.10156-2.1016-0.19922-3.1016-0.19922h-45.199c-12.402-0.10156-22.602 10.098-22.602 22.5v45.102c0 12.398 10.102 22.602 22.602 22.602h45.102c12.496-0.003906 22.598-10.105 22.598-22.605v-45.098c0-0.89844-0.10156-1.8984-0.19922-2.8008z"/>
  <path d="m94.398 3.3984c-2-1.5-4.8008-1.1016-6.3008 1l-39.801 54-12-14.5c-1.6016-1.8984-4.3984-2.1992-6.3984-0.60156-1.8984 1.6016-2.1992 4.3984-0.60156 6.3984l15.699 19c0.89844 1 2.1016 1.6016 3.5 1.6016h0.10156c1.3984 0 2.6992-0.69922 3.5-1.8008l43.301-58.797c1.5-2 1-4.8008-1-6.3008z"/>
 </g>
</svg>
