<?xml version="1.0" encoding="UTF-8"?>
<svg fill="#010658" width="100pt" height="100pt" version="1.1" viewBox="0 0 100 100" xmlns="http://www.w3.org/2000/svg">
 <g fill-rule="evenodd">
  <path d="m28.031 11.004h57.188c3.1875 0 5.7812 2.6328 5.7812 5.875v37.469h-54.375v-29.312c0-4.3203-3.5234-7.8438-7.8125-7.8438h-6.5938v-0.3125c0-3.2422 2.625-5.875 5.8125-5.875z"/>
  <path d="m14.812 19.184c-3.1875 0-5.8125 2.6016-5.8125 5.8438v58.094c0 3.2422 2.625 5.875 5.8125 5.875h14c3.1875 0 5.8125-2.6328 5.8125-5.875v-58.094c0-3.2422-2.625-5.8438-5.8125-5.8438zm-0.1875 8.9688c0.0625-0.007813 0.125-0.007813 0.1875 0h14c0.53906 0.003906 0.97266 0.46484 0.96875 1.0312v6c-0.011719 0.55078-0.44141 0.99219-0.96875 1h-14c-0.52734-0.007813-0.95703-0.44922-0.96875-1v-6c-0.011719-0.5 0.31641-0.93359 0.78125-1.0312zm0.09375 11.438c0.03125-0.003906 0.0625-0.003906 0.09375 0h14c0.53906 0.003906 0.97266 0.46484 0.96875 1.0312v6c0.003906 0.5625-0.42969 1.0234-0.96875 1.0312h-14c-0.53906-0.003906-0.97266-0.46875-0.96875-1.0312v-6c-0.007812-0.53125 0.375-0.97656 0.875-1.0312zm7.0938 34.062c1.6641 0 3.0312 1.3945 3.0312 3.0625 0 1.6602-1.3672 3.0312-3.0312 3.0312-1.668 0-3.0312-1.375-3.0312-3.0312 0-1.6602 1.3633-3.0625 3.0312-3.0625z"/>
  <path d="m36.625 56.34v8.25h48.594c3.1875 0 5.7812-2.6328 5.7812-5.875v-2.375zm19.969 3.1875h0.03125c0.26562-0.003906 0.52734 0.097656 0.71484 0.28516 0.19141 0.1875 0.30078 0.44531 0.30078 0.71484 0 0.26562-0.10938 0.52344-0.30078 0.71094-0.1875 0.1875-0.44922 0.29297-0.71484 0.28906h-0.03125c-0.26953 0.003906-0.52734-0.10156-0.71484-0.28906-0.19141-0.1875-0.30078-0.44531-0.30078-0.71094 0-0.26953 0.10938-0.52734 0.30078-0.71484 0.1875-0.1875 0.44531-0.28906 0.71484-0.28516z"/>
  <path d="m49.68 66.633h13.875v4.5508c0 0.55078 0.44922 1 1 1h0.9375c1.0117 0.1875 1.7109 0.61719 2.2734 1.3203 0.40625 0.51172 0.73828 1.1875 0.97266 2.0391h-24.312c0.19922-0.89844 0.5-1.6133 0.88281-2.1289 0.52344-0.70312 1.1719-1.1055 2.2227-1.2305h1.1484c0.55469 0 1-0.44922 1-1z"/>
 </g>
</svg>
