<?xml version="1.0" encoding="UTF-8"?>
<svg fill="#E3DDDC" width="100pt" height="100pt" version="1.1" viewBox="0 0 100 100" xmlns="http://www.w3.org/2000/svg">
 <g>
  <path d="m35.469 64.531 17.5-7.5-10-10z"/>
  <path d="m70.781 6.25h-41.562c-12.656 0-22.969 10.312-22.969 22.969v41.562c0 12.656 10.312 22.969 22.969 22.969h41.562c12.656 0 22.969-10.312 22.969-22.969v-41.562c0-12.656-10.312-22.969-22.969-22.969zm1.7188 25-11.875 27.812c-0.15625 0.46875-0.46875 0.78125-0.78125 1.0938-0.15625 0.15625-0.46875 0.3125-0.625 0.3125l-27.969 12.031c-1.0938 0.46875-2.3438 0.15625-3.125-0.625s-1.0938-2.0312-0.625-3.125l11.875-27.812c0.3125-0.625 0.78125-1.0938 1.4062-1.4062l27.969-12.031c1.0938-0.46875 2.3438-0.15625 3.125 0.625s1.0938 2.0312 0.625 3.125z"/>
 </g>
</svg>
