<?xml version="1.0" encoding="UTF-8"?>
<svg fill="#010658" width="100pt" height="100pt" version="1.1" viewBox="0 0 100 100" xmlns="http://www.w3.org/2000/svg">
 <g>
  <path d="m29 28.398h42c0.30078 0 0.60156 0.30078 0.60156 0.60156v42c0 0.30078-0.30078 0.60156-0.60156 0.60156h-42c-0.30078 0-0.60156-0.30078-0.60156-0.60156v-42c0-0.30078 0.30078-0.60156 0.60156-0.60156z"/>
  <path d="m95.699 31.102c1 0 1.8008-0.80078 1.8008-1.8008s-0.80078-1.8008-1.8008-1.8008h-6.3984v-2.3984h6.3984c1 0 1.8008-0.80078 1.8008-1.8008s-0.80078-1.8008-1.8008-1.8008h-6.3984v-5.3008c0-1.5-0.60156-2.8984-1.6992-4-1.1016-1.1016-2.5-1.6992-4-1.6992h-5.3008v-6.1992c0-1-0.80078-1.8008-1.8008-1.8008s-1.8008 0.80078-1.8008 1.8008v6.3984h-2.3984v-6.3984c0-1-0.80078-1.8008-1.8008-1.8008s-1.8008 0.80078-1.8008 1.8008v6.3984h-2.3984v-6.3984c0-1-0.80078-1.8008-1.8008-1.8008s-1.8008 0.80078-1.8008 1.8008v6.3984h-2.3984v-6.3984c0-1-0.80078-1.8008-1.8008-1.8008s-1.8008 0.80078-1.8008 1.8008v6.3984h-2.3984v-6.3984c0-1-0.80078-1.8008-1.8008-1.8008s-1.8008 0.80078-1.8008 1.8008v6.3984h-2.3984v-6.3984c0-1-0.80078-1.8008-1.8008-1.8008s-1.8008 0.80078-1.8008 1.8008v6.3984h-2.3984v-6.3984c0-1-0.80078-1.8008-1.8008-1.8008s-1.8008 0.80078-1.8008 1.8008v6.3984h-1.6992v-6.3984c0-1-0.80078-1.8008-1.8008-1.8008s-1.8008 0.80078-1.8008 1.8008v6.3984h-2.3984v-6.3984c0-1-0.80078-1.8008-1.8008-1.8008s-1.8008 0.80078-1.8008 1.8008v6.3984h-2.3984v-6.3984c0-1-0.80078-1.8008-1.8008-1.8008s-1.8008 0.80078-1.8008 1.8008v6.3984h-5.3008c-1.5 0-2.8984 0.60156-4 1.6992-1.1016 1.1016-1.6992 2.5-1.6992 4v5.3008h-6.0977c-1 0-1.8008 0.80078-1.8008 1.8008s0.80078 1.8008 1.8008 1.8008h6.3984v2.3984h-6.3984c-1 0-1.8008 0.80078-1.8008 1.8008s0.80078 1.8008 1.8008 1.8008h6.3984v2.3984h-6.3984c-1 0-1.8008 0.80078-1.8008 1.8008s0.80078 1.5 1.8008 1.5h6.3984v2.3984h-6.3984c-1 0-1.8008 0.80078-1.8008 1.8008s0.80078 1.8008 1.8008 1.8008h6.3984v2.3984h-6.3984c-1 0-1.8008 0.80078-1.8008 1.8008s0.80078 1.8008 1.8008 1.8008h6.3984v2.3984h-6.3984c-1 0-1.8008 0.80078-1.8008 1.8008s0.80078 1.8008 1.8008 1.8008h6.3984v2.3984h-6.3984c-1 0-1.8008 0.80078-1.8008 1.8008s0.80078 1.8008 1.8008 1.8008h6.3984v2h-6.3984c-1 0-1.8008 0.80078-1.8008 1.8008s0.80078 1.8008 1.8008 1.8008h6.3984v2.3984h-6.3984c-1 0-1.8008 0.80078-1.8008 1.8008s0.80078 1.8008 1.8008 1.8008h6.3984v2.3984h-6.3984c-1 0-1.8008 0.80078-1.8008 1.8008s0.80078 1.8008 1.8008 1.8008h6.3984v5.3008c0 1.5 0.60156 2.8984 1.6992 4 1.1016 1.1016 2.5 1.6992 4 1.6992h5.3008v6.3984c0 1 0.80078 1.8008 1.8008 1.8008s1.8008-0.80078 1.8008-1.8008v-6.3984h2.3984v6.3984c0 1 0.80078 1.8008 1.8008 1.8008s1.8008-0.80078 1.8008-1.8008v-6.3984h2.3984v6.3984c0 1 0.80078 1.8008 1.8008 1.8008s1.8008-0.80078 1.8008-1.8008v-6.3984h2.3984v6.3984c0 1 0.80078 1.8008 1.8008 1.8008s1.8008-0.80078 1.8008-1.8008v-6.3984h2.3984v6.3984c0 1 0.80078 1.8008 1.8008 1.8008s1.8008-0.80078 1.8008-1.8008v-6.3984h2.3984v6.3984c0 1 0.80078 1.8008 1.8008 1.8008s1.8008-0.80078 1.8008-1.8008v-6.3984h2.3984v6.3984c0 1 0.80078 1.8008 1.8008 1.8008s1.8008-0.80078 1.8008-1.8008v-6.3984h1.6992v6.3984c0 1 0.80078 1.8008 1.8008 1.8008s1.8008-0.80078 1.8008-1.8008v-6.3984h2.3984v6.3984c0 1 0.80078 1.8008 1.8008 1.8008s1.8008-0.80078 1.8008-1.8008v-6.3984h2.3984v6.3984c0 1 0.80078 1.8008 1.8008 1.8008s1.8008-0.80078 1.8008-1.8008v-6.3984h5.3008c1.5 0 2.8984-0.60156 4-1.6992 1.1016-1.1016 1.6992-2.5 1.6992-4v-5.3008h6.3984c1 0 1.8008-0.80078 1.8008-1.8008s-0.80078-1.8008-1.8008-1.8008h-6.3984v-2.3984h6.3984c1 0 1.8008-0.80078 1.8008-1.8008s-0.80078-1.8008-1.8008-1.8008h-6.3984v-2.3984h6.3984c1 0 1.8008-0.80078 1.8008-1.8008s-0.80078-1.8008-1.8008-1.8008h-6.3984v-2.3984h6.3984c1 0 1.8008-0.80078 1.8008-1.8008s-0.80078-1.8008-1.8008-1.8008h-6.3984v-2.3984h6.3984c1 0 1.8008-0.80078 1.8008-1.8008s-0.80078-1.8008-1.8008-1.8008h-6.3984v-2.3984h6.3984c1 0 1.8008-0.80078 1.8008-1.8008s-0.80078-1.8008-1.8008-1.8008h-6.3984v-2.3984h6.3984c1 0 1.8008-0.80078 1.8008-1.8008s-0.80078-1.8008-1.8008-1.8008h-6.3984v-2h6.3984c1 0 1.8008-0.80078 1.8008-1.8008s-0.80078-1.8008-1.8008-1.8008h-6.3984v-2.3984zm-71.098 46.699c-1.3008 0-2.3008-1-2.3008-2.3008v-50.898c0-1.3008 1-2.3008 2.3008-2.3008h50.898c1.3008 0 2.3008 1 2.3008 2.3008v50.898c0 1.3008-1 2.3008-2.3008 2.3008z"/>
 </g>
</svg>
