<?xml version="1.0" encoding="UTF-8"?>
<svg fill="#010658" width="100pt" height="100pt" version="1.1" viewBox="0 0 100 100" xmlns="http://www.w3.org/2000/svg">
 <path d="m14.062 7.8125h26.562c3.4531 0 6.25 3.4531 6.25 6.25v42.188c0 3.4531-2.7969 6.25-6.25 6.25h-26.562c-3.4531 0-6.25-3.4531-6.25-6.25v-42.188c0-3.4531 2.7969-6.25 6.25-6.25z"/>
 <path d="m14.062 68.75h26.562c3.4531 0 6.25 3.4531 6.25 6.25v10.938c0 3.4531-2.7969 6.25-6.25 6.25h-26.562c-3.4531 0-6.25-3.4531-6.25-6.25v-10.938c0-3.4531 2.7969-6.25 6.25-6.25z"/>
 <path d="m59.375 37.5h26.562c3.4531 0 6.25 3.4531 6.25 6.25v42.188c0 3.4531-2.7969 6.25-6.25 6.25h-26.562c-3.4531 0-6.25-3.4531-6.25-6.25v-42.188c0-3.4531 2.7969-6.25 6.25-6.25z"/>
 <path d="m59.375 7.8125h26.562c3.4531 0 6.25 3.4531 6.25 6.25v10.938c0 3.4531-2.7969 6.25-6.25 6.25h-26.562c-3.4531 0-6.25-3.4531-6.25-6.25v-10.938c0-3.4531 2.7969-6.25 6.25-6.25z"/>
</svg>
