<?xml version="1.0" encoding="UTF-8"?>
<svg fill="#E3DDDC" width="100pt" height="100pt" version="1.1" viewBox="0 0 100 100" xmlns="http://www.w3.org/2000/svg">
 <path d="m20.066 31.016 5.9258 5.9258c-1.3633 0.93359-3.0195 1.4805-4.7969 1.4805-2.3555 0-4.4883-0.96094-6.0352-2.5-1.5469-1.5469-2.5-3.6797-2.5-6.0352s0.95312-4.4883 2.5-6.0352c1.1836-1.1836 2.7188-2.0234 4.4336-2.3516v8.3867h0.003906c0.003906 0.40234 0.15625 0.8125 0.46875 1.1289zm79.434-16.664v71.297c0 1.2344-1.0039 2.2344-2.2344 2.2344l-94.527 0.003907c-1.2266 0-2.2344-1.0039-2.2344-2.2344l-0.003906-71.301c0-1.2344 1.0078-2.2344 2.2344-2.2344h94.527c1.2344-0.003907 2.2383 1 2.2383 2.2344zm-79.953 52.918c0-0.32812-0.26953-0.59766-0.59766-0.59766h-7.2852c-0.32812 0-0.59766 0.26953-0.59766 0.59766v12.375c0 0.32812 0.26953 0.59766 0.59766 0.59766h7.2852c0.32812 0 0.59766-0.26953 0.59766-0.59766zm0-19.609c0-0.32812-0.26953-0.59766-0.59766-0.59766h-7.2852c-0.32812 0-0.59766 0.26953-0.59766 0.59766v12.375c0 0.32812 0.26953 0.59766 0.59766 0.59766h7.2852c0.32812 0 0.59766-0.26953 0.59766-0.59766zm1.6484-6.0508c3.2383 0 6.1641-1.3086 8.293-3.4297 2.1211-2.1211 3.4297-5.0547 3.4297-8.293s-1.3086-6.1719-3.4297-8.293c-2.1289-2.1211-5.0547-3.4375-8.293-3.4375-3.2383 0-6.1719 1.3164-8.293 3.4375s-3.4375 5.0547-3.4375 8.293 1.3164 6.1719 3.4375 8.293c2.1211 2.1211 5.0547 3.4297 8.293 3.4297zm22.93 36.191c0-0.88281-0.71484-1.5938-1.5938-1.5938l-16.172-0.003906c-0.88281 0-1.5938 0.71484-1.5938 1.5938 0 0.88281 0.71484 1.5938 1.5938 1.5938h16.168c0.88281 0.003906 1.5977-0.70703 1.5977-1.5898zm0-8.6836c0-0.88281-0.71484-1.5938-1.5938-1.5938h-16.172c-0.88281 0-1.5938 0.71484-1.5938 1.5938 0 0.88281 0.71484 1.5938 1.5938 1.5938h16.168c0.88281 0.003906 1.5977-0.71094 1.5977-1.5938zm0-10.93c0-0.88281-0.71484-1.5938-1.5938-1.5938h-16.172c-0.88281 0-1.5938 0.71484-1.5938 1.5938 0 0.88281 0.71484 1.6016 1.5938 1.6016h16.168c0.88281 0 1.5977-0.71875 1.5977-1.6016zm0-8.6797c0-0.88281-0.71484-1.5938-1.5938-1.5938l-16.172-0.003906c-0.88281 0-1.5938 0.71484-1.5938 1.5938 0 0.88281 0.71484 1.6016 1.5938 1.6016h16.168c0.88281 0 1.5977-0.71484 1.5977-1.5977zm17.461 10.266c0-0.33594-0.26953-0.60156-0.59766-0.60156h-5.1914c-0.32812 0-0.59766 0.26953-0.59766 0.60156v17.43c0 0.32812 0.26953 0.59766 0.59766 0.59766h5.1914c0.32812 0 0.59766-0.26953 0.59766-0.59766zm13.676-12.113c0-0.32812-0.26953-0.59766-0.59766-0.59766h-5.1914c-0.32812 0-0.59766 0.26953-0.59766 0.59766v29.543c0 0.32812 0.26953 0.59766 0.59766 0.59766h5.1914c0.32813 0 0.59766-0.26953 0.59766-0.59766zm13.672 7.918c0-0.32812-0.26953-0.59766-0.59766-0.59766h-5.1914c-0.32812 0-0.59766 0.26953-0.59766 0.59766v21.621c0 0.32812 0.26953 0.59766 0.59766 0.59766h5.1914c0.32812 0 0.59766-0.26953 0.59766-0.59766zm1.5977-21.352c0-0.88281-0.71875-1.5938-1.6016-1.5938l-33.727-0.003906c-0.88281 0-1.5938 0.71484-1.5938 1.5938 0 0.88281 0.71484 1.5938 1.5938 1.5938h33.73c0.88281 0.003906 1.5977-0.70703 1.5977-1.5898zm0-8.6836c0-0.88281-0.71875-1.5938-1.6016-1.5938h-33.727c-0.88281 0-1.5938 0.71484-1.5938 1.5938 0 0.88281 0.71484 1.5938 1.5938 1.5938h33.73c0.88281 0 1.5977-0.71094 1.5977-1.5938zm-63.301-1.6914c-1.1875-1.1836-2.7227-2.0234-4.4414-2.3516v7.7227l5.4609 5.4609c0.93359-1.3633 1.4805-3.0156 1.4805-4.7969 0-2.3594-0.95703-4.4922-2.5-6.0352z"/>
</svg>
