<?xml version="1.0" encoding="UTF-8"?>
<svg fill="#010658" width="100pt" height="100pt" version="1.1" viewBox="0 0 100 100" xmlns="http://www.w3.org/2000/svg">
 <g>
  <path d="m58.25 29.922c-0.10938 0.51953 0.22656 1.0234 0.74219 1.1328 0.51953 0.10937 1.0273-0.22266 1.1328-0.74219 0.085938-0.40625-0.10156-0.80859-0.4375-1.0156-0.089844-0.054687-0.19141-0.097656-0.30469-0.12109-0.16797-0.035156-0.33203-0.023437-0.48437 0.023438-0.31641 0.10547-0.57422 0.37109-0.64844 0.72266z"/>
  <path d="m62.992 29.66c0-2.7461-2.2266-4.8047-4.9727-4.8047h-0.046875c0.39844 0.40625 0.75391 0.91016 1.0391 1.5039 0.34766 0.71875 0.56641 1.5117 0.64453 2.2734 0.75391 0.22656 1.2227 0.99609 1.0586 1.7852-0.17578 0.83203-0.98438 1.3633-1.8164 1.1914-0.83203-0.17188-1.3594-0.98828-1.1914-1.8164 0.125-0.60156 0.58984-1.0469 1.1484-1.1797-0.17969-1.4492-0.94922-3.0547-2.1602-3.7578l-12.336 0.003906c-0.5625 0.90234-0.89453 1.9688-0.90234 2.8516 0.35547 0.10937 0.65625 0.39062 0.80469 0.76172 1.1211 0.35547 2.2148 1.3555 3.1094 2.8906 0.11719 0.20312 0.11719 0.44141 0.011718 0.63672 0.58203 1.1406 0.97266 2.4141 1.0625 3.5312 0.15234 1.8711 0.09375 2.6836-1.1758 3.0117-0.085937 0.125-0.22656 0.21484-0.39062 0.23047l-1.1133 0.089843c-0.28906 0.023438-0.54297-0.19141-0.56641-0.48047v-0.003906c-0.023438-0.28906 0.19141-0.53906 0.48047-0.5625l1.1133-0.09375c0.10156-0.007812 0.19922 0.015625 0.28125 0.058594 0.34375-0.089844 0.46875-0.19922 0.53906-0.34375 0.14453-0.30078 0.12891-0.88281 0.046875-1.8477-0.085937-1.0273-0.44922-2.2031-0.99219-3.2617-0.17578-0.035156-0.33594-0.14453-0.43359-0.30859-0.91406-1.5703-2.0352-2.457-2.9961-2.3789-0.98438 0.078125-1.9883 1.2188-2.6211 2.9766-0.074219 0.21094-0.24609 0.35547-0.44531 0.41016-0.32812 1.082-0.47656 2.2344-0.39453 3.2109 0.078125 0.94531 0.16016 1.5469 0.36719 1.8203 0.097657 0.12891 0.25 0.21875 0.63281 0.24609 0.078125-0.0625 0.17578-0.10547 0.28516-0.11328l1.1133-0.089844c0.28906-0.023437 0.54297 0.1875 0.56641 0.47656v0.003906c0.023437 0.28906-0.19141 0.53906-0.48047 0.5625l-1.1172 0.09375c-0.15625 0.011719-0.30469-0.046875-0.40625-0.14453-0.52734-0.035156-0.94141-0.17578-1.2305-0.5625-0.32031-0.42969-0.42578-1.0859-0.51953-2.2266-0.089843-1.0898 0.078125-2.3711 0.44531-3.5703-0.10156-0.16406-0.12891-0.36719-0.058594-0.5625 0.36719-1.0156 0.86328-1.8945 1.4336-2.5469 0.35547-0.40234 0.74219-0.71484 1.1445-0.93359 0.082031-0.41797 0.34766-0.76562 0.70312-0.92969-0.007812-0.91797 0.28906-1.9648 0.78516-2.9062h-0.97266c-2.7461 0-4.9727 2.0859-4.9727 4.832l-2.8125 24.895c0 2.7422 2.2266 4.8398 4.9727 4.8398h1.5508l3.8242 32.453c0 1.6719 1.3594 3.1602 3.0312 3.1602h4.3516c1.6719 0 3.0312-1.4883 3.0312-3.1602l3.8242-32.453h1.5508c2.7461 0 4.9688-2.1641 4.9688-4.9102zm-5.5039 4.9219h-1.6641v1.6641h-1.4062v-1.6641h-1.668v-1.4062h1.6641v-1.6641h1.4062v1.6641h1.6641z"/>
  <path d="m58.59 13.375c0 4.6016-3.7344 8.3359-8.3359 8.3359-4.6055 0-8.3359-3.7344-8.3359-8.3359 0-4.6055 3.7305-8.3359 8.3359-8.3359 4.6016 0 8.3359 3.7305 8.3359 8.3359"/>
  <path d="m25.367 34.395c-0.085938 0.40234 0.17578 0.79688 0.57812 0.88281 0.40625 0.085937 0.79688-0.17578 0.88281-0.57812 0.066406-0.31641-0.078125-0.62891-0.33984-0.78906-0.070312-0.042968-0.14844-0.074218-0.23438-0.09375-0.12891-0.027344-0.25781-0.019531-0.375 0.019532-0.25391 0.074218-0.45312 0.28516-0.51172 0.55859z"/>
  <path d="m29.055 34.191c0-2.1367-1.7305-3.7344-3.8672-3.7344h-0.035156c0.3125 0.31641 0.58594 0.70703 0.80859 1.1719 0.26953 0.55859 0.44141 1.1758 0.50391 1.7695 0.58594 0.17578 0.94922 0.77734 0.82422 1.3867-0.13672 0.64453-0.76562 1.0625-1.4141 0.92578-0.64844-0.13672-1.0586-0.76953-0.92578-1.4141 0.097656-0.46875 0.46094-0.81641 0.89453-0.91797-0.14062-1.125-0.73828-2.375-1.6797-2.9219h-9.5977c-0.4375 0.70312-0.69531 1.5312-0.70312 2.2148 0.27734 0.085937 0.50781 0.30469 0.625 0.59375 0.87109 0.27344 1.7227 1.0547 2.418 2.2461 0.09375 0.15625 0.089844 0.34375 0.007812 0.49219 0.45313 0.88672 0.75781 1.8789 0.82813 2.7461 0.11719 1.457 0.070312 2.0859-0.91406 2.3438-0.066406 0.097656-0.17578 0.16797-0.30469 0.17969l-0.86719 0.070312c-0.22266 0.019531-0.42188-0.14844-0.44141-0.37109v-0.003906c-0.019532-0.22266 0.14844-0.41797 0.375-0.4375l0.86719-0.070312c0.078125-0.007813 0.15625 0.011718 0.21875 0.046874 0.26953-0.066406 0.36328-0.15625 0.41797-0.26562 0.10938-0.23438 0.10156-0.6875 0.035156-1.4375-0.066406-0.80078-0.34766-1.7148-0.76953-2.5352-0.13672-0.027343-0.26172-0.11328-0.33984-0.24219-0.71094-1.2227-1.582-1.9102-2.3281-1.8516-0.76562 0.0625-1.5469 0.94922-2.0391 2.3125-0.058594 0.16016-0.19141 0.27734-0.34766 0.31641-0.25391 0.84375-0.37109 1.7383-0.30859 2.5 0.0625 0.73437 0.125 1.2031 0.28516 1.4141 0.074219 0.10156 0.19531 0.17188 0.49219 0.19141 0.0625-0.050781 0.13672-0.082031 0.22266-0.089844l0.86719-0.070312c0.22656-0.019531 0.42188 0.14844 0.44141 0.37109v0.003906c0.019531 0.22266-0.14844 0.42188-0.37109 0.4375l-0.86719 0.070312c-0.12109 0.011719-0.23438-0.035156-0.31641-0.11328-0.41016-0.027343-0.73438-0.13672-0.95703-0.4375-0.24609-0.33594-0.32812-0.84766-0.40234-1.7305-0.070313-0.84766 0.0625-1.8477 0.34766-2.7734-0.078125-0.12891-0.097656-0.28516-0.042969-0.4375 0.28516-0.78906 0.67188-1.4766 1.1172-1.9805 0.27734-0.3125 0.57422-0.55859 0.89062-0.72656 0.0625-0.32422 0.26953-0.59766 0.54688-0.72266-0.003906-0.71484 0.22656-1.5273 0.60938-2.2617h-0.75391c-2.1367 0-3.8672 1.6211-3.8672 3.7578l-2.1875 19.367c0 2.1367 1.7305 3.7656 3.8672 3.7656h1.207l2.9766 25.242c0 1.3008 1.0547 2.457 2.3555 2.457h3.3867c1.3008 0 2.3594-1.1562 2.3594-2.457l2.9766-25.242h1.2031c2.1367 0 3.8633-1.6836 3.8633-3.8164zm-4.2812 3.8242h-1.2969v1.2969h-1.0938v-1.2969h-1.2969v-1.0938h1.2969v-1.2969h1.0938v1.2969h1.2969z"/>
  <path d="m25.629 21.523c0 3.5781-2.9023 6.4805-6.4844 6.4805-3.5781 0-6.4805-2.9023-6.4805-6.4805 0-3.582 2.9023-6.4844 6.4805-6.4844 3.582 0 6.4844 2.9023 6.4844 6.4844"/>
  <path d="m87.578 34.395c-0.085937 0.40234 0.17578 0.79688 0.57812 0.88281 0.40234 0.085937 0.80078-0.17578 0.88281-0.57812 0.066407-0.31641-0.078124-0.62891-0.34375-0.78906-0.066406-0.042968-0.14844-0.074218-0.23437-0.09375-0.12891-0.027344-0.25781-0.019531-0.375 0.019532-0.25 0.074218-0.44922 0.28516-0.50781 0.55859z"/>
  <path d="m91.27 34.191c0-2.1367-1.7305-3.7344-3.8672-3.7344h-0.035156c0.3125 0.31641 0.58594 0.70703 0.80859 1.1719 0.26953 0.55859 0.44141 1.1758 0.50391 1.7695 0.58594 0.17578 0.94922 0.77734 0.82031 1.3867-0.13672 0.64453-0.76562 1.0625-1.4102 0.92578-0.64453-0.13672-1.0586-0.76953-0.92578-1.4141 0.097657-0.46875 0.45703-0.81641 0.89453-0.91797-0.14062-1.125-0.73828-2.375-1.6836-2.9219h-9.5977c-0.4375 0.70312-0.69531 1.5312-0.69922 2.2148 0.27734 0.085937 0.51172 0.30469 0.625 0.59375 0.87109 0.27344 1.7227 1.0547 2.418 2.2461 0.09375 0.15625 0.09375 0.34375 0.011718 0.49219 0.45313 0.88672 0.75781 1.8789 0.82813 2.7461 0.12109 1.457 0.074218 2.0859-0.91406 2.3438-0.066406 0.097656-0.17578 0.16797-0.30469 0.17969l-0.86719 0.070312c-0.22656 0.019531-0.42188-0.14844-0.4375-0.37109v-0.003906c-0.019531-0.22266 0.14844-0.41797 0.37109-0.4375l0.86719-0.070312c0.082031-0.007813 0.15625 0.011718 0.22266 0.046874 0.26953-0.066406 0.36719-0.15625 0.41797-0.26562 0.10938-0.23438 0.097656-0.6875 0.035156-1.4375-0.066406-0.80078-0.34766-1.7148-0.76953-2.5352-0.13672-0.027343-0.26172-0.11328-0.33594-0.24219-0.71094-1.2227-1.582-1.9102-2.3281-1.8516-0.76562 0.0625-1.5469 0.94922-2.0391 2.3125-0.058594 0.16016-0.19141 0.27734-0.34766 0.31641-0.25781 0.84375-0.37109 1.7383-0.30859 2.5 0.058594 0.73437 0.125 1.2031 0.28516 1.4141 0.074219 0.10156 0.19531 0.17188 0.49219 0.19141 0.0625-0.050781 0.14062-0.082031 0.22266-0.089844l0.86719-0.070312c0.22656-0.019531 0.42188 0.14844 0.4375 0.37109v0.003906c0.019531 0.22266-0.14844 0.42188-0.37109 0.4375l-0.86719 0.070312c-0.12109 0.011719-0.23437-0.035156-0.31641-0.11328-0.41016-0.027343-0.73438-0.13672-0.95312-0.4375-0.25-0.33594-0.32812-0.84766-0.40234-1.7305-0.070313-0.84766 0.058593-1.8477 0.34766-2.7734-0.078125-0.12891-0.10156-0.28516-0.046875-0.4375 0.28516-0.78906 0.67188-1.4766 1.1172-1.9805 0.27734-0.3125 0.57812-0.55859 0.89453-0.72656 0.0625-0.32422 0.26953-0.59766 0.54687-0.72266-0.007812-0.71484 0.22656-1.5273 0.60938-2.2617h-0.75391c-2.1367 0-3.8672 1.6211-3.8672 3.7578l-2.1875 19.363c0 2.1367 1.7305 3.7656 3.8672 3.7656h1.207l2.9727 25.242c0 1.3008 1.0586 2.457 2.3594 2.457h3.3828c1.3008 0 2.3594-1.1562 2.3594-2.457l2.9766-25.242h1.207c2.1328 0 3.8633-1.6836 3.8633-3.8164zm-4.2852 3.8242h-1.293v1.2969h-1.0938v-1.2969h-1.2969v-1.0938h1.2969v-1.2969h1.0938v1.2969h1.2969z"/>
  <path d="m87.844 21.523c0 3.5781-2.9023 6.4805-6.4844 6.4805s-6.4844-2.9023-6.4844-6.4805c0-3.582 2.9023-6.4844 6.4844-6.4844s6.4844 2.9023 6.4844 6.4844"/>
 </g>
</svg>
