<?xml version="1.0" encoding="UTF-8"?>
<svg fill="#E3DDDC" width="100pt" height="100pt" version="1.1" viewBox="0 0 100 100" xmlns="http://www.w3.org/2000/svg">
 <g>
  <path d="m82.602 73.301v9.3008h-65.102v-9.3008h-9.3984v18.5h83.699v-18.5z"/>
  <path d="m81.602 73.301v9.3008c0.30078-0.30078 0.69922-0.69922 1-1h-65.102c0.30078 0.30078 0.69922 0.69922 1 1v-9.3008c0-0.5-0.5-1-1-1h-9.3008c-0.5 0-1 0.5-1 1v18.602c0 0.5 0.5 1 1 1h83.699c0.5 0 1-0.5 1-1v-18.602c0-0.5-0.5-1-1-1h-9.3008c-1.3008 0-1.3008 2 0 2h9.3008c-0.30078-0.30078-0.69922-0.69922-1-1v18.602c0.30078-0.30078 0.69922-0.69922 1-1h-83.699c0.30078 0.30078 0.69922 0.69922 1 1v-18.602l-1 1h9.3008l-1-1v9.3008c0 0.5 0.5 1 1 1h65.102c0.5 0 1-0.5 1-1v-9.3008c0-1.3008-2-1.3008-2 0z"/>
  <path d="m36 8.1016v37.199h-18.5l32.5 28 32.602-28h-18.602v-37.199z"/>
  <path d="m35 8.1016v37.199l1-1h-18.602c-0.80078 0-1.3984 1.1016-0.69922 1.6992 10.902 9.3984 21.699 18.699 32.602 28 0.39844 0.39844 1 0.39844 1.3984 0 10.801-9.3008 21.699-18.602 32.602-27.898 0.69922-0.60156 0.10156-1.6992-0.69922-1.6992h-18.602c0.30078 0.30078 0.69922 0.69922 1 1v-37.199c0-0.5-0.5-1-1-1h-27.898c-1.3008 0-1.3008 2 0 2h27.898l-1-1v37.199c0 0.5 0.5 1 1 1h18.602c-0.19922-0.60156-0.5-1.1016-0.69922-1.6992-10.902 9.1953-21.801 18.496-32.602 27.797h1.3984c-10.801-9.3008-21.699-18.602-32.5-27.898-0.19922 0.60156-0.5 1.1016-0.69922 1.6992h18.602c0.5 0 1-0.5 1-1v-37.199c-0.10156-1.2031-2.1016-1.2031-2.1016 0z"/>
 </g>
</svg>
