<?xml version="1.0" encoding="UTF-8"?>
<svg fill="#E3DDDC" width="100pt" height="100pt" version="1.1" viewBox="0 0 100 100" xmlns="http://www.w3.org/2000/svg">
 <path d="m77.012 11.578c-0.625 0.039063-1.1641-0.4375-1.1992-1.0625-0.035156-0.62891 0.44141-1.1641 1.0664-1.1992l11.367-0.69531v-0.003906c0.30078-0.015626 0.59766 0.085937 0.82422 0.28516 0.22656 0.19922 0.36328 0.48047 0.37891 0.78125 0.007812 0.10938-0.003907 0.21875-0.027344 0.32422l-2.5859 11.098c-0.058594 0.30078-0.23828 0.57031-0.49609 0.73828-0.26172 0.16797-0.57812 0.22656-0.87891 0.15625-0.30078-0.070312-0.55859-0.26172-0.71875-0.52734-0.15625-0.26562-0.19922-0.58594-0.11719-0.88281l1.7617-7.5469-23.945 21.777c-0.34766 0.35156-0.88281 0.4375-1.3203 0.21094l-21.992-11.18-4.0742 3.0781c0.023437-0.36719 0.035156-0.73828 0.035156-1.1133 0-0.57031-0.027344-1.1367-0.082032-1.6992l3.3203-2.5078v0.003906c0.34766-0.26172 0.8125-0.30469 1.1992-0.10547l21.926 11.145 23.715-21.574zm-54.344 44.742h-12.016v29.328h12.016zm22.527-15.387-12.02 0.003906v44.711h12.016v-44.711zm22.527 8.6484-12.027 0.003907v36.062h12.02v-36.062zm22.527-20.508h-12.031v56.574h12.02v-56.574zm-73.742-12.105h-0.003906c0-0.625 0.50781-1.1367 1.1367-1.1367s1.1367 0.51172 1.1367 1.1367v0.089844c2.2695 0.52734 3.875 2.5508 3.875 4.8789 0 0.62891-0.50781 1.1367-1.1367 1.1367s-1.1367-0.50781-1.1367-1.1367c0-1.5117-1.2266-2.7344-2.7383-2.7344s-2.7344 1.2227-2.7344 2.7344c0 2.0547 1.5 2.4102 3 2.7695 2.375 0.56641 4.75 1.1289 4.75 4.9805 0 2.332-1.6055 4.3555-3.875 4.8828v0.085938c0 0.62891-0.51172 1.1367-1.1367 1.1367-0.62891 0-1.1367-0.50781-1.1367-1.1367v-0.085938c-2.2695-0.53125-3.875-2.5508-3.875-4.8828 0-0.625 0.50781-1.1367 1.1367-1.1367 0.625 0 1.1367 0.51172 1.1367 1.1367 0 1.5117 1.2227 2.7383 2.7344 2.7383s2.7383-1.2266 2.7383-2.7383c0-2.0547-1.5-2.4102-3-2.7695-2.375-0.56641-4.75-1.1328-4.75-4.9805 0.003906-2.3281 1.6055-4.3516 3.875-4.8789v-0.085938zm9.5859 0.39453-0.003906 0.003907c-4.0273-4.0391-10.344-4.668-15.086-1.5078-4.7461 3.1641-6.5938 9.2344-4.418 14.504 2.1758 5.2695 7.7695 8.2695 13.363 7.1641 5.5898-1.1055 9.625-6.0078 9.6289-11.711 0.003906-3.168-1.2539-6.2109-3.5-8.4492zm-8.4492-5.7734-0.003906 0.003906c-6.7852-0.007812-12.629 4.7773-13.961 11.434-1.3281 6.6523 2.2266 13.32 8.4922 15.922 6.2695 2.6016 13.5 0.41016 17.273-5.2305 3.7734-5.6367 3.0352-13.156-1.7617-17.957-2.6641-2.6719-6.2812-4.1719-10.055-4.1641zm10.605 3.6172h-0.003906c-3.293-3.3008-7.9375-4.8789-12.559-4.2734-4.625 0.60547-8.7031 3.3242-11.039 7.3633-2.3359 4.0352-2.6602 8.9297-0.87891 13.238s5.4648 7.5469 9.9688 8.7578c4.5039 1.2109 9.3125 0.25781 13.016-2.5781 3.7031-2.8398 5.875-7.2344 5.8789-11.898 0.003907-3.9766-1.5781-7.7969-4.3945-10.605zm-23.594 76.176c-0.62891 0-1.1367-0.50781-1.1367-1.1367s0.50781-1.1367 1.1367-1.1367h91.578c0.62891 0 1.1367 0.50781 1.1367 1.1367s-0.50781 1.1367-1.1367 1.1367z" fill-rule="evenodd"/>
</svg>
