<?xml version="1.0" encoding="UTF-8"?>
<svg fill="#E3DDDC" width="100pt" height="100pt" version="1.1" viewBox="0 0 100 100" xmlns="http://www.w3.org/2000/svg">
 <g>
  <path d="m43.281 67.188-40.156-19.375v38.75z"/>
  <path d="m96.875 86.562v-38.75l-40.156 19.375z"/>
  <path d="m53.125 68.906-3.125 1.5625-3.125-1.5625-43.75 21.094v2.1875c0 2.6562 2.0312 4.6875 4.6875 4.6875h84.375c2.6562 0 4.6875-2.0312 4.6875-4.6875v-2.1875z"/>
  <path d="m9.375 32.969-3.75 2.6562c-1.5625 1.25-2.5 3.125-2.5 5v3.5938l6.25 2.9688z"/>
  <path d="m94.375 35.625-3.75-2.6562v14.375l6.25-2.9688v-3.75c0-1.875-0.9375-3.75-2.5-5z"/>
  <path d="m12.5 3.125v45.781l37.5 18.125 37.5-18.125v-45.781zm54.844 30.156c-0.625 1.7188-1.5625 2.9688-2.8125 4.0625-1.25 0.9375-2.0312 1.7188-3.5938 1.7188-3.125 0-4.6875-1.5625-5.1562-3.125h-0.3125c-1.5625 1.5625-3.4375 2.8125-5.9375 2.8125s-4.5312-0.78125-5.9375-2.1875-2.1875-3.5938-2.1875-6.25c0-2.9688 0.9375-5.4688 2.8125-7.1875 1.875-1.875 4.375-2.8125 7.5-2.8125 1.25 0 2.5 0.15625 4.0625 0.3125s2.6562 0.46875 3.5938 0.78125l-0.46875 10.469c0 2.0312 0.46875 2.9688 1.5625 2.9688 0.9375 0 1.5625-0.625 2.1875-2.0312 0.46875-1.4062 0.78125-3.125 0.78125-5.1562 0-2.3438-0.46875-4.375-1.4062-6.0938s-2.3438-3.125-4.0625-4.0625-3.75-1.4062-5.9375-1.4062c-2.8125 0-5.3125 0.625-7.5 1.7188-2.1875 1.25-3.75 2.8125-4.8438 5.1562-1.0938 2.1875-1.7188 4.8438-1.7188 7.6562 0 3.9062 1.0938 6.875 3.125 9.0625 2.0312 2.0312 5.1562 3.125 9.0625 3.125 1.5625 0 3.125-0.15625 5-0.46875s3.75-1.25 5.4688-1.875v4.6875c-3.125 1.25-6.5625 1.7188-10.312 1.7188-5.4688 0-9.6875-1.4062-12.656-4.2188s-4.5312-6.875-4.5312-11.875c0-3.5938 0.78125-6.7188 2.3438-9.5312s3.75-5.1562 6.5625-6.7188 6.0938-2.5 9.8438-2.5c3.125 0 5.9375 0.625 8.4375 1.875s4.375 3.125 5.7812 5.4688 2.0312 5.1562 2.0312 8.125c0.15625 2.1875-0.15625 4.0625-0.78125 5.7812z"/>
  <path d="m47.969 25.781c-0.9375 1.0938-1.5625 2.6562-1.5625 4.5312 0 2.9688 1.25 4.5312 3.75 4.5312 1.25 0 2.1875-0.46875 2.9688-1.4062 0.625-0.9375 1.0938-2.3438 1.25-4.375l0.3125-4.6875c-0.78125-0.15625-1.5625-0.3125-2.5-0.3125-1.875 0-3.2812 0.625-4.2188 1.7188z"/>
 </g>
</svg>
