<?xml version="1.0" encoding="UTF-8"?>
<svg fill="#010658" width="100pt" height="100pt" version="1.1" viewBox="0 0 100 100" xmlns="http://www.w3.org/2000/svg">
 <path d="m77 35v-4c0-1.6562-1.3438-3-3-3h-39.363c-0.69922 0-1.3789-0.24609-1.918-0.69531l-4.332-3.6094c-0.53906-0.44922-1.2188-0.69531-1.9219-0.69531h-10.465c-1.6562 0-3 1.3438-3 3v48c0 1.6562 1.3438 3 3 3h59.441c1.3945 0 2.6055-0.96094 2.9219-2.3203l6.7422-29c0.37891-1.6133-0.625-3.2266-2.2422-3.6016-0.22266-0.050781-0.44922-0.078125-0.67969-0.078125h-58.184c-1.1055 0-2-0.89453-2-2s0.89453-2 2-2h50c1.6562 0 3-1.3438 3-3z"/>
</svg>
