<?xml version="1.0" encoding="UTF-8"?>
<svg fill="#E3DDDC" width="100pt" height="100pt" version="1.1" viewBox="0 0 100 100" xmlns="http://www.w3.org/2000/svg">
 <path d="m40.078 52.812c3.4102 2.0742 6.5 4.3906 9.1875 6.8125-1.4648 1.3086-2.9414 2.4531-4.4102 3.4219-4.6406 3.0664-9.0977 4.3047-12.512 3.1562zm19.887-6.3281-12.176-7.0312-6.2656 10.855c3.668 2.2266 6.9805 4.7148 9.8438 7.3164 3.0469-3.0781 5.9883-6.8398 8.5977-11.141zm15.926 9.1953-13.426-7.75c-2.7227 4.5-5.8047 8.4492-9.0117 11.695 2.9805 3.0039 5.3672 6.1133 7.0195 9.1016 6.1562-2.5977 11.598-7.0273 15.418-13.047zm-26.656-18.73 12.176 7.0273c2.418-4.4023 4.2031-8.8242 5.3438-13-3.6914-1.1953-7.5078-2.8281-11.254-4.8828zm8.4961 32.797c-1.5195-2.6523-3.6797-5.4219-6.3672-8.1211-1.6289 1.4727-3.2773 2.7578-4.9102 3.8359-3.6133 2.3867-7.1992 3.7891-10.469 4.0195 7.1602 2.5352 14.805 2.5156 21.746 0.26562zm-15.199 11.707v4.9336h8.543l-0.003907-4.8438c-1.2617 0.10938-2.5312 0.16406-3.8086 0.16406-1.582-0.003906-3.1602-0.085937-4.7305-0.25391zm37.414-62.785c3.1875 5.5273 5.0117 11.949 5.0117 18.809 0 10.41-4.2188 19.836-11.039 26.656-6.8203 6.8203-16.246 11.039-26.656 11.039-3.3789 0-6.6484-0.44141-9.7539-1.2695-3.2227-0.85938-6.2656-2.1289-9.0664-3.7461l-0.003906-0.003906-1.7969 3.1328c3.0938 1.7852 6.4258 3.1797 9.9336 4.1172 3.4141 0.91406 7 1.3984 10.688 1.3984 11.41 0 21.742-4.625 29.219-12.102 7.4766-7.4766 12.105-17.809 12.105-29.219 0-7.4961-2.0039-14.535-5.5078-20.609-3.625-6.2891-8.8555-11.531-15.129-15.164l-1.8125 3.1328 0.039062 0.023437c5.7148 3.3164 10.473 8.0898 13.77 13.805zm-2.6055 34.508c3.2891-6.293 4.4102-13.188 3.6016-19.793-3.4141 0.050782-7.3086-0.48437-11.41-1.582-1.207 4.3945-3.0859 9.0273-5.6133 13.625zm-7.125-24.188c3.6953 0.99609 7.1836 1.5039 10.242 1.5078-1.5117-7.168-5.3242-13.824-11.121-18.781 1.4336 2.9453 2.0117 6.7539 1.7539 11.074-0.11719 1.9609-0.41016 4.043-0.875 6.1992zm-24.918-13.688c2.6914 2.4453 5.7773 4.7852 9.1484 6.8438l7.7305-13.391c-3.4141-1.1484-7.8711 0.09375-12.512 3.1562-1.4492 0.96094-2.9141 2.0977-4.3672 3.3906zm-20.988 30.652c-3.6836-0.98828-7.1562-1.4648-10.234-1.4297 1.5195 7.1445 5.3281 13.781 11.109 18.727-1.4336-2.9453-2.0117-6.7539-1.7539-11.074 0.12109-1.9727 0.41406-4.0586 0.87891-6.2227zm16.797-30.66c-2.9805-3.0156-5.3867-6.125-7.0586-9.0625-6.1562 2.5977-11.598 7.0273-15.418 13.047l13.422 7.75c2.7344-4.5156 5.832-8.4805 9.0547-11.734zm-6.5469 13.184 12.172 7.0273 6.2656-10.852c-3.625-2.207-6.9297-4.7227-9.8086-7.3516-3.0547 3.082-6.0117 6.8594-8.6289 11.176zm43.125 60.812h-61.766c-1.2383 0-2.3672 0.50781-3.1797 1.3203-0.81641 0.81641-1.3203 1.9414-1.3203 3.1797v4.5039h70.766l0.003906-1.4492v-3.0547c0-1.2383-0.50781-2.3672-1.3203-3.1797-0.82031-0.81641-1.9453-1.3203-3.1836-1.3203zm-52.684-46.152c1.207-4.3867 3.082-9.0117 5.6094-13.602l-13.426-7.75c-3.3008 6.3125-4.4141 13.23-3.5898 19.855 3.4375-0.09375 7.3164 0.41016 11.406 1.4961zm1.3203 9.207c-0.33203 5.5508 0.82031 10.031 3.5195 12.414l7.7305-13.395c-3.5195-1.9336-7.0625-3.4648-10.488-4.5859-0.39844 1.9375-0.65234 3.8047-0.76172 5.5664zm21.75-42.848c3.6133-2.3867 7.1992-3.7891 10.473-4.0195-7.1602-2.5312-14.797-2.5156-21.738-0.26953 1.543 2.6172 3.7227 5.3867 6.3984 8.0859 1.6133-1.4531 3.2461-2.7227 4.8672-3.7969zm-20.297 34.461c3.6641 1.1836 7.4648 2.8242 11.246 4.9062l6.2656-10.852-12.176-7.0312c-2.4102 4.3945-4.1953 8.8086-5.3359 12.977zm39.664-15.801c0.40234-1.9258 0.65625-3.7852 0.76172-5.543 0.33203-5.5508-0.82031-10.031-3.5195-12.414l-7.7305 13.395c3.4844 1.9102 7.0391 3.4336 10.488 4.5625z"/>
</svg>
