<?xml version="1.0" encoding="UTF-8"?>
<svg fill="#010658" width="100pt" height="100pt" version="1.1" viewBox="0 0 100 100" xmlns="http://www.w3.org/2000/svg">
 <path d="m16.09 89.66c0.41406 0 0.83203-0.10938 1.207-0.33203 8.418-4.9922 20.359-7.8555 32.754-7.8555 12.391 0 24.332 2.8633 32.758 7.8555 0.99219 0.58594 2.2617 0.375 3.0117-0.49609 7.3086-8.5312 11.336-19.41 11.336-30.637 0-25.977-21.129-47.109-47.105-47.109-25.969 0-47.105 21.133-47.105 47.105 0 11.23 4.0273 22.109 11.34 30.637 0.46484 0.54688 1.1328 0.83203 1.8047 0.83203zm9.6758-14.395l-5.4141 3.1445c-0.375 0.21875-0.78516 0.32031-1.1914 0.32031-0.81641 0-1.6133-0.42188-2.0547-1.1797-0.66016-1.1328-0.27344-2.5898 0.85938-3.2461l5.4141-3.1445c1.1289-0.66016 2.5898-0.27344 3.2461 0.85938 0.65625 1.1328 0.27344 2.5859-0.85938 3.2461zm58.09 2.1055c-0.4375 0.76562-1.2383 1.1953-2.0586 1.1953-0.40234 0-0.80469-0.10156-1.1797-0.31641l-5.4297-3.1172c-1.1367-0.65234-1.5312-2.1016-0.87891-3.2422 0.65234-1.1367 2.1055-1.5273 3.2422-0.87891l5.4297 3.1172c1.1328 0.65625 1.5234 2.1055 0.875 3.2422zm4.3594-19.18c0 1.3086-1.0625 2.375-2.375 2.375h-6.2656c-1.3086 0-2.3711-1.0664-2.3711-2.375s1.0625-2.375 2.3711-2.375h6.2656c1.3125 0.003906 2.375 1.0664 2.375 2.375zm-13.777-16.695l5.418-3.1484c1.1328-0.66016 2.5859-0.27344 3.2461 0.85938 0.66016 1.1328 0.27344 2.5859-0.85937 3.2461l-5.418 3.1484c-0.375 0.21875-0.78906 0.32422-1.1914 0.32422-0.81641 0-1.6133-0.42578-2.0547-1.1836-0.66016-1.1328-0.27344-2.582 0.85938-3.2461zm-11.637-9.7969l3.1055-5.4453c0.65234-1.1367 2.0977-1.5352 3.2383-0.88672 1.1406 0.65234 1.5352 2.1016 0.88672 3.2383l-3.1055 5.4453c-0.4375 0.76953-1.2422 1.1992-2.0664 1.1992-0.39844 0-0.80078-0.10156-1.1719-0.3125-1.1367-0.65234-1.5352-2.1016-0.88672-3.2383zm-15.121-9.3008c0-1.3086 1.0664-2.375 2.375-2.375 1.3086 0 2.375 1.0664 2.375 2.375v6.2656c0 1.3086-1.0664 2.375-2.375 2.375-1.3086 0-2.375-1.0664-2.375-2.375zm-3.4922 30.902c2.7305-2.4375 22.844-12.035 23.695-12.441 0.34766-0.16797 0.76953-0.085937 1.0352 0.20703 0.25781 0.29297 0.29688 0.71875 0.089843 1.0508-0.50391 0.80469-12.301 19.711-15.027 22.145-1.3477 1.2031-3.0859 1.8672-4.8945 1.8672-2.0898 0-4.0898-0.89453-5.4805-2.4531-2.6992-3.0234-2.4375-7.6758 0.58203-10.375zm-12.66-27.828c1.1367-0.65625 2.5898-0.26953 3.2422 0.86719l3.1328 5.4258c0.65625 1.1367 0.26953 2.5898-0.86719 3.2422-0.375 0.21484-0.78516 0.32031-1.1875 0.32031-0.81641 0-1.6172-0.42578-2.0547-1.1875l-3.1328-5.4258c-0.65625-1.1328-0.26953-2.5859 0.86719-3.2422zm-13.879 13.918c0.65625-1.1367 2.1055-1.5273 3.2422-0.87891l5.4336 3.1211c1.1367 0.65234 1.5312 2.1055 0.87891 3.2383-0.44141 0.76562-1.2383 1.1953-2.0586 1.1953-0.40234 0-0.80469-0.10156-1.1797-0.31641l-5.4336-3.1211c-1.1406-0.64844-1.5352-2.1016-0.88281-3.2383zm-5.7617 18.801c0-1.3086 1.0664-2.375 2.375-2.375h6.2617c1.3125 0 2.375 1.0664 2.375 2.375s-1.0625 2.375-2.375 2.375h-6.2617c-1.3086 0-2.375-1.0664-2.375-2.375z"/>
</svg>
