<?xml version="1.0" encoding="UTF-8"?>
<svg fill="#010658" width="100pt" height="100pt" version="1.1" viewBox="0 0 100 100" xmlns="http://www.w3.org/2000/svg">
 <g>
  <path d="m95.102 91.301h-4.3008v-72.602c0-1-0.80078-1.8008-1.8008-1.8008h-17v-12.598c0-1-0.80078-1.8008-1.8008-1.8008h-40.398c-1 0-1.8008 0.80078-1.8008 1.8008v12.699h-17c-1 0-1.8008 0.80078-1.8008 1.8008v72.602l-4.3008-0.003906c-0.60156 0-1.1992 0.5-1.1992 1.1992v3.8984c0 0.60156 0.5 1.1992 1.1992 1.1992h90.199c0.60156 0 1.1992-0.5 1.1992-1.1992v-3.8984c0.003906-0.79688-0.49609-1.2969-1.1953-1.2969zm-43.902 0v-18.5h9.8984c0.60156 0 1.1992 0.5 1.1992 1.1992v17.301zm3.1016-26.199v-6.8984c0-0.60156 0.5-1.1992 1.1992-1.1992h7.3008c0.60156 0 1.1992 0.5 1.1992 1.1992v6.8984c0 0.60156-0.5 1.1992-1.1992 1.1992h-7.3008c-0.69922 0-1.1992-0.5-1.1992-1.1992zm18.199-38.402c0-0.60156 0.5-1.1992 1.1992-1.1992h7.3008c0.60156 0 1.1992 0.5 1.1992 1.1992v6.8984c0 0.60156-0.5 1.1992-1.1992 1.1992h-7.3008c-0.60156 0-1.1992-0.5-1.1992-1.1992zm0 15.801c0-0.60156 0.5-1.1992 1.1992-1.1992h7.3008c0.60156 0 1.1992 0.5 1.1992 1.1992v6.8984c0 0.60156-0.5 1.1992-1.1992 1.1992h-7.3008c-0.60156 0-1.1992-0.5-1.1992-1.1992zm0 15.699c0-0.60156 0.5-1.1992 1.1992-1.1992h7.3008c0.60156 0 1.1992 0.5 1.1992 1.1992v6.8984c0 0.60156-0.5 1.1992-1.1992 1.1992h-7.3008c-0.60156 0-1.1992-0.5-1.1992-1.1992zm-8.6016-15.699v6.8984c0 0.60156-0.5 1.1992-1.1992 1.1992h-7.3008c-0.60156 0-1.1992-0.5-1.1992-1.1992v-6.8984c0-0.60156 0.5-1.1992 1.1992-1.1992h7.3008c0.69922 0 1.1992 0.5 1.1992 1.1992zm-13.898-32.398c6.5 0 11.801 5.3008 11.801 11.801s-5.3008 11.801-11.801 11.801-11.801-5.3008-11.801-11.801c0-6.5039 5.3008-11.801 11.801-11.801zm-13.898 32.398c0-0.60156 0.5-1.1992 1.1992-1.1992h7.3008c0.60156 0 1.1992 0.5 1.1992 1.1992v6.8984c0 0.60156-0.5 1.1992-1.1992 1.1992h-7.3008c-0.60156 0-1.1992-0.5-1.1992-1.1992zm0 15.699c0-0.60156 0.5-1.1992 1.1992-1.1992h7.3008c0.60156 0 1.1992 0.5 1.1992 1.1992v6.8984c0 0.60156-0.5 1.1992-1.1992 1.1992h-7.3008c-0.60156 0-1.1992-0.5-1.1992-1.1992zm-18.301-31.5c0-0.60156 0.5-1.1992 1.1992-1.1992h7.3008c0.60156 0 1.1992 0.5 1.1992 1.1992v6.8984c0 0.60156-0.5 1.1992-1.1992 1.1992l-7.3008 0.003906c-0.60156 0-1.1992-0.5-1.1992-1.1992zm0 15.801c0-0.60156 0.5-1.1992 1.1992-1.1992h7.3008c0.60156 0 1.1992 0.5 1.1992 1.1992v6.8984c0 0.60156-0.5 1.1992-1.1992 1.1992l-7.3008 0.003906c-0.60156 0-1.1992-0.5-1.1992-1.1992zm0 15.699c0-0.60156 0.5-1.1992 1.1992-1.1992h7.3008c0.60156 0 1.1992 0.5 1.1992 1.1992v6.8984c0 0.60156-0.5 1.1992-1.1992 1.1992l-7.3008 0.003906c-0.60156 0-1.1992-0.5-1.1992-1.1992zm19.898 15.801c0-0.60156 0.5-1.1992 1.1992-1.1992h9.8984v18.5h-11.098z"/>
  <path d="m48.199 28.801h3.6016c0.30078 0 0.60156-0.30078 0.60156-0.60156v-3.8984h3.8984c0.30078 0 0.60156-0.30078 0.60156-0.60156v-3.6016c0-0.30078-0.30078-0.60156-0.60156-0.60156h-3.8984v-3.8984c0-0.30078-0.30078-0.60156-0.60156-0.60156h-3.6016c-0.30078 0-0.60156 0.30078-0.60156 0.60156v3.8984h-3.8984c-0.30078 0-0.60156 0.30078-0.60156 0.60156v3.6016c0 0.30078 0.30078 0.60156 0.60156 0.60156h3.8984v3.8984c0.003906 0.30078 0.30078 0.60156 0.60156 0.60156z"/>
 </g>
</svg>
