<?xml version="1.0" encoding="UTF-8"?>
<svg fill="#010658" width="100pt" height="100pt" version="1.1" viewBox="0 0 100 100" xmlns="http://www.w3.org/2000/svg">
 <path d="m72.832 4.5625h-45.664c-12.5 0-22.621 10.121-22.621 22.621v45.652c0 12.484 10.121 22.621 22.621 22.621h45.684c12.484 0 22.621-10.121 22.621-22.621l-0.003906-45.652c-0.015625-12.5-10.137-22.621-22.637-22.621zm-24.742 15.727c3.9531 0 7.2578 3.3047 7.2578 7.3633 0 4.0625-3.3047 7.2578-7.2578 7.2578-4.0742 0-7.3633-3.1953-7.3633-7.2578s3.3047-7.3633 7.3633-7.3633zm13.363 57.832c0 0.87891-0.71094 1.5898-1.5898 1.5898h-19.742c-0.87891 0-1.5898-0.71094-1.5898-1.5898v-5.3945c0-0.87891 0.71094-1.5898 1.5898-1.5898h3.7422v-21.031l-3.9375-0.78906c-0.74219-0.15234-1.2891-0.80469-1.2891-1.5742v-2.5898c0-0.75781 0.53125-1.4102 1.2734-1.5742l12.168-2.5312c0.95312-0.19531 1.9375 0.046875 2.6953 0.65234 0.75781 0.62109 1.1953 1.5312 1.1953 2.5v26.5h3.9102c0.87891 0 1.5898 0.71094 1.5898 1.5898v5.832z"/>
</svg>
