<?xml version="1.0" encoding="UTF-8"?>
<svg fill="#010658" width="100pt" height="100pt" version="1.1" viewBox="0 0 100 100" xmlns="http://www.w3.org/2000/svg">
 <g>
  <path d="m66.348 10.59h-8.6875c-0.53125 0-0.96094-0.44141-0.96094-0.97266 0-3.7109-3.0195-6.7422-6.7305-6.7422s-6.7305 3.0273-6.7305 6.7383c0 0.53125-0.42969 0.98047-0.96094 0.98047l-8.625-0.003906v7.6914h32.691z"/>
  <path d="m62.5 88.043 8.2227-8.2227h-8.2227z"/>
  <path d="m73.312 14.438h-5.043v4.7734c0 0.53125-0.46484 0.99609-0.99609 0.99609h-34.617c-0.53125 0-0.92578-0.46484-0.92578-0.99609v-4.7734h-5.1094c-3.5625 0-6.4297 2.8633-6.4297 6.4297v69.766c0 3.5625 2.8633 6.4961 6.4297 6.4961h46.691c3.5625 0 6.4961-2.9336 6.4961-6.4961v-69.77c0-3.5625-2.9336-6.4258-6.4961-6.4258zm0.63672 64.695c-0.015625 0.050782-0.003907 0.050782-0.082031 0.18359-0.11719 0.19531 0.63281-0.59375-11.684 11.73-0.10547 0.10547-0.17188 0.13672-0.19531 0.14844-0.066406 0.039063-0.089843 0.058594-0.18359 0.089844-0.039063 0.011719-0.074219 0.035156-0.11328 0.042969-0.0625 0.011719-0.125 0.035156-0.19141 0.035156h-34.617c-0.53125 0-0.92578-0.46484-0.92578-0.99609v-61.539c0-0.53125 0.42969-0.96094 0.96094-0.96094s0.96094 0.42969 0.96094 0.96094v12.535h15.719l5.5039-11.023c0.17969-0.35547 0.55859-0.58203 0.95313-0.54297 0.39844 0.039063 0.72656 0.32031 0.83203 0.70703l4.8008 17.609 2.9531-11.805c0.10547-0.42969 0.49219-0.71094 0.93359-0.71094h9.6172c0.53125 0 0.96094 0.42969 0.96094 0.96094s-0.42969 0.96094-0.96094 0.96094h-8.8633l-3.6641 14.656c-0.10547 0.42578-0.48437 0.72656-0.92187 0.72656-0.46094 0-0.82813-0.31641-0.9375-0.72266l-5.1055-18.738-4.6445 9.2969c-0.16406 0.32422-0.49609 0.54688-0.85938 0.54688l-16.312-0.003906v46.152h32.691v-10.609c0-0.53125 0.39453-0.92578 0.92578-0.92578h10.617v-20.227c0-0.53125 0.42969-0.96094 0.96094-0.96094s0.96094 0.42969 0.96094 0.96094c-0.027343 23.289 0.0625 21.012-0.089843 21.461zm-37.445-10.852c-0.53125 0-0.96094-0.42969-0.96094-0.96094s0.42969-0.96094 0.96094-0.96094h26.922c0.53125 0 0.96094 0.42969 0.96094 0.96094s-0.42969 0.96094-0.96094 0.96094zm18.27 6.7305c0 0.53125-0.42969 0.96094-0.96094 0.96094h-17.309c-0.53125 0-0.96094-0.42969-0.96094-0.96094s0.42969-0.96094 0.96094-0.96094h17.309c0.53125 0 0.96094 0.42969 0.96094 0.96094zm-19.23-15.383c0-0.53125 0.42969-0.96094 0.96094-0.96094h13.461c0.53125 0 0.96094 0.42969 0.96094 0.96094s-0.42969 0.96094-0.96094 0.96094h-13.461c-0.53125 0-0.96094-0.42969-0.96094-0.96094z"/>
 </g>
</svg>
