<?xml version="1.0" encoding="UTF-8"?>
<svg fill="#E3DDDC" width="100pt" height="100pt" version="1.1" viewBox="0 0 100 100" xmlns="http://www.w3.org/2000/svg">
 <g>
  <path d="m50 3.125c-25.844 0-46.875 21.031-46.875 46.875s21.031 46.875 46.875 46.875 46.875-21.031 46.875-46.875-21.031-46.875-46.875-46.875zm0 90.625c-24.125 0-43.75-19.625-43.75-43.75s19.625-43.75 43.75-43.75 43.75 19.625 43.75 43.75-19.625 43.75-43.75 43.75z"/>
  <path d="m76.969 38.938h-15.906v-15.906c0-0.85938-0.70312-1.5625-1.5625-1.5625h-19c-0.85938 0-1.5625 0.70312-1.5625 1.5625v15.906h-15.906c-0.85938 0-1.5625 0.70312-1.5625 1.5625v19c0 0.85938 0.70312 1.5625 1.5625 1.5625h15.906v15.906c0 0.85938 0.70312 1.5625 1.5625 1.5625h19c0.85938 0 1.5625-0.70312 1.5625-1.5625v-15.906h15.906c0.85938 0 1.5625-0.70312 1.5625-1.5625v-19c0-0.85938-0.70312-1.5625-1.5625-1.5625z"/>
 </g>
</svg>
