<?xml version="1.0" encoding="UTF-8"?>
<svg fill="#010658" width="100pt" height="100pt" version="1.1" viewBox="0 0 100 100" xmlns="http://www.w3.org/2000/svg">
 <g>
  <path d="m54.688 29.297h-48.438c-0.64453-0.007813-1.1641-0.52734-1.1719-1.1719v-21.875c0.007813-0.64453 0.52734-1.1641 1.1719-1.1719h48.438c0.64453 0.007813 1.1641 0.52734 1.1719 1.1719v21.875c-0.007813 0.64453-0.52734 1.1641-1.1719 1.1719z"/>
  <path d="m78.125 62.109h-48.438c-0.64453-0.007813-1.1641-0.52734-1.1719-1.1719v-21.875c0.007813-0.64453 0.52734-1.1641 1.1719-1.1719h48.438c0.64453 0.007813 1.1641 0.52734 1.1719 1.1719v21.875c-0.007813 0.64453-0.52734 1.1641-1.1719 1.1719z"/>
  <path d="m93.75 94.922h-48.438c-0.64453-0.007813-1.1641-0.52734-1.1719-1.1719v-21.875c0.007813-0.64453 0.52734-1.1641 1.1719-1.1719h48.438c0.64453 0.007813 1.1641 0.52734 1.1719 1.1719v21.875c-0.007813 0.64453-0.52734 1.1641-1.1719 1.1719z"/>
  <path d="m65.625 32.906c-0.64453-0.007812-1.1641-0.52734-1.1719-1.1719v-13.375h-9.7656c-0.64844 0-1.1719-0.52344-1.1719-1.1719s0.52344-1.1719 1.1719-1.1719h10.938c0.64453 0.007813 1.1641 0.52734 1.1719 1.1719v14.547c-0.007813 0.64453-0.52734 1.1641-1.1719 1.1719z"/>
  <path d="m62.703 30.875 2.9219 5.0625 2.9219-5.0625z"/>
  <path d="m89.062 65.719c-0.64453-0.007812-1.1641-0.52734-1.1719-1.1719v-13.375h-9.7656c-0.64844 0-1.1719-0.52344-1.1719-1.1719s0.52344-1.1719 1.1719-1.1719h10.938c0.64453 0.007813 1.1641 0.52734 1.1719 1.1719v14.547c-0.007813 0.64453-0.52734 1.1641-1.1719 1.1719z"/>
  <path d="m86.141 63.688 2.9219 5.0625 2.9219-5.0625z"/>
 </g>
</svg>
