<?xml version="1.0" encoding="UTF-8"?>
<svg fill="#E3DDDC" width="100pt" height="100pt" version="1.1" viewBox="0 0 100 100" xmlns="http://www.w3.org/2000/svg">
 <g>
  <path d="m62.5 13.281c0 6.25-9.375 6.25-9.375 0s9.375-6.25 9.375 0"/>
  <path d="m57.031 3.125h-25.297c-6.5703 0.019531-12.73 3.1953-16.562 8.5312-7.8945 11.223-12.105 24.621-12.047 38.344-0.058594 13.723 4.1523 27.121 12.047 38.344 3.832 5.3359 9.9922 8.5117 16.562 8.5312h57.328c2.0703 0 4.0586-0.82422 5.5234-2.2891 1.4648-1.4648 2.2891-3.4531 2.2891-5.5234v-39.062c0-25.844-17.875-46.875-39.844-46.875zm-2.1875 88.562c-0.046875 0.67188-0.078125 1.3125-0.10938 1.9531-17.812-1.3281-32.297-18.062-34.203-38.953h11.516c0.70312 5.3438 2.7344 10.426 5.9062 14.781 0.046875 0.078125 0.078125 0.15625 0.125 0.21875 2.9531 4.0312 7.0469 7.0898 11.75 8.7812 5.3125 1.7812 5.4375 6.3906 5.0156 13.219zm38.906-7.3125h-35.859c-0.29297-4.1289-3.1016-7.6523-7.0625-8.8594-3.0586-1.0977-5.8242-2.8789-8.0938-5.2031h51.016zm-45.312-23.438c0-2.5273 1.5234-4.8086 3.8594-5.7734 2.3359-0.96875 5.0234-0.43359 6.8086 1.3555 1.7891 1.7852 2.3242 4.4727 1.3555 6.8086-0.96484 2.3359-3.2461 3.8594-5.7734 3.8594-3.4531 0-6.25-2.7969-6.25-6.25zm45.312 6.25h-23.438c-3.4531 0-6.25-2.7969-6.25-6.25s2.7969-6.25 6.25-6.25h23.438zm0-15.625h-11.438c0.03125-0.53125 0.046875-1.0469 0.046875-1.5625 0-16.375-11.359-29.688-25.328-29.688s-25.328 13.312-25.328 29.688c0 0.53125 0.046875 1.0469 0.0625 1.5625h-11.422c-0.015625-0.51562-0.03125-1.0312-0.03125-1.5625 0-24.125 16.469-43.75 36.719-43.75s36.719 19.625 36.719 43.75z"/>
 </g>
</svg>
