<?xml version="1.0" encoding="UTF-8"?>
<svg fill="#010658" width="100pt" height="100pt" version="1.1" viewBox="0 0 100 100" xmlns="http://www.w3.org/2000/svg">
 <g>
  <path d="m50 5c-16.141 0-29.23 12.605-29.23 28.16 0 21.625 24.941 44.016 28.746 48.617v-0.003906c0.12109 0.14453 0.29688 0.22656 0.48438 0.22656s0.36328-0.082031 0.48438-0.22656c3.8008-4.5977 28.746-26.988 28.746-48.617 0-15.551-13.086-28.156-29.23-28.156zm12.129 29.691c-0.81641 5.375-5.1367 9.5352-10.539 10.152-8 0.97266-14.727-5.5078-13.719-13.215 0.81641-5.3789 5.1367-9.5391 10.539-10.152 8-0.97266 14.727 5.5078 13.719 13.215z"/>
  <path d="m15 92c0 1.6562 1.3438 3 3 3h26v-6h-26c-1.6562 0-3 1.3438-3 3z"/>
  <path d="m82 89h-26v6h26c1.6562 0 3-1.3438 3-3s-1.3438-3-3-3z"/>
 </g>
</svg>
