<?xml version="1.0" encoding="UTF-8"?>
<svg fill="#010658" width="100pt" height="100pt" version="1.1" viewBox="0 0 100 100" xmlns="http://www.w3.org/2000/svg">
 <path d="m90.863 21.93h-20.348v-20.352zm-76.66 66.98v-79.582h-3.3047c-0.97266 0-1.7578 0.78906-1.7617 1.7617v85.57-0.003906c0.003906 0.97266 0.78906 1.7617 1.7617 1.7656h70.422c0.97266-0.003906 1.7617-0.79297 1.7617-1.7656v-3.2695h-64.402c-2.4727-0.003907-4.4727-2.0039-4.4766-4.4766zm29.312-58.289c0.94531-0.058594 1.7656-0.67969 2.0742-1.5781h-4.1523c0.30859 0.89844 1.1289 1.5195 2.0781 1.5781zm-0.69141-4.2891 1.3867-0.003906-0.69141-2.4883zm46.277-24.754h-14.754l16.516 16.516v-14.75c-0.003906-0.97266-0.78906-1.7617-1.7617-1.7656zm-25.527 24.75h1.3867l-0.69141-2.4883zm27.293-1.6914-0.003907 64.273c-0.003906 0.97266-0.78906 1.7617-1.7617 1.7617h-70.422c-0.97266 0-1.7617-0.78906-1.7617-1.7617v-85.566c0-0.97266 0.78906-1.7617 1.7617-1.7656h49.125v15.195c-0.37109-0.16797-0.79297-0.16016-1.1523 0.019531-1.7305 0.84766-3.7539 0.84766-5.4844 0-1.1602-0.56641-2.4258-0.875-3.7148-0.90625-0.36719-1.6719-1.8516-2.8633-3.5625-2.8633-1.7148 0-3.1953 1.1914-3.5625 2.8633-1.2891 0.03125-2.5586 0.33984-3.7188 0.90625-1.7266 0.84766-3.75 0.84766-5.4805 0-0.32031-0.16016-0.69531-0.18359-1.0352-0.066407-0.33984 0.11328-0.62109 0.35938-0.78125 0.68359-0.16016 0.32422-0.18359 0.69531-0.066406 1.0352 0.11719 0.34375 0.36328 0.62109 0.68359 0.78125 0.59766 0.29297 1.2227 0.51563 1.8672 0.66797l-1.7891 6.4336h-0.19141 0.003906c-0.35937 0-0.70703 0.14453-0.96094 0.39844-0.25391 0.25391-0.39844 0.59766-0.39844 0.95703-0.15234 2.9492 2.1055 5.4727 5.0547 5.6484 2.9453-0.17969 5.2031-2.6992 5.0508-5.6484 0-0.35938-0.14453-0.70312-0.39844-0.95703-0.25391-0.25391-0.59766-0.39844-0.95703-0.39844h-0.19141l-1.7578-6.3008c0.88281-0.13672 1.7422-0.41016 2.543-0.80078 0.76172-0.375 1.5938-0.58594 2.4414-0.625 0.089844 1.2148 1.0664 2.1719 2.2852 2.2305v10.195l-3.1641 0.003906c-0.74609 0-1.3555 0.60547-1.3555 1.3555s0.60938 1.3555 1.3555 1.3555h8.5117c0.75 0 1.3555-0.60547 1.3555-1.3555s-0.60547-1.3555-1.3555-1.3555h-2.6328v-10.199c1.2188-0.058593 2.1953-1.0156 2.2852-2.2305 0.84766 0.039063 1.6797 0.25 2.4414 0.625 0.80078 0.39063 1.6602 0.66406 2.543 0.80078l-1.7578 6.3008h-0.19141 0.003906c-0.75 0-1.3555 0.60938-1.3594 1.3555-0.16016 1.4375 0.30078 2.8789 1.2656 3.957 0.96484 1.0781 2.3398 1.6953 3.7891 1.6953 1.4453 0 2.8242-0.61719 3.7891-1.6953 0.96484-1.0781 1.4258-2.5195 1.2617-3.957 0-0.35938-0.14062-0.70312-0.39453-0.95703-0.25391-0.25391-0.60156-0.39844-0.96094-0.39844h-0.19141l-1.7891-6.4336h0.003906c0.62891-0.14844 1.2383-0.36719 1.8203-0.64844v2.6836-0.003907c0 1.5 1.2148 2.7109 2.7109 2.7148zm-45.5 11.996c0 0.35938 0.14453 0.70313 0.39844 0.95703s0.59766 0.39844 0.95703 0.39844h13.805c0.74609 0 1.3555-0.60938 1.3555-1.3555 0-0.75-0.60937-1.3555-1.3555-1.3555h-13.805c-0.75 0-1.3555 0.60547-1.3555 1.3555zm36.355 36.953c0-0.35938-0.14062-0.70703-0.39453-0.96094s-0.60156-0.39844-0.96094-0.39844h-52.957c-0.75 0-1.3555 0.60938-1.3555 1.3594 0 0.74609 0.60547 1.3555 1.3555 1.3555h52.957c0.35937 0 0.70703-0.14453 0.96094-0.39844 0.25391-0.25391 0.39453-0.59766 0.39453-0.95703zm0-9.7266c0-0.35938-0.14062-0.70703-0.39453-0.96094-0.25391-0.25391-0.60156-0.39844-0.96094-0.39453h-52.957c-0.75 0-1.3555 0.60547-1.3555 1.3555 0 0.74609 0.60547 1.3555 1.3555 1.3555h52.957c0.35937 0 0.70703-0.14453 0.96094-0.39844s0.39453-0.59766 0.39453-0.95703zm0-9.7266v-0.003906c0-0.35938-0.14062-0.70312-0.39453-0.95703s-0.60156-0.39844-0.96094-0.39844h-52.957c-0.75 0-1.3555 0.60937-1.3555 1.3555 0 0.75 0.60547 1.3555 1.3555 1.3555h52.957c0.35937 0.003906 0.70703-0.14062 0.96094-0.39453s0.39453-0.60156 0.39453-0.96094zm0-9.7266v-0.003906c0-0.74609-0.60547-1.3516-1.3555-1.3516h-52.957c-0.75 0-1.3555 0.60938-1.3555 1.3594 0 0.74609 0.60547 1.3555 1.3555 1.3555h52.957c0.36328 0 0.70703-0.14453 0.96094-0.39844 0.25391-0.25781 0.39844-0.60156 0.39453-0.96484zm-17.457-13.785c0.94922-0.058594 1.7695-0.68359 2.0781-1.5781h-4.1523c0.30469 0.89844 1.125 1.5195 2.0742 1.5781zm-11.312-13.949v1.457h1.8711l0.003906-1.457c-0.007813-0.51562-0.42188-0.93359-0.9375-0.9375-0.51953 0-0.9375 0.41797-0.9375 0.9375z"/>
</svg>
