<?xml version="1.0" encoding="UTF-8"?>
<svg fill="#E3DDDC" width="100pt" height="100pt" version="1.1" viewBox="0 0 100 100" xmlns="http://www.w3.org/2000/svg">
 <g>
  <path d="m90.625 3.125h-81.25c-3.4375 0-6.25 2.8125-6.25 6.25v12.5h93.75v-12.5c0-3.4375-2.8125-6.25-6.25-6.25zm-18.75 12.5h-1.5625c-1.7188 0-3.125-1.4062-3.125-3.125s1.4062-3.125 3.125-3.125h1.5625c1.7188 0 3.125 1.4062 3.125 3.125s-1.4062 3.125-3.125 3.125zm12.5 0h-1.5625c-1.7188 0-3.125-1.4062-3.125-3.125s1.4062-3.125 3.125-3.125h1.5625c1.7188 0 3.125 1.4062 3.125 3.125s-1.4062 3.125-3.125 3.125z"/>
  <path d="m48.438 43.75h3.125v37.5h-3.125z"/>
  <path d="m70.312 53.125h3.125v28.125h-3.125z"/>
  <path d="m26.562 62.5h3.125v18.75h-3.125z"/>
  <path d="m3.125 90.625c0 3.4375 2.8125 6.25 6.25 6.25h81.25c3.4375 0 6.25-2.8125 6.25-6.25v-62.5h-93.75zm15.625-9.375h1.5625v-21.875c0-1.7188 1.4062-3.125 3.125-3.125h9.375c1.7188 0 3.125 1.4062 3.125 3.125v21.875h6.25v-40.625c0-1.7188 1.4062-3.125 3.125-3.125h9.375c1.7188 0 3.125 1.4062 3.125 3.125v40.625h6.25v-31.25c0-1.7188 1.4062-3.125 3.125-3.125h9.375c1.7188 0 3.125 1.4062 3.125 3.125v31.25h1.5625c1.7188 0 3.125 1.4062 3.125 3.125s-1.4062 3.125-3.125 3.125h-62.5c-1.7188 0-3.125-1.4062-3.125-3.125s1.4062-3.125 3.125-3.125z"/>
 </g>
</svg>
