<?xml version="1.0" encoding="UTF-8"?>
<svg fill="#E3DDDC" width="100pt" height="100pt" version="1.1" viewBox="0 0 100 100" xmlns="http://www.w3.org/2000/svg">
 <path d="m57.801 45c0 7.1016-5.8008 12.801-12.801 12.801-7.1016 0-12.801-5.8008-12.801-12.801 0-7.1016 5.8008-12.801 12.801-12.801 7.1016 0 12.801 5.6992 12.801 12.801zm27.199-18v46c0 6.6016-5.3984 12-12 12h-46c-6.6016 0-12-5.3984-12-12v-46c0-6.6016 5.3984-12 12-12h46c6.6016 0 12 5.3984 12 12zm-13.602 41.602l-13.098-13.102c2.3008-2.8984 3.6992-6.5 3.6992-10.5 0-9.3984-7.6016-17-17-17s-17 7.6016-17 17 7.6016 17 17 17c4 0 7.6016-1.3984 10.5-3.6992l13.102 13.102c0.80078 0.80078 2 0.80078 2.8008 0 0.79688-0.80078 0.79688-2.0039-0.003906-2.8008z"/>
</svg>
