<?xml version="1.0" encoding="UTF-8"?>
<svg fill="#E3DDDC" width="100pt" height="100pt" version="1.1" viewBox="0 0 100 100" xmlns="http://www.w3.org/2000/svg">
 <path d="m93.07 34.418h-86.141c-1.0664 0-1.9297 0.89453-1.9297 2v24c0 1.1055 0.86328 2 1.9297 2h86.145c1.0664 0 1.9297-0.89453 1.9297-2v-24c-0.003906-1.1055-0.86719-2-1.9336-2zm-72.629 18.332c-2.3945 0-4.332-1.9375-4.332-4.332s1.9414-4.332 4.332-4.332c2.3945 0 4.3359 1.9375 4.3359 4.332-0.003906 2.3945-1.9414 4.332-4.3359 4.332zm16.332 0c-2.3945 0-4.332-1.9375-4.332-4.332s1.9414-4.332 4.332-4.332c2.3945 0 4.3359 1.9375 4.3359 4.332-0.003906 2.3945-1.9414 4.332-4.3359 4.332zm49.5-1.082c0 0.55469-0.44922 1-1 1h-19.336c-0.55078 0-1-0.44531-1-1v-6.5c0-0.55469 0.44922-1 1-1h19.336c0.55078 0 1 0.44531 1 1zm6.7969-48.184h-86.141c-1.0664 0-1.9297 0.89453-1.9297 2v24c0 1.1055 0.86328 2 1.9297 2h86.145c1.0664 0 1.9297-0.89453 1.9297-2v-24c-0.003906-1.1055-0.86719-2-1.9336-2zm-72.629 18.332c-2.3945 0-4.332-1.9375-4.332-4.332s1.9414-4.332 4.332-4.332c2.3945 0 4.3359 1.9375 4.3359 4.332-0.003906 2.3945-1.9414 4.332-4.3359 4.332zm16.332 0c-2.3945 0-4.332-1.9375-4.332-4.332s1.9414-4.332 4.332-4.332c2.3945 0 4.3359 1.9375 4.3359 4.332-0.003906 2.3945-1.9414 4.332-4.3359 4.332zm49.5-1.082c0 0.55469-0.44922 1-1 1h-19.336c-0.55078 0-1-0.44531-1-1v-6.5c0-0.55469 0.44922-1 1-1h19.336c0.55078 0 1 0.44531 1 1zm6.7969 44.617h-86.141c-1.0664 0-1.9297 0.89453-1.9297 2v24c0 1.1055 0.86328 2 1.9297 2h11.152v2.1641c0 0.55469 0.44531 1 1 1h15c0.55469 0 1-0.44531 1-1v-2.1641h29.832v2.1641c0 0.55469 0.44531 1 1 1h15c0.55469 0 1-0.44531 1-1v-2.1641h11.156c1.0664 0 1.9297-0.89453 1.9297-2v-24c0-1.1055-0.86328-2-1.9297-2zm-72.629 18.332c-2.3945 0-4.332-1.9375-4.332-4.332 0-2.3945 1.9414-4.332 4.332-4.332 2.3945 0 4.3359 1.9375 4.3359 4.332-0.003906 2.3945-1.9414 4.332-4.3359 4.332zm16.332 0c-2.3945 0-4.332-1.9375-4.332-4.332 0-2.3945 1.9414-4.332 4.332-4.332 2.3945 0 4.3359 1.9375 4.3359 4.332-0.003906 2.3945-1.9414 4.332-4.3359 4.332zm49.5-1.082c0 0.55469-0.44922 1-1 1h-19.336c-0.55078 0-1-0.44531-1-1v-6.5c0-0.55469 0.44922-1 1-1h19.336c0.55078 0 1 0.44531 1 1z"/>
</svg>
