<?xml version="1.0" encoding="UTF-8"?>
<svg fill="#E3DDDC" width="100pt" height="100pt" version="1.1" viewBox="0 0 100 100" xmlns="http://www.w3.org/2000/svg">
 <path d="m88.008 44.555c-0.77344-1.6914-1.6875-3.3203-2.7109-4.8555 0.38281-0.67969 0.6875-1.4141 0.89453-2.1914 1.3516-4.9883-1.6211-10.148-6.6211-11.5-0.78906-0.21094-1.6016-0.31641-2.4141-0.31641-4.2461 0-7.9727 2.8633-9.0586 6.957-0.65625 2.418-0.32422 4.9453 0.92969 7.1172 1.2539 2.168 3.2734 3.7188 5.6953 4.3594 0.79297 0.21094 1.6094 0.31641 2.4258 0.31641 1.1797 0 2.3164-0.22656 3.3711-0.63672 0.66797 1.0742 1.2852 2.1836 1.7969 3.3203 1.6758 3.6562 2.5625 7.75 2.5625 11.832 0 7.6445-2.9688 14.828-8.3633 20.219-5.3945 5.3945-12.574 8.3633-20.219 8.3633-7.3398 0-14.316-2.7734-19.641-7.8047-4.0234-3.793-6.8086-8.582-8.1094-13.906 5.2383 0.83594 10.617-0.16406 15.273-2.8555 5.4258-3.1445 9.2891-8.1641 10.883-14.137l2.5703-9.6133c0.054687-0.19922 0.023437-0.41406-0.078126-0.59375-0.10547-0.17969-0.27734-0.30859-0.47656-0.36328l-1.5-0.39844 4.1836-15.609c0.38672-1.4531 0.18359-2.9727-0.57422-4.2812-0.64062-1.1094-1.6172-1.9414-2.7852-2.4023-0.015625-0.38672-0.11719-0.76562-0.31641-1.1094-0.32812-0.5625-0.85937-0.96094-1.4805-1.1172l-3.2734-0.88672c-0.21094-0.058594-0.42578-0.085938-0.64453-0.085938-1.0938 0-2.0625 0.74219-2.3594 1.8203-0.32422 1.2734 0.44531 2.6016 1.7266 2.9648l3.3086 0.88672c0.19531 0.050781 0.39844 0.074219 0.60156 0.074219 0.80469 0 1.543-0.40234 1.9922-1.0312 0.78125 0.34375 1.4375 0.91016 1.8789 1.668 0.54688 0.94531 0.69531 2.043 0.41406 3.0898l-4.1875 15.633-1.5078-0.39844c-0.41797-0.10938-0.84375 0.13672-0.95312 0.55469l-2.5703 9.5859c-1.1953 4.4102-4.0234 8.0898-7.9609 10.355-3.9805 2.2891-8.5742 2.8984-12.938 1.7148-0.027344-0.007813-0.054688-0.011719-0.085938-0.015625-4.3125-1.1641-7.9336-3.9414-10.219-7.8281-0.015625-0.039063-0.03125-0.078125-0.054688-0.11328-2.2891-3.9805-2.8984-8.5742-1.7148-12.941l2.5703-9.6094c0.054688-0.19922 0.023438-0.41406-0.078125-0.59375-0.10547-0.17969-0.27734-0.30859-0.47656-0.36328l-1.5-0.39844 4.1836-15.609c0.28125-1.0469 0.95312-1.9219 1.8984-2.4648 0.75391-0.43359 1.6094-0.59766 2.457-0.5 0.03125 0.33203 0.125 0.65625 0.29688 0.95703 0.32422 0.57422 0.85547 0.98828 1.5 1.1641l3.293 0.89063c0.19922 0.050781 0.40234 0.074218 0.60547 0.074218 1.1055 0 2.082-0.73828 2.3789-1.8164 0.32422-1.3047-0.45312-2.6328-1.7305-2.9609l-3.2891-0.88281c-0.20703-0.058594-0.42188-0.089844-0.64062-0.089844-0.83594 0-1.5938 0.44141-2.0352 1.125-1.2422-0.1875-2.5078 0.042969-3.6133 0.67969-1.3086 0.75-2.2422 1.9648-2.6289 3.4141l-4.1836 15.613-1.5078-0.39844c-0.41797-0.10938-0.84375 0.13672-0.95312 0.55078l-2.5938 9.5977c-1.5938 5.9922-0.75391 12.273 2.3594 17.691 2.3477 4.0273 5.7266 7.2109 9.7852 9.2266 1.0625 7.832 4.8086 15.133 10.57 20.602 6.5117 6.1367 15.008 9.5156 23.922 9.5156 9.2969 0 18.051-3.6211 24.648-10.195 6.5742-6.5977 10.191-15.348 10.191-24.645 0.007813-4.9297-1.0742-9.9102-3.1211-14.414zm-7.8438-8.668c-0.36328 1.3672-1.6055 2.3203-3.0234 2.3203-0.26953 0-0.53906-0.035156-0.79688-0.10547-1.6641-0.46094-2.6602-2.1797-2.2188-3.832 0.35938-1.3633 1.5977-2.3203 3.0117-2.3203 0.27344 0 0.54688 0.035156 0.81641 0.10547 1.6602 0.44922 2.6562 2.1641 2.2109 3.832z"/>
</svg>
