<?xml version="1.0" encoding="UTF-8"?>
<svg fill="#010658" width="100pt" height="100pt" version="1.1" viewBox="0 0 100 100" xmlns="http://www.w3.org/2000/svg">
 <path d="m53.25 90.625v-9.7227c0-1.7227-1.3984-3.125-3.125-3.125s-3.125 1.4023-3.125 3.125v9.7227c0 1.7266 1.3984 3.125 3.125 3.125s3.125-1.3984 3.125-3.125zm16.602-16.598 6.875 6.8711c1.2188 1.2227 3.1992 1.2227 4.4219 0 1.2188-1.2188 1.2188-3.1992 0-4.418l-6.875-6.875c-1.2188-1.2188-3.2031-1.2188-4.4219 0-1.2188 1.2227-1.2188 3.1992 0 4.4219zm-46.328 6.8711 6.875-6.8711c1.2188-1.2227 1.2188-3.1992 0-4.4219-1.2188-1.2188-3.1992-1.2188-4.418 0l-6.875 6.875c-1.2188 1.2188-1.2188 3.1992 0 4.418 1.2188 1.2227 3.1992 1.2227 4.418 0zm26.52-52.773c-12.168 0-22.051 9.8828-22.051 22.055 0 12.168 9.8828 22.047 22.051 22.047 12.172 0 22.055-9.8789 22.055-22.047 0-12.172-9.8828-22.055-22.055-22.055zm31.105 24.883h9.7188c1.7266 0 3.125-1.4023 3.125-3.125 0-1.7266-1.3984-3.125-3.125-3.125h-9.7188c-1.7266 0-3.125 1.3984-3.125 3.125 0 1.7227 1.3984 3.125 3.125 3.125zm-71.766 0h9.7188c1.7266 0 3.125-1.4023 3.125-3.125 0-1.7266-1.3984-3.125-3.125-3.125h-9.7188c-1.7266 0-3.125 1.3984-3.125 3.125 0 1.7227 1.3984 3.125 3.125 3.125zm9.7227-29.727 6.875 6.875c1.2188 1.2188 3.1992 1.2188 4.418 0 1.2188-1.2227 1.2188-3.1992 0-4.4219l-6.875-6.8711c-1.2188-1.2227-3.1992-1.2227-4.418 0-1.2188 1.2188-1.2188 3.1992 0 4.418zm55.168 6.875 6.875-6.875c1.2188-1.2188 1.2188-3.1992 0-4.418-1.2227-1.2227-3.2031-1.2227-4.4219 0l-6.875 6.8711c-1.2188 1.2227-1.2188 3.1992 0 4.4219 1.2188 1.2188 3.2031 1.2188 4.4219 0zm-21.023-11.297v-9.7227c0-1.7227-1.3984-3.125-3.125-3.125s-3.125 1.4023-3.125 3.125v9.7227c0 1.7266 1.3984 3.125 3.125 3.125s3.125-1.3984 3.125-3.125z" fill-rule="evenodd"/>
</svg>
