<?xml version="1.0" encoding="UTF-8"?>
<svg fill="#010658" width="100pt" height="100pt" version="1.1" viewBox="0 0 100 100" xmlns="http://www.w3.org/2000/svg">
 <g>
  <path d="m39.93 54.633c1.9766-2.0664 3.3359-4.6055 3.7422-6.1055 0.26562-0.96484 0.45312-1.9805 0.57422-2.7461 0.83984-0.41016 1.4883-1.0977 1.8359-1.9609 0.49609-1.2539 0.76172-3.9375 0.76953-4.0547 0.21875-2.1328-0.53516-3.3594-0.60156-3.4297 0.87109-8.6367-1.8867-10.34-3.7305-10.645-0.65625-0.10938-1.6445-0.35156-2.082-0.84766-1.0312-1.1367-1.4922-2.3984-3.2734-2.3008-0.65234 0.035156-1.5469-0.16797-2.0469-0.58984-0.6875-0.57422-1.625-1.2383-2.3164-1.2383-0.6875 0-1.5508 0.64062-2.1758 1.2031-0.49219 0.44141-1.3633 0.66406-2.0195 0.625-1.7773-0.10156-2.2383 1.1641-3.2695 2.3008-0.4375 0.49609-1.4297 0.73438-2.082 0.84766-1.8398 0.30469-4.6016 2.0078-3.7266 10.648-0.074219 0.078125-0.81641 1.3125-0.60547 3.4219 0.007813 0.11719 0.27344 2.8047 0.76953 4.0586 0.35938 0.86328 0.99609 1.5508 1.8359 1.9609 0.125 0.76172 0.3125 1.7891 0.57812 2.7461 0.42188 1.5391 1.8008 4.1328 3.8008 6.207h-0.046875c-0.27734 12.012-25.48 5.3633-20.109 26.938 1.7148 6.1094 23.754 7.2227 27.145 6.9844 3.3828 0.23828 25.418-0.87891 27.129-6.9844 5.3789-21.555-19.762-15.066-20.094-27.039z"/>
  <path d="m74.176 45.25c15.203-2.9648 11.301-28.715-2.1797-33.672-1.1055-0.28516-3.0234-0.53125-4.9453 0.33203-1.918-0.86328-3.8359-0.61719-4.9453-0.33203-13.488 4.9609-17.391 30.73-2.1562 33.676-0.59766 6.7695-10.051 6.7578-16.02 10.555 0.65625 1.3984 2.5469 2.3867 6.6445 4.0625 5.8633 2.3984 14.316 5.8633 13.902 17.012 1.1758 0.03125 2.082 0.027344 2.5781-0.007812 3.3867 0.23438 25.473-0.85156 27.188-6.8086 5.3086-20.707-19.008-13.875-20.066-24.816z"/>
 </g>
</svg>
