<?xml version="1.0" encoding="UTF-8"?>
<svg fill="#010658" width="100pt" height="100pt" version="1.1" viewBox="0 0 100 100" xmlns="http://www.w3.org/2000/svg">
 <g>
  <path d="m43.949 59.078c0.03125 0.11328 0.078125 0.12891 0.13672 0.046875 0.074218 0.11719-0.12891 0.46094-0.10547 0.625 0.03125 0.25 0.28906 0.52734 0.41797 0.73438 0.29687 0.47266 0.63281 0.96875 0.69141 1.5391 0.085937 0.80859-0.28906 1.3359 0.070312 2.1289 0.27344 0.60156 0.63672 1.0469 0.5625 1.7578-0.12109 1.2188-1.2344 2.1055-1.7266 3.1719-0.32031 0.69141-0.51172 1.4453-0.62891 2.1992-0.046876 0.30078-0.089844 0.60938-0.10156 0.91406-0.003906 0.10156 0.085937 0.87109-0.13672 0.42188 0.10938 0.007812 0.046875 1.332 0.070313 1.4922 0.125 0.89062 0.80078 1.5078 1.2773 2.2227 0.62891 0.94141 1.2109 2.0352 1.7461 3.0352 0.51953 0.96875 0.33984 2.1797 0.61719 3.2344 0.26562 1.0117 0.29688 2.1055 0.68359 3.082 0.39062 0.99609 1.207 1.7188 1.7578 2.6133 0.57812 0.9375 1.1641 2.0391 1.4883 3.0977 0.085938 0.27734 0.38281 1.4219-0.26562 1.1562-0.09375 0.14453 0.44922 2 0.57031 2.0117 0.10547 0.007812-0.10156-0.31641 0.32031-0.17969 0.44141 0.14453 0.71484 0.52344 1.2461 0.5625 1.1328 0.078126 2.0195-0.72656 3.082-0.75391 0.94922-0.023437 2.0273 0.35938 2.9531 0.16406 0.43359-0.09375 0.30469-0.21484 0.60156-0.35156 0.27344-0.125 0.60547-0.125 0.91016-0.19531 1.9492-0.43359 3.6016-2.1602 4.7227-3.7227 0.30859-0.43359 0.57031-0.91016 0.93359-1.3047 0.375-0.40625 0.88281-0.65234 1.2422-1.0703 0.69141-0.79688 0.79297-1.9414 1.0273-2.9297-0.17578 0.33594-0.34766 0.019531-0.48047-0.14062 0.31641 0.03125 0.78906-0.72266 1.0977-0.87109 0.42969-0.20703 0.92969-0.21875 1.3555-0.42969 0.19531-0.097656 1.6523-1.0195 1.2578-1.2383-0.12891 0.089844-0.21875 0.21094-0.26562 0.35938-0.007813-0.78516 0.48438-1.4727 0.47656-2.2617-0.007813-0.79297-0.48828-1.4766-0.57031-2.2461-0.13672-1.2812 1.1875-1.4961 1.7812-2.3984 0.15234 0.51953 0.49219-0.28125 0.59375-0.41797 0.44531-0.60547 1.1367-0.91016 1.8086-1.1953 1.3359-0.57031 2.7617-1.25 3.3164-2.6992 0.33203-0.86719 0.082031-1.793 0.13281-2.6953 0.050781-0.89062 0.37891-1.7305 0.46094-2.5977 0.058594-0.625-0.30859-0.97266-0.60156-1.4883-0.44922-0.78906-0.64453-1.6719-0.58203-2.5742 0.058594-0.80859 0.050781-1.168-0.3125-1.8945-0.35547-0.71484-0.19141-1.1484 0.12891-1.8711 0.71094-1.6133 1.5742-2.9062 2.7812-4.1797 1.1367-1.1953 2.0664-2.5273 3.2656-3.6836 1.1562-1.1172 2.6016-1.8984 3.5625-3.2148 0.64453-0.88281 1.2773-1.8164 1.8633-2.7422 0.47266-0.75 0.71875-1.6016 1.082-2.4023 0.41016-0.91016 0.98047-1.7734 1.1172-2.7852 0.0625-0.44922-0.097656-1.3711 0.58594-1.3984-0.50391-0.38672 0.097656-2.0898-0.81641-2-0.38672 0.039062-0.97266 0.62891-1.3945 0.77734-0.53906 0.19141-1.168 0.27344-1.4727 0.83203-0.058594-0.70703-0.78906-0.46484-1.2188-0.28516-0.69922 0.29688-1.332 0.30078-2.0547 0.48438-0.82031 0.21094-1.3086 0.59375-2.0508-0.054688-0.46094-0.40234-0.73047-1.0469-1.4648-0.82422-0.089844-0.46484 0.63672-0.54297 0.75781-0.93359 0.1875-0.60156-0.65234-1.0391-1.0117-1.3516-0.60547-0.52344-1.0664-1.2148-1.7305-1.6719-0.57812-0.39844-1.3789-0.55859-1.7539-1.2109-0.050781 0.17188-0.078124 0.34766-0.089843 0.52734-0.33203-0.55078-0.64453-1.1133-0.87109-1.7188-0.21484-0.56641-0.32422-1.1953-0.70312-1.6914-0.74609-0.98047-1.7305-1.0859-2.0352-2.4375-0.24609-1.0977-0.25391-2.3477-1.125-3.1836-0.39453-0.37891-0.97266-0.55859-1.2773-1.0352-0.12109-0.19141-0.26172-0.48047-0.20703-0.71094 0.089843-0.36719 0.11719-0.027343 0.27734-0.24609 0.074219-0.10156-1.125-1.3789-1.2578-1.5508-0.86328-1.1367-1.3906-2.4727-2.2812-3.5898-0.40625-0.51172-0.8125-0.99609-1.0195-1.6289-0.1875-0.57813-0.16797-1.207-0.52344-1.7266-0.34766-0.51172-1.6523-1.5273-2.0312-0.53125 0.45312-0.26953-0.43359 0.074219-0.58984 0.13672-0.74609 0.29688-1.3828 0.39062-2.1797 0.25391-1.7734-0.30078-3.6016-0.67578-5.2695-1.3516-1.0273-0.41406-2.7969-1.2695-3.4727 0.125-0.43359 0.89453-0.007812 2.8867-1.7031 2.3125-0.69531-0.23438-1.2969-0.57422-2.0234-0.76172-0.76172-0.19531-1.2109-0.41016-1.7461-0.98047-1.0742-1.1445-2.1992-0.96484-3.6172-1.332-1.0352-0.26953-2.7227-1.0156-1.5742-2.1406 0.59766-0.58203 0.29297-0.66016 0.24609-1.3828-0.035156-0.5 0.51172-0.95703 0.16406-1.3594-0.26562-0.30469-1.2344-0.42188-1.5938-0.40625-0.92188 0.039063-1.8477 0.28125-2.7656 0.36719-1.7617 0.17188-3.4727-0.10547-5.2188 0.29688-1.5195 0.35156-2.9688 1.3125-4.5117 1.457-0.57422 0.054688-1.1914 0.035156-1.7539-0.082031-0.58203-0.125-1.0859-0.78516-1.6367-0.80469-0.64844-0.019531-1.0977 0.875-1.4023 1.3203-0.39453 0.57031-0.83594 1.0039-1.418 1.3828-1.2422 0.8125-2.3633 1.3633-2.9102 2.8398-0.50391 1.3516-0.76562 2.5938-2.2734 3.1328-0.6875 0.24609-1.4062 0.32813-1.9883 0.80469-0.58594 0.47656-1.0234 1.1719-1.5078 1.7422-1.3008 1.5234-2.5078 3.1172-3.6875 4.7344-0.48047 0.65625-0.82422 1.25-0.54688 2.0703 0.30078 0.89062 0.39844 1.4414 0.35156 2.4023-0.046875 0.89062-0.17969 1.7617-0.49609 2.5977-0.33594 0.89062-0.90234 1.7188-1.1211 2.6523-0.14063 0.64062-0.13672 1.4414 0.46875 1.8203 0.20312 0.12891 1.168 0.44531 1.3047 0.097657-0.3125 0.015624-0.62109 0.12891-0.92578 0.13672 0.21875-0.007812-0.74219-0.015625-0.58984-0.070312-0.33594 0.11719-0.38672 0.54297-0.30469 0.93359 0.097657 0.45703 0.46094 0.97266 0.9375 1.0781 0.35547 0.078126 0.94141-0.30078 1.2422-0.039062-0.42188-0.37109-1.3086 1.2383-0.28516 1.0898-0.078125 0.085937-0.12109 0.1875-0.13672 0.30078 0.027344 0.085937 0.45703-0.11719 0.52344-0.11719-0.27344 0.9375 1.0781 1.707 1.4922 2.3945 0.29297 0.48828 0.35156 1.0859 0.60547 1.5938 0.31641 0.62891 0.83594 1.0195 1.375 1.4375 1.0625 0.82031 2.0039 1.8438 3.1328 2.5781 1.3867 0.90234 2.5312 0.45703 3.9922 0.027344 1.4688-0.43359 2.6328-0.11719 4.082 0.15625 0.80859 0.15234 1.2227-0.21094 1.9492-0.44531 0.65625-0.21094 1.2734-0.47266 1.918-0.71484 1.3008-0.49219 2.4531-0.92578 3.8828-0.82812 0.57031 0.039063 1.0469 0.19141 1.4805 0.57031 0.09375 0.082031 0.67188 0.78516 0.73438 0.73047-0.37891 0.19141 0.070312 0.83984 0.24219 1.0156 0.5625 0.5625 0.94141 0.24609 1.5625 0.078126 0.51172-0.14063 0.91016 0.085937 1.3984-0.0625 0.55859-0.16797 0.44141-0.34766 0.96875 0.12891 0.85547 0.77734 1.5391 1.3242 1.2578 2.6641-0.046875 0.21094-0.68359 1.9258-0.20703 1.7031-0.55078 0.25391-0.22656 1.1328 0.29688 1.1914-0.30469 0.17187-0.40625-0.16016-0.68359-0.16406 0.074219 0-0.39844 1.0391-0.42578 1.1406-0.22656 0.86328 0.36719 1.6367 0.89844 2.2617 0.66016 0.78125 1.4727 1.4062 2.1523 2.1641 0.33984 0.37891 0.63672 0.78516 0.82031 1.2656 0.11719 0.32422 0.089844 0.75781 0.42188 0.98047"/>
  <path d="m82.367 77.656c0.28125-0.48828 0.13672-0.79688 0.019531-1.2969-0.089844-0.38281-0.054688-0.78516-0.070313-1.1719-0.007812-0.19531-0.14844-0.60938-0.12109-0.76172 0.039063-0.25391 0.25-0.41016 0.38281-0.61328 0.13281-0.19531 0.25-0.85547 0.35156-0.95312 0.11719-0.11328 0.76562-0.36328 0.98047-0.37109-0.003906 0.070313 0.023438 0.12109 0.082032 0.15234 0.33594 0.015625 0.53516-0.55078 0.90234-0.4375 0.26172 0.078125 0.16406 0.34375 0.41797 0.45312 0.43359 0.18359 0.082031-0.33594 0.089844-0.40625 0.023437-0.17969 0.10547-0.63672 0.44531-0.60547 0.24609 0.023438 0.18359 0.48438 0.42188 0.32031 0.12891-0.089844-0.003906-0.41016 0.054688-0.58594 0.011719-0.042968 0.39844-0.46875 0.38672-0.47656 0.027343 0.14453 0.015624 0.28906-0.03125 0.42969 0.12109-0.14062 0.26172-0.27344 0.37891-0.40625 0.058594-0.066406 0.26562 0.039063 0.29688-0.039062 0.011719-0.023438-0.27734-0.27344-0.27734-0.37891 0.003906-0.37891 0.28906-0.21875 0.35547-0.24609 0.03125-0.21094 0.066406-1.4062 0.3125-0.47266 0.14453-0.20703 0.30078-0.41406 0.37891-0.66016 0.27734-0.070312 0.25391 0.15234 0.46875-0.30859 0.089844-0.19141-0.042969-0.73828 0-0.80078 1.0234-0.95312 1.3164 1.5312 1.3633 2.2148 0.035157 0.54297 0.35156 1.7305 0.023438 2.1836-0.46484 0.64062-0.16406-0.34375-0.50391-0.42578-0.37109-0.09375-0.1875 1.1719-0.19922 1.2656-0.039063 0.40625-0.27344 0.59375-0.45312 0.9375-0.16016 0.30859-0.19922 0.64844-0.28906 0.98047-0.43359 1.6406-1.3281 3.2578-2.0508 4.793-0.59766 1.2656-1.0117 2.8164-1.8711 3.9375-0.39844 0.51953-0.60156 0.39062-1.1992 0.49609-0.65234 0.11328-0.96094 0.63672-1.5898 0.21094-0.60938-0.41406-1.0859-0.99219-1.0625-1.7656 0.007812-0.30469 0.18359-0.58203 0.16406-0.88281-0.027343-0.41016-0.20703-0.37891-0.28516-0.69141-0.16016-0.65625 0.003906-1.3203 0.41406-1.8555 0.42969-0.57031 0.8125-1.2305 1.3125-1.7617"/>
 </g>
</svg>
