<?xml version="1.0" encoding="UTF-8"?>
<svg fill="#E3DDDC" width="100pt" height="100pt" version="1.1" viewBox="0 0 100 100" xmlns="http://www.w3.org/2000/svg">
 <path d="m50 5c-11.934 0-23.379 4.7422-31.82 13.18-8.4375 8.4414-13.18 19.887-13.18 31.82s4.7422 23.379 13.18 31.82c8.4414 8.4375 19.887 13.18 31.82 13.18s23.379-4.7422 31.82-13.18c8.4375-8.4414 13.18-19.887 13.18-31.82s-4.7422-23.379-13.18-31.82c-8.4414-8.4375-19.887-13.18-31.82-13.18zm-8.2227 19h3.6289c0.14453 0 0.28125 0.070312 0.35938 0.1875l0.67188 0.96875c0.085938 0.12891 0.097656 0.29297 0.03125 0.43359l-0.26172 0.5625 1.2734 0.58203 0.70703-0.0625c0.13281-0.015625 0.26562 0.035156 0.35547 0.13672l0.94141 1.0078 1.6094 0.375 0.23828-0.17188 0.18359-0.53516c0.039063-0.10547 0.11328-0.19531 0.21875-0.24609l1.1797-0.59766c0.11328-0.054687 0.24609-0.058594 0.36328-0.011719l1.2109 0.5 3.9336 0.63672 0.64453-0.19141c0.19531-0.058594 0.40625 0.027343 0.50391 0.20703l0.94531 1.6836 2.1367 2.8594c0.019531 0.023437 0.035156 0.054687 0.050781 0.082031l0.48047 1.1094 0.89453 0.82422c0.082031 0.074218 0.12891 0.17578 0.14062 0.28516l0.125 1.6875 0.67188 0.33594c0.070313 0.039062 0.13281 0.097656 0.17578 0.16797l1.1953 2.0273 1.1406 0.53516c0.054687 0.027344 0.10547 0.066406 0.14453 0.11719l1.5586 1.8516c0.13672 0.16797 0.13281 0.40625-0.007813 0.57031l0.51953 0.30078 0.92187-0.0625 2.0859-0.64453 0.72266-0.28906c0.125-0.046875 0.26172-0.039062 0.37891 0.027344 0.11328 0.066406 0.19141 0.17969 0.21094 0.3125l0.30078 1.9219c0.015625 0.10156-0.003906 0.20312-0.054687 0.29297l-3.1953 5.2656c-0.011719 0.027343-0.03125 0.050781-0.050781 0.070312l-3.8008 4.0938-0.83594 1.8008 0.46875 0.76172c0.074219 0.11719 0.085938 0.25781 0.039063 0.38672l-0.19531 0.50781 0.058594 1.332 0.32031 0.11719c0.10937 0.039063 0.19531 0.12109 0.24609 0.22656 0.046875 0.10547 0.050781 0.22656 0.011719 0.33203l-0.19141 0.52344v1.1758c-0.003906 0.078125-0.023438 0.15234-0.0625 0.21875l-0.14062 0.24219 0.125 0.88672c0.011719 0.085938-0.003907 0.17578-0.042969 0.25391l-0.59375 1.1875c-0.042969 0.089844-0.11719 0.16016-0.20703 0.19922l-1.9961 0.92578-0.82812 0.90625c-0.027344 0.03125-0.058594 0.054688-0.09375 0.074219l-0.56641 0.35547-0.12109 0.09375 0.28125 0.90234c0.011719 0.042968 0.019531 0.085937 0.019531 0.12891v1.6289c0 0.16016-0.089843 0.30859-0.23828 0.38672l-2.0078 1.0352c0.027343 0.082031 0.03125 0.17188 0.007812 0.25391l-0.44922 1.6289c-0.015625 0.066406-0.050781 0.12891-0.097656 0.17969l-0.8125 0.89062c-0.019531 0.015625-0.039063 0.035156-0.0625 0.046875l-3.0352 2.2969c-0.046875 0.039062-0.10156 0.0625-0.16406 0.078125l-1.2539 0.29688c-0.050781 0.011719-0.10547 0.015625-0.15625 0.007812l-1.4375-0.20312-1.5156 0.69141c-0.125 0.054687-0.26562 0.050781-0.38672-0.015625l-0.81641-0.4375c-0.12891-0.074219-0.21484-0.20703-0.22266-0.35547l-0.074219-0.92969-0.125-0.51172-1.9805-3.8789c-0.019531-0.039063-0.035156-0.082032-0.039062-0.12891l-0.35547-2.2266-1.7539-3.4219c-0.019531-0.042969-0.035157-0.082032-0.042969-0.125l-0.29297-1.7031c-0.007812-0.0625-0.007812-0.12891 0.011719-0.1875l0.36328-1.3359c0.019531-0.0625 0.050781-0.12109 0.089844-0.17188l0.78125-0.91016v-0.70312l-0.21094-1.5117-0.0625-0.3125-1.2891-3.0039-2.1836-2.5469c-0.13281-0.16016-0.13672-0.39453-0.003906-0.55859l0.51562-0.64453 0.12891-0.89453 0.070313-1.3867-0.17188-0.56641-2.0273 0.125c-0.097656 0.003906-0.19531-0.023438-0.27734-0.078125l-0.51953-0.37109c-0.054687-0.035156-0.097656-0.085937-0.12891-0.14062l-0.5625-1.0039-0.63672-0.09375-3.7539 1.4375c-0.085938 0.03125-0.17969 0.039062-0.26562 0.015625l-1.0547-0.27734h-1.4453l-1.2344 0.75c-0.15625 0.09375-0.35938 0.078125-0.5-0.035156l-2.9648-2.4531c-0.046875-0.039063-0.085938-0.085938-0.11328-0.13672l-0.44922-0.89062c-0.015625-0.035156-0.027344-0.074219-0.035156-0.10938l-0.12109-0.60938-1.0234-1.0156c-0.027343-0.027344-0.046874-0.054687-0.066406-0.089844l-0.74219-1.2617c-0.035157-0.058593-0.054688-0.125-0.058594-0.19141l-0.074219-1.1133v-0.0625l0.074219-1.0312c0.007813-0.13672 0.082031-0.25781 0.19141-0.33203l0.72656-0.48047 0.11719-1.293-0.0625-0.38281c-0.011719-0.078125-0.003906-0.15625 0.027344-0.23047l0.12109-0.3125 0.066406-1.1914c0.007813-0.078125 0.03125-0.15234 0.078125-0.21875l1.5508-2.293c0.011719-0.019531 0.027344-0.035156 0.039063-0.046875l0.73828-0.81641c0.003906-0.003907 0.003906-0.007813 0.007813-0.011719l1.1172-1.1875c0.019531-0.027344 0.046875-0.046875 0.074219-0.0625l1.8906-1.2578 0.46875-1.0703c0.019531-0.050781 0.050781-0.097656 0.089843-0.13672l0.44531-0.44531c0.019531-0.019532 0.039063-0.035156 0.058594-0.046875l1.7266-1.2227 0.78125-0.92578c0.10156-0.11719 0.25391-0.17578 0.40625-0.14844l2.043 0.35547 3.2344-1.082c0.042969-0.015625 0.089844-0.023437 0.13672-0.019531zm30.676 34.648l0.83984 1.6953 0.039062 2.1055-0.41016 0.50391-0.046875 0.42969-0.32422 0.46875-0.25391 0.90234-2.2734 4.4141-0.082032 0.16016-1.6445 0.52734-1.0469-0.76562-0.089844-2.1055 0.49219-0.98438 0.58203-0.54688-0.035156-1.8438 0.57031-1.1406 1.3867-0.49219h0.019531l0.09375-0.13281 0.25781-0.125 0.22266-0.21875 0.18359-0.16016 0.41016-1.1406 0.40625 0.16797 0.17969-0.66406z"/>
</svg>
