<?xml version="1.0" encoding="UTF-8"?>
<svg fill="#E3DDDC" width="100pt" height="100pt" version="1.1" viewBox="0 0 100 100" xmlns="http://www.w3.org/2000/svg">
 <path d="m17 5c-6.6484 0-12 5.3516-12 12v66c0 6.6484 5.3516 12 12 12h66c6.6484 0 12-5.3516 12-12v-66c0-6.6484-5.3516-12-12-12zm19.5 19v0.015625c0-0.003906 0.003906-0.003906 0.003906 0h6.5117c0.011719-0.003906 0.03125-0.003906 0.046875 0l1.3398 0.15234c0.14844 0.015625 0.27734 0.10938 0.33984 0.25l3.9961 9.1758 4.2539-0.92188c0.050781-0.011719 0.10156-0.015625 0.15234-0.011719l2.5742 0.39844 0.69922-3.9531c0.03125-0.19922 0.19922-0.34766 0.39844-0.35547l4.1367-0.15234c0.125-0.003906 0.25 0.050782 0.33203 0.14453 0.085938 0.09375 0.125 0.22266 0.10547 0.34766l-0.15625 0.95703 4.4727-0.070313c0.15625-0.003906 0.29688 0.078126 0.375 0.21094l0.53906 0.92188c0.054687 0.097656 0.070312 0.21875 0.039062 0.32812l-0.48828 1.6875 0.76953 1.6094c0.035156 0.078125 0.050782 0.16406 0.039063 0.25l-0.66406 4.2656 1.5 2c0.035156 0.046875 0.058594 0.10156 0.074219 0.15625l0.84375 3.5195c0.046875 0.19922-0.050781 0.40234-0.23438 0.48828l-0.61719 0.28125 0.28906 0.63281 0.5625-0.47656c0.085937-0.070312 0.19531-0.10937 0.30859-0.10156l2.7383 0.21875 0.70703-0.58203c0.10156-0.082031 0.23047-0.11328 0.35547-0.089844l1.6523 0.33203 0.066406-0.09375c0.10156-0.12891 0.26562-0.19141 0.42578-0.16016 0.16016 0.035156 0.28906 0.15625 0.32812 0.3125l0.46094 1.8398c0.011718 0.054687 0.015625 0.10938 0.003906 0.16406l-0.44141 3.0273 0.34375 0.89453c0.042968 0.10938 0.039062 0.23438-0.015625 0.33984l-0.29688 0.60156-0.43359 1.0391 0.4375 0.49219c0.10938 0.125 0.13672 0.30469 0.070312 0.45703-0.070312 0.15234-0.21875 0.25-0.38672 0.25h-7.7734l-0.14844 13.035 5.4727 5.7734c0.10938 0.11328 0.14453 0.27734 0.09375 0.42578-0.046875 0.14844-0.17578 0.25781-0.32812 0.28516l-7.6562 1.375c-0.050781 0.011719-0.10547 0.011719-0.15625 0l-1.0469-0.20703-1.6562 0.50391c-0.085937 0.027344-0.17578 0.023437-0.26172-0.007813l-2.2422-0.74609-4.8438-0.30469c-0.082031-0.003906-0.16016-0.035156-0.22656-0.082031l-2.1836-1.6016-17.473 0.074218h-1.0703c-0.085938 0-0.16797-0.023437-0.23828-0.070312l-1.6055-1.0703c-0.054688-0.035156-0.10156-0.082031-0.13281-0.14062l-0.39844-0.68359-1.2461 0.11719-2.0664 1.1836c-0.125 0.066406-0.27344 0.070312-0.40234 0.007812l-0.33203-0.16797-0.32422 0.054687c-0.078125 0.011719-0.16016 0.003906-0.23438-0.027344l-0.73438-0.30469-0.89062 0.47656c-0.13672 0.074219-0.30078 0.066406-0.42969-0.011718-0.12891-0.082032-0.20313-0.22656-0.19531-0.37891l0.078125-1.8008v-0.03125l0.14453-1.2148-0.22266-1.7852c-0.007813-0.082031 0.003906-0.16406 0.042969-0.23828l0.10156-0.20703-0.22266-0.50781c-0.039062-0.082031-0.046875-0.17188-0.027344-0.26172l0.074219-0.34375c0.042969-0.18359 0.20312-0.32031 0.39062-0.33203l0.3125-0.019531 0.019531-0.125c0.019531-0.10156 0.074219-0.19531 0.15625-0.26172l0.24219-0.19531 0.13281-1.3516c0.015625-0.14453 0.10547-0.27344 0.23438-0.33984l0.15234-0.070312v-0.12109c-0.003906-0.050781 0.003906-0.097656 0.019531-0.14453l0.52734-1.4648 0.28516-1.5117-0.066406-0.66406c-0.003906-0.050782 0-0.10547 0.011719-0.15234l0.30469-1.1523c0.035157-0.12891 0.12891-0.23438 0.25391-0.28516l0.12891-0.046875 0.066406-1.6406c0-0.10547 0.042969-0.20312 0.11328-0.27734l1.6328-1.7031-0.027344-0.34766c-0.007812-0.11328 0.035156-0.23047 0.11328-0.31641l0.88281-0.95703c0.074218-0.082032 0.17578-0.12891 0.28516-0.13672l0.55859-0.03125 0.35938-0.28516 0.64062-1.168 0.68359-1.6211v-1.9453c0-0.03125 0.003906-0.0625 0.007812-0.089844l0.23438-1.0547-0.63672-1.0039c-0.078125-0.125-0.085937-0.28125-0.019531-0.41406l0.035156-0.074219-0.72266-0.97656c-0.0625-0.082031-0.089844-0.18359-0.082031-0.28516l0.023437-0.37109-0.81641-1.0156c-0.039063-0.046875-0.066406-0.10547-0.078125-0.16406l-0.23047-0.96094s-0.003906-0.003906-0.003906-0.007812l-0.29297-1.3594-0.70312-1.3281c-0.078125-0.15234-0.058593-0.33594 0.050781-0.46875l1.2266-1.4922c0.074219-0.089843 0.18359-0.14844 0.30078-0.15625l-0.25781-0.42578c-0.082032-0.13281-0.082032-0.30078-0.007813-0.43359l0.15625-0.26953-1.9336-4.125c-0.015626-0.027344-0.027344-0.0625-0.035157-0.09375l-0.28516-1.4727-0.9375-1.2266c-0.011719-0.019531-0.027344-0.039062-0.035156-0.0625l-1.2305-2.375c-0.054688-0.11328-0.058594-0.24609-0.007812-0.36328 0.050781-0.11719 0.15234-0.20312 0.27344-0.23828l3.0273-0.83984c0.035156-0.011719 0.070312-0.015625 0.10938-0.015625z"/>
</svg>
