<?xml version="1.0" encoding="UTF-8"?>
<svg fill="#010658" width="100pt" height="100pt" version="1.1" viewBox="0 0 100 100" xmlns="http://www.w3.org/2000/svg">
 <path d="m17 5c-6.6484 0-12 5.3516-12 12v66c0 6.6484 5.3516 12 12 12h66c6.6484 0 12-5.3516 12-12v-66c0-6.6484-5.3516-12-12-12zm37.156 19c0.10156-0.003906 0.20312 0.027344 0.28125 0.089844l3.0898 2.3945c0.042968 0.035156 0.082031 0.078125 0.10938 0.12891l0.92188 1.625 0.60156 0.18359c0.0625 0.019531 0.11719 0.050781 0.16797 0.09375l1.6211 1.4688c0.14453 0.12891 0.18359 0.33984 0.097656 0.51172l-1.0352 2.0664 2.0625 2.5664c0.050781 0.066406 0.082031 0.14453 0.09375 0.23047l0.16016 1.625v0.082031l-0.0625 0.57031 0.62891 0.62891c0.070313 0.070313 0.11719 0.16406 0.125 0.26562l0.078125 0.93359c0.007813 0.050781 0 0.10547-0.015625 0.15625l-0.46484 1.6133c-0.066407 0.22266-0.29297 0.35156-0.51563 0.29688l-0.88672-0.21875-0.29297 0.67578 0.54688 0.72656c0.089844 0.11328 0.11328 0.26953 0.0625 0.41016l-1.0039 2.6992c-0.050782 0.12891-0.16016 0.22656-0.29297 0.26562l-1.207 0.31641-0.10547 0.57812c-0.015625 0.082031-0.050781 0.15625-0.10938 0.21875l-1.75 1.8945 0.13672 0.37109c0.023437 0.066406 0.03125 0.13281 0.023437 0.20312l-0.30469 2.4688c-0.027344 0.19922-0.19141 0.35547-0.39062 0.375l-2.4062 0.19922-0.21484 4.332c0 0.019531-0.003906 0.039063-0.007812 0.058594l-0.21484 1.2227 0.28906 1.1406c0.015625 0.070312 0.019532 0.14062 0 0.20703l-0.66016 2.7773 0.38672 0.70312c0.03125 0.054688 0.050781 0.11719 0.054687 0.18359l0.23047 4.4844c0.003906 0.015625 0.003906 0.035156 0 0.050781l-0.23047 3.3789 0.074219 2.9141c0.003906 0.21094-0.14453 0.39844-0.35547 0.4375l-7.6445 1.3867c-0.18359 0.035156-0.37109-0.058594-0.45703-0.22656l-1.0664-2.1211-0.74219-0.89453c-0.070312-0.085938-0.10547-0.19531-0.09375-0.30859l0.14453-1.8828-0.14453-1.1992c-0.015625-0.11328 0.019531-0.23047 0.09375-0.32422l0.21484-0.26562-0.15625-16.922-1.5273-1.9688c-0.050781-0.0625-0.082031-0.13672-0.089844-0.21875l-0.52344-5.0508-4.3828-2.8164c-0.14062-0.089844-0.21484-0.25391-0.19531-0.41797l0.23047-1.8281v-1.4375c0-0.16797 0.10156-0.32031 0.25391-0.39062l0.45703-0.20703 0.0625-1.4297c0.003906-0.12891 0.066406-0.25 0.17188-0.32812l1.7188-1.2695 0.57422-0.86328c0.050781-0.078125 0.12891-0.13672 0.21484-0.16797l1.0664-0.375 0.039062-0.35547c0.019532-0.14062 0.10156-0.26172 0.22656-0.32812l1.0039-0.53906c0.13281-0.070313 0.29297-0.066407 0.42188 0.007812l0.98828 0.60156 1.4336-0.48438c0.066406-0.023438 0.13672-0.027344 0.20703-0.015625l1.2656 0.19922 1.6211-1.4844c0.019531-0.015626 0.039063-0.03125 0.0625-0.046876l0.73047-0.46094 0.625-1.6758 0.21875-1.5273-0.078125-1.2773c-0.011719-0.21484 0.13672-0.40625 0.35156-0.44531l2-0.37109 1.1641-0.79688c0.066406-0.046875 0.14453-0.074219 0.22266-0.078125z"/>
</svg>
