<?xml version="1.0" encoding="UTF-8"?>
<svg fill="#010658" width="100pt" height="100pt" version="1.1" viewBox="0 0 100 100" xmlns="http://www.w3.org/2000/svg">
 <path d="m17 5c-6.6484 0-12 5.3516-12 12v66c0 6.6484 5.3516 12 12 12h66c6.6484 0 12-5.3516 12-12v-66c0-6.6484-5.3516-12-12-12zm35.91 19c0.14453 0.003906 0.28125 0.078125 0.35547 0.20312l2.8477 4.5977c0.011719 0.019531 0.019531 0.035157 0.027344 0.054688l2.5625 5.7656 5.2227 2.4531c0.11719 0.050781 0.20312 0.15625 0.23438 0.28125l0.48047 1.9258 1.9219 0.38672c0.19531 0.039062 0.33984 0.20312 0.34766 0.40234l0.10547 2.3086 1.6914 3.0859h1.9336c0.054687-0.003906 0.10547 0.007812 0.15625 0.023437l3.1719 1.207c0.20312 0.074219 0.31641 0.28516 0.26953 0.49219l-0.13672 0.62109 1.1758 0.41797c0.20703 0.074219 0.32422 0.29297 0.26953 0.50781l-0.10938 0.4375c-0.046875 0.19141-0.21875 0.32422-0.41406 0.32812h-0.78906l-1.1875 1.3789c-0.050781 0.0625-0.11719 0.10547-0.19141 0.13281l-2.918 0.9375-1.125 1.7344c-0.027344 0.039062-0.058594 0.074218-0.097656 0.10547l-2.4102 1.8633c-0.015626 0.011718-0.03125 0.019531-0.046876 0.03125l-3.4297 1.9727-0.41016 3.293c-0.015625 0.125-0.082031 0.23438-0.1875 0.30469l-0.91797 0.60938-0.71875 1.0312c-0.058594 0.078125-0.13672 0.13672-0.23047 0.16406l-3.4062 1.0352-1.6797 4.7188c-0.027344 0.082031-0.082032 0.15234-0.15234 0.20312l-1.2031 0.87891c-0.10156 0.074219-0.23438 0.10156-0.35938 0.070313l-1.6523-0.41406-2.3047 0.52344c-0.10938 0.023437-0.21875 0.007812-0.3125-0.046875l-2-1.1562-1.0039-0.10156c-0.050781-0.003906-0.10156-0.019531-0.14844-0.042969l-2.9766-1.4883h-2.0195l-1.6445 4.0039c-0.023438 0.0625-0.0625 0.11719-0.10938 0.16016l-1.8125 1.5977-0.95312 1.5859c-0.058594 0.10156-0.15625 0.17187-0.26953 0.19922l-1.0898 0.25v0.20703c-0.003906 0.21484-0.16016 0.39453-0.37109 0.42578l-2.3008 0.32812c-0.039062 0.003906-0.082031 0.003906-0.125 0l-2.7461-0.42188-1.2109 0.40625c-0.125 0.039062-0.26172 0.023437-0.37109-0.046875-0.10938-0.070313-0.17969-0.18359-0.19531-0.3125l-0.21875-1.8633c-0.011718-0.10547 0.015626-0.21094 0.078126-0.30078l1.0312-1.4414 0.19141-1.625-2.5117-5.0234-1.6406-0.91797c-0.13281-0.078125-0.21484-0.21875-0.21875-0.37109l-0.21875-15.66c0-0.23438 0.1875-0.42969 0.42188-0.43359l5.0508-0.10156-0.10547-20.602c0-0.12109 0.050781-0.23438 0.13672-0.31641 0.085938-0.082032 0.20312-0.125 0.32422-0.11719l3.1211 0.21484 9.2539-1.7383c0.16797-0.035157 0.34375 0.039062 0.4375 0.1875l1.3867 2.125 2.1484-1.6836c0.03125-0.019531 0.058594-0.039063 0.089844-0.050781l1.9727-0.87891c0.16406-0.070313 0.35156-0.035157 0.48047 0.089843l0.25391 0.25781 1.0117-0.92969c0.0625-0.054687 0.14062-0.09375 0.22656-0.10938l2.1914-0.32812c0.023437-0.003906 0.046875-0.003906 0.070312-0.003906z"/>
</svg>
