<?xml version="1.0" encoding="UTF-8"?>
<svg fill="#E3DDDC" width="100pt" height="100pt" version="1.1" viewBox="0 0 100 100" xmlns="http://www.w3.org/2000/svg">
 <path d="m17 5c-6.6484 0-12 5.3516-12 12v66c0 6.6484 5.3516 12 12 12h66c6.6484 0 12-5.3516 12-12v-66c0-6.6484-5.3516-12-12-12zm28.004 19l0.24219 4.0938 1.4414 0.48047 0.96484-1.8086 2.6484-0.83984 0.12109 1.3242 2.6484 0.12109 0.96094 3.25 4.6953 2.2852 0.36328-0.84375 3.7305-1.4414 3.4922 0.60156 0.59766-0.60156 3.25 4.4531 0.48047-0.96484-0.35938 3.6133 1.082 2.8867 0.60547 3.8555-3.7344 5.2969-0.23828 2.2852-1.6836 4.4531 0.48047 3.7344 1.5625 3.25 0.48438 2.4062 0.48047 0.23828 0.72266 3.4922-1.9297 0.48047-1.6836-1.8047-0.96094 1.5625-3.4922-0.96094v-0.72266l-2.7695 0.96484-3.3672-0.36328-5.5391 1.082-4.9375 1.4453-5.293 2.5273-3.1328 1.2031-0.83984 0.96484-1.082-1.4453 0.35938-4.2109 1.2031-3.1289-0.84375-2.8906-2.4062-2.5273-0.48047-1.5625-3.3711-0.72266-0.11719-0.36328-1.3281-0.72266 1.5664-1.8047 0.72266-3.1328-1.4453-3.7266h1.9258l0.72266-1.5664v-1.4453l0.96094-0.72266-1.3242-1.9258-0.59766-1.6836 1.6836-0.24219 2.7695 1.0859-0.96484-2.5273-1.4414-1.0859 0.71875-1.9258 0.96484-0.12109-0.96484-1.2031-0.12109-1.8047-1.2031 0.12109-0.60156-1.4492-0.24219-3.0039 0.84375-1.5664 1.5664-0.60156 1.2031-2.0469 1.9258 0.35938 0.36328 1.4453 3.3672 0.96094-1.082-1.2031 2.4062-0.35938 0.84375-0.96484-0.48438-1.9258 1.5664 1.2031z"/>
</svg>
