<?xml version="1.0" encoding="UTF-8"?>
<svg fill="#E3DDDC" width="100pt" height="100pt" version="1.1" viewBox="0 0 100 100" xmlns="http://www.w3.org/2000/svg">
 <path d="m17 5c-6.6484 0-12 5.3516-12 12v66c0 6.6484 5.3516 12 12 12h66c6.6484 0 12-5.3516 12-12v-66c0-6.6484-5.3516-12-12-12zm8.8242 19.426l1.5781 0.36328 2.9141-0.24219 5.8359 1.2148 1.0898 0.60938h1.2148l0.73047-0.12109 1.2148 0.96875 3.2812 0.97266 1.457 0.60547 4.25-2.5469 0.60938 0.23828 0.97266-1.332 0.85156 0.72656 2.793-1.3359 1.9453 0.84766 1.5781-0.60547-0.60938 1.3359 1.8242 1.2188 0.84766-0.73438 1.8242 0.85547 3.8906-0.36719 3.1562-1.0938 3.4023 9.2344-1.0938 3.1562-1.0938 3.4023 0.48828 1.582-1.582 1.5781-2.3047-2.4297-1.9492-2.1836-0.84766-2.4336-1.8242-1.9414-0.97266-2.918-1.0938 2.0664 1.2188 2.1875 0.24219 1.0898 4.1328 5.8359 2.0625 4.7383v1.6992l5.832 11.301 2.3086 3.1562h-0.97266l0.60938 4.2539-1.4609 1.6992-1.457-0.12109-1.0938 3.1602-2.9141 0.36328v1.0938h-43.375l0.12109-38.637-1.457-4.8594 1.457-3.1562-1.0938-3.7656h0.97266z"/>
</svg>
