<?xml version="1.0" encoding="UTF-8"?>
<svg fill="#E3DDDC" width="100pt" height="100pt" version="1.1" viewBox="0 0 100 100" xmlns="http://www.w3.org/2000/svg">
 <path d="m17 5c-6.6484 0-12 5.3516-12 12v66c0 6.6484 5.3516 12 12 12h66c6.6484 0 12-5.3516 12-12v-66c0-6.6484-5.3516-12-12-12zm23.566 24.805l1.5742 0.84766 0.48438 0.84766 2.0547-0.73047 0.36328-0.35938 0.84766 0.60547 0.96484-0.36328 1.207 0.36328h0.60938l2.7812 1.3281 1.207 1.9375 1.8125 1.3281 1.2109 1.5742 0.48438 0.84375 0.48438 0.60547-1.6953 1.9336-0.36328 0.84766 0.125 2.1758 3.5039-0.48047 0.12109 0.72266-0.60547 0.60547 0.72656 1.6914 1.9375 2.6641 2.0508 1.6914 9.6758 3.2656 3.8711-0.12109-9.918 11.125-4.1094 0.12109-2.6602 1.0898-0.48438 0.96484-3.2656 0.60547-0.84375 0.84375h-2.543l-1.4492-1.5703-3.1445 1.6914-1.207 1.6953-5.082-0.96484-4.1094-2.543-2.9023-0.23828-1.2109-1.2148 0.12109-1.8125-2.4219-1.4492-1.0859-3.75-2.0547-1.0859-0.72656-1.6953-2.9023-1.207v-1.4531l1.0898-0.60547 2.2969-0.11719 0.24219-4.3555 1.0898-1.4531-0.36328-1.6914 0.96484-1.3281 0.84766 1.0859 0.96875-1.0859 0.48438-2.7812 2.0508-3.6328 0.96875 0.60547 0.36328-2.1758 0.96875-1.3281 0.48047-1.9375 1.6953-0.35938v-0.96875l0.96875 0.60156 0.84766 0.96875z"/>
</svg>
