<?xml version="1.0" encoding="UTF-8"?>
<svg fill="#E3DDDC" width="100pt" height="100pt" version="1.1" viewBox="0 0 100 100" xmlns="http://www.w3.org/2000/svg">
 <path d="m17 5c-6.6484 0-12 5.3516-12 12v66c0 6.6484 5.3516 12 12 12h66c6.6484 0 12-5.3516 12-12v-66c0-6.6484-5.3516-12-12-12zm19.5 19l0.027344 0.44141 0.3125 0.3125 0.33984-0.12891 0.21094-0.33984 0.54688 0.15625 0.26172 0.21094h0.54688l0.65234 0.39062-0.28906 0.18359 0.23438 0.57422-0.12891 0.36719-0.15625 0.83203 0.050781 0.70312 0.8125 0.8125 0.023437 0.44141 0.44531 0.41797h1.3789l1.8555 0.027344 1.3047 0.050781 5.6094 3.6758 0.57422 0.47266 1.5625 0.050782 0.62891-0.078125 0.94141 0.31641 1.9023 0.23438 0.91406 0.28516 0.41797-0.12891 0.72656 0.28516 0.26172 0.13281 0.26172-0.49609 0.94141-1 0.28125-0.86328 4.7578-2.1406 0.51562 0.45703 0.14844 0.1875 0.46094 0.18359 0.57031 0.75391 0.6875 0.23047 1.7734-0.3125 0.41797 0.12891 0.26172-0.15625 0.45312 0.16797 0.47266-0.039063-2.8711 4.043-1.9023 1.8281 0.10156 18.969 2.9219 3.6523-0.050781 0.41797-1.1484 1.3828-1.5117 0.36328-0.70312-0.023437 0.3125 0.96484 0.3125 0.36719-1.0195 0.078125 0.078126 0.54688-0.80859 0.54688-0.13281 0.36328-0.59766-0.20703-0.9375 0.26172-0.83594 0.98828-0.10547 1.9844-0.9375 1.2305-2.8438 6.1016-0.67969 0.10547-0.44141 0.23438-7.2344-5.1953-0.28125-0.51563-0.66016-0.29687 0.035156-0.46094 0.48047-0.46094-0.24219-1.4023-18.648-10.422-0.55859-0.039063-0.035156-1.8438 0.31641-2.5469-0.31641-1.2383 1.0156-1.2695-0.074219-0.46484 0.12891-0.23438 0.24219-0.62891 0.60938-0.26172 0.16406-0.58984 0.42188-0.14453 0.40625-0.8125 0.10938-0.68359 0.39062-0.035156 0.054688-0.20312 0.33203-0.074219 0.1875-0.35156 0.67969 0.09375 0.039063-0.37109-0.16797-0.55078 0.29297-0.20312 0.20312-0.62891 0.40625-0.14844 0.09375-1.457 0.16797-0.20312-0.20312-0.27734 0.070312-0.77344-0.51562-1.4609 0.29688-0.36719-0.36719-0.79297-0.22656 0.14844-0.23828-0.48047-0.21875-0.88281-0.24219-0.11328-0.22266 0.11328-0.30469-0.52734-0.23438-0.78516-0.49609-0.28516-0.050781-0.73047-0.18359-0.28516 0.078125-0.54688 0.12891-0.99609-0.59766-0.41797-0.21094 0.15625-0.23438-0.39062-0.31641 0.054688 0.078125-0.46875h-0.51953l0.12891-0.41797-0.17969-0.15625v-0.44531l-0.21094-0.3125-0.20703-0.47266z"/>
</svg>
