<?xml version="1.0" encoding="UTF-8"?>
<svg fill="#E3DDDC" width="100pt" height="100pt" version="1.1" viewBox="0 0 100 100" xmlns="http://www.w3.org/2000/svg">
 <path d="m17 5c-6.6484 0-12 5.3516-12 12v66c0 6.6484 5.3516 12 12 12h66c6.6484 0 12-5.3516 12-12v-66c0-6.6484-5.3516-12-12-12zm48.859 19h0.98047c0.125 0.003906 0.24219 0.054688 0.32812 0.14844 0.082031 0.089843 0.12109 0.21484 0.11328 0.33594l-0.14062 1.4883c-0.015625 0.16797-0.12109 0.3125-0.27734 0.37109l-0.92969 0.375c-0.21875 0.085938-0.46875-0.015625-0.57031-0.23047l-0.46094-1.0234c-0.066406-0.14062-0.050782-0.30078 0.035156-0.42969l0.55469-0.83594c0.082031-0.125 0.22266-0.19922 0.36719-0.19922zm-9.1484 1.9102h0.042968c0.089844 0.003906 0.17578 0.03125 0.25 0.085938l0.83984 0.60156c0.023438 0.015625 0.042969 0.035156 0.0625 0.058594l1.0703 1.1641c0.09375 0.10156 0.13281 0.23828 0.10938 0.37109-0.019532 0.13281-0.10156 0.25-0.22266 0.31641l-0.51172 0.27734c-0.11328 0.066406-0.25 0.074219-0.37109 0.027344l-0.76172-0.29688h-0.89062c-0.20312 0.003906-0.37891-0.13281-0.42969-0.32422l-0.13672-0.51172-0.23438-0.83594c-0.058594-0.20703 0.039062-0.42578 0.23828-0.51953l0.78906-0.37109c0.050781-0.023437 0.10156-0.039063 0.15625-0.042969zm-2.6836 8.6758c0.11719 0.003906 0.23047 0.054687 0.3125 0.14453l1.1914 1.2969 0.86719-0.57812c0.12109-0.082031 0.27344-0.097657 0.41016-0.042969l1.9727 0.78906c0.14844 0.058594 0.25391 0.19141 0.27734 0.35156l0.18359 1.3906 0.64453-0.28906c0.12109-0.054688 0.26562-0.050782 0.38672 0.015624 0.11719 0.0625 0.20312 0.17578 0.22656 0.30859l0.26562 1.4492c0.035156 0.20703-0.078125 0.41016-0.27344 0.48828l-0.90625 0.36719 0.95312 2.4375 1.793 0.71875c0.042969 0.015625 0.082031 0.035156 0.11719 0.066406l1.3164 1.0508c0.10938 0.089844 0.17188 0.23047 0.16016 0.375l-0.12891 1.9336 0.09375 0.74609 0.80078 0.29688c0.12891 0.046875 0.22656 0.14844 0.26562 0.27344l0.51172 1.5352 2.082 3.5117c0.050781 0.082032 0.070313 0.17969 0.058594 0.27734l-0.11328 1.0508 0.59766 1.1992c0.039062 0.078125 0.050781 0.16406 0.042969 0.25l-0.13281 1.1836c-0.011718 0.125-0.082031 0.24219-0.1875 0.31641l-1.9609 1.3477-0.62109 2.8555c-0.015625 0.078125-0.054687 0.14844-0.10938 0.20703l-2.6328 2.7656c-0.085938 0.085938-0.19922 0.13672-0.32031 0.13672h-1.4922l0.46094 1.3789 0.91797 2.3594c0.050781 0.13672 0.035156 0.29297-0.050782 0.41406l-1.1836 1.7109c-0.039063 0.054688-0.089844 0.10156-0.15234 0.13672l-6.1836 3.418c-0.03125 0.019531-0.066406 0.03125-0.10156 0.042969l-6.5781 1.7109c-0.074219 0.019531-0.15234 0.019531-0.22656 0l-4.3516-1.1523-1.1953 0.35938c-0.074218 0.023438-0.14844 0.027344-0.22266 0.011719l-4.7383-1.0547c-0.066407-0.015626-0.12891-0.046876-0.18359-0.085938l-2.5586-2.0469-1.3594-0.375c-0.042968-0.011719-0.085937-0.03125-0.12891-0.058594l-0.78516-0.52344c-0.19141-0.12891-0.25391-0.375-0.14844-0.57812l1.1836-2.2344c0.10156-0.19531 0.33203-0.28516 0.54297-0.21094l1.4844 0.53125 1.1914-2.168-0.23438-1.4102-0.39062-1.5625c-0.015625-0.058593-0.015625-0.11719-0.007812-0.17578l0.26172-1.582c0.019532-0.10156 0.070313-0.19531 0.15234-0.26172l0.58203-0.5-0.5-0.58984c-0.070312-0.078125-0.10547-0.17969-0.10938-0.28516v-2.2383c0.003906-0.054688 0.011719-0.10938 0.03125-0.15625l0.63672-1.6523 0.125-1.9062c0.003906-0.078125 0.03125-0.15625 0.078125-0.21875l1.1719-1.6953 0.64453-1.1641c0.019532-0.027344 0.035156-0.054688 0.058594-0.078125l1.0508-1.1875c0.042969-0.042969 0.09375-0.082031 0.14844-0.10938l3.3164-1.5273 2.0352-2.8008c0.015625-0.019531 0.03125-0.035156 0.046875-0.050781l0.59375-0.59766-0.44141-1.3203c-0.03125-0.10547-0.027344-0.21875 0.015625-0.31641l1.4492-3.293c0.046875-0.10547 0.13672-0.19141 0.25-0.23438l0.96094-0.35938 0.91797-0.92188 0.625-1.6211c0.046875-0.12109 0.14453-0.21484 0.26562-0.25781l1.4219-0.51562 2.3438-1.1719c0.066406-0.035157 0.14062-0.050781 0.21484-0.046875z"/>
</svg>
