<?xml version="1.0" encoding="UTF-8"?>
<svg fill="#E3DDDC" width="100pt" height="100pt" version="1.1" viewBox="0 0 100 100" xmlns="http://www.w3.org/2000/svg">
 <path d="m17 5c-6.6484 0-12 5.3516-12 12v66c0 6.6484 5.3516 12 12 12h66c6.6484 0 12-5.3516 12-12v-66c0-6.6484-5.3516-12-12-12zm19.402 24.047c0.058594 0 0.11328 0.011719 0.16406 0.035156l2.7266 1.1055 0.75-0.22656c0.16797-0.050782 0.35156 0.007812 0.45703 0.14844l1.4336 1.8789 0.82031 1.0703 0.18359 0.070312 0.73438-0.29297c0.019531-0.007813 0.035156-0.015626 0.054687-0.019532l0.30469-0.074218 2.0977-1.1367c0.074219-0.042969 0.16016-0.058594 0.24219-0.050781l0.98438 0.085937c0.074219 0.007813 0.14453 0.035156 0.20703 0.078125l1.5195 1.0742c0.011719 0.007812 0.027344 0.019531 0.039063 0.03125l0.79688 0.71484 3.7852 0.48438 0.75391-1.3555c0.054688-0.10156 0.14453-0.17188 0.25391-0.20312l2.7734-0.80859c0.035156-0.007812 0.074219-0.015625 0.11328-0.015625h3.2227 0.011719l2.5078 0.089844c0.082031 0.003906 0.16797 0.03125 0.23828 0.082031l1.1953 0.87891 1.3398-0.21094 0.25391-0.38281c0.03125-0.042968 0.066406-0.082031 0.11328-0.11328l1.1602-0.80078c0.0625-0.046875 0.13672-0.074219 0.21484-0.078125l1.0664-0.070313 0.26172-0.72266c0.054687-0.15234 0.1875-0.25781 0.34766-0.27734l1.5195-0.17969c0.15234-0.015625 0.30078 0.046875 0.39062 0.16406l2.2344 2.9531c0.046875 0.0625 0.074219 0.13281 0.085938 0.21094l0.31641 2.75h0.87109c0.12109 0 0.24219 0.054687 0.32031 0.14844l0.53906 0.625c0.070312 0.085938 0.10547 0.19141 0.10156 0.30078l-0.085937 1.6445 0.16797 0.84375c0.035156 0.16797-0.039063 0.34375-0.1875 0.44141l-1.7891 1.1602c-0.085937 0.054688-0.1875 0.078125-0.28906 0.0625l-0.94922-0.13281-2.0977 4.1953c-0.007813 0.015625-0.015626 0.03125-0.027344 0.042969l-0.30469 0.46094-0.34766 2.2305c-0.015625 0.12109-0.082031 0.22266-0.18359 0.29297l-1.4688 0.97656-0.49609 2.1641c-0.023437 0.097656-0.082031 0.1875-0.16406 0.24609l-2.1211 1.5234-1.0312 3.5273c-0.023437 0.085938-0.074218 0.16016-0.14453 0.21875l-0.56641 0.4375 0.34766 1.0586c0.066406 0.19141-0.015625 0.40234-0.19141 0.50391l-1.2148 0.68359v1.1797c0 0.17969-0.11328 0.33984-0.28125 0.40234l-1.9688 0.71484c-0.11719 0.042969-0.25391 0.03125-0.36328-0.035157-0.10938-0.066406-0.18359-0.17969-0.19922-0.30469l-0.089844-0.59375-0.21875-0.73438-0.98438-0.76562-0.019531 0.078125c-0.042969 0.17188-0.1875 0.30078-0.36328 0.32031l-1.5234 0.17969c-0.18359 0.019531-0.35938-0.078125-0.4375-0.25l-0.25-0.54688-0.80859 0.48438-0.57031 1.3906c-0.023438 0.058594-0.058594 0.10938-0.10547 0.15234l-2.5938 2.4102c-0.019531 0.019531-0.042969 0.039063-0.066406 0.050781l-0.46875 0.29688 0.125 0.69922c0.015625 0.0625 0.011719 0.13281-0.007813 0.19922l-0.71484 2.4102c-0.007813 0.027344-0.019531 0.054687-0.03125 0.078125l-0.89453 1.7031c-0.054688 0.10547-0.15625 0.18359-0.27344 0.21094-0.11719 0.03125-0.23828 0.007813-0.33984-0.058593l-0.40234-0.26562 0.066407 0.25c0.03125 0.11719 0.011719 0.24219-0.058594 0.34375-0.066406 0.10156-0.17578 0.17188-0.29688 0.1875l-8.582 1.1602c-0.027344 0.007812-0.050781 0.011719-0.078125 0.015625l-1.8789-0.09375c-0.12109-0.003906-0.23047-0.058594-0.30469-0.15234l-1.7031-2.0547c-0.027344-0.039063-0.054687-0.082032-0.070313-0.12891l-1.1406-3.1602-1.8867-2.4844-1.5234-1.043-3.5234 0.17187h-0.03125l-3.3086-0.089843c-0.11719-0.003907-0.22656-0.054688-0.30469-0.14062-0.078124-0.085938-0.11719-0.20312-0.10547-0.32031l0.17578-2.1133-0.26953-4.3516v-0.007813l-0.089844-2.0586c0-0.042969 0.003906-0.089843 0.015625-0.13281l0.71484-2.5898c0.050781-0.1875 0.21875-0.3125 0.41016-0.3125h0.87109l0.046875-0.40625v-0.95703c0-0.078125 0.019531-0.15625 0.058594-0.21875l0.80469-1.3438c0.050781-0.085938 0.13281-0.15234 0.23047-0.18359l0.63672-0.21484 0.42188-0.84375 0.085937-0.98828c0.007813-0.125 0.074219-0.24219 0.17969-0.3125 0.10547-0.074219 0.23828-0.09375 0.35938-0.0625l0.19141 0.054687 0.0625-0.27344-0.16406-0.80859c-0.003906-0.027343-0.007812-0.054687-0.007812-0.082031v-1.0195l-1.2578-1.6758c-0.074218-0.10156-0.10156-0.23047-0.070312-0.35156l0.35156-1.5 0.35547-2.8398c0.007813-0.078125 0.039063-0.15625 0.09375-0.21875l0.80078-0.98047 1.0898-1.3398 0.25-1.5859c0.003906-0.011719 0.007812-0.027343 0.011719-0.039062l0.17578-0.71484c0.035156-0.14062 0.14453-0.25781 0.28125-0.30078l2.7734-0.89453c0.035156-0.011718 0.070312-0.019531 0.10937-0.023437l1.5664-0.078125 0.69531-0.54688c0.074219-0.054687 0.16406-0.085937 0.25781-0.089844z"/>
</svg>
