<?xml version="1.0" encoding="UTF-8"?>
<svg fill="#010658" width="100pt" height="100pt" version="1.1" viewBox="0 0 100 100" xmlns="http://www.w3.org/2000/svg">
 <path d="m17 5c-6.6484 0-12 5.3516-12 12v66c0 6.6484 5.3516 12 12 12h66c6.6484 0 12-5.3516 12-12v-66c0-6.6484-5.3516-12-12-12zm47.066 22.348v0.003906c0.03125 0 0.058594 0.003907 0.089844 0.007813l0.9375 0.1875c0.17188 0.035156 0.30469 0.17188 0.33594 0.34375 0.027343 0.17188-0.050782 0.34375-0.19922 0.4375l-0.42188 0.25v0.44922l0.28906 0.25391c0.125 0.10547 0.17578 0.27344 0.13672 0.42969l-0.16406 0.59766h0.63281c0.1875 0 0.34766 0.11719 0.40625 0.29297l1.0625 3.3164 0.26562 0.62109 0.74609 0.042969c0.17578 0.011719 0.32812 0.13281 0.37891 0.30469l0.12891 0.43359 0.88672 0.36328c0.035156 0.015625 0.070313 0.039062 0.10547 0.066406l1.6953 1.3789c0.078125 0.0625 0.12891 0.14844 0.14844 0.24219l0.42188 1.9844 2.2031 2.8789c0.09375 0.12109 0.11328 0.28516 0.050781 0.42578l-0.21094 0.47656 0.054687 1.1602 0.23438 0.69922c0.011719 0.042968 0.019531 0.089844 0.019531 0.13281v2.3906c0 0.054688-0.011719 0.10938-0.03125 0.16406l-0.67188 1.6211 2.3398 3.7773c0.070312 0.11719 0.082031 0.25781 0.03125 0.38281l-1.293 3.1328-0.058593 2.8164c-0.003907 0.13281-0.066407 0.25391-0.17578 0.33203l-2.0742 1.5078c-0.15625 0.11328-0.36328 0.10938-0.51172-0.007812l-0.48828-0.39062-0.62891 0.082031-1.0977 1.0352c-0.12891 0.125-0.32031 0.15234-0.48047 0.074219l-0.69531-0.34766-0.88281 0.41406c-0.11328 0.054688-0.24609 0.054688-0.36328 0l-2.2617-1.0664c-0.082031-0.039063-0.14844-0.10156-0.19141-0.17969l-0.59375-1.0781-0.54688-0.089843c-0.011719-0.003907-0.019531-0.007813-0.027344-0.011719l-0.61328-0.14062-1.6016 1.3125c-0.097656 0.082031-0.23047 0.11328-0.35547 0.089844l-2.0547-0.44531-1.1602 1.6523c-0.066406 0.097656-0.17188 0.16406-0.28516 0.17969l-1.3867 0.19141c-0.14062 0.015625-0.27734-0.035156-0.37109-0.13672l-1.7461-1.9258-1.7266-0.54297-0.35938 0.84375 0.53516 2.4414c0.019532 0.085938 0.011719 0.17578-0.019531 0.25391l-0.71875 1.7344 0.12109 2.0391c0 0.0625-0.007813 0.125-0.03125 0.18359l-1.1328 2.8906c-0.039062 0.10547-0.12109 0.1875-0.22266 0.23438l-1.7656 0.75391c-0.17578 0.074219-0.38672 0.019531-0.5-0.13672l-0.25391-0.33203h-0.28125l-0.44922 0.89844c-0.066406 0.13281-0.19531 0.21875-0.34375 0.23047l-1.5742 0.125c-0.085937 0.007813-0.17578-0.011719-0.25391-0.058593l-0.65234-0.39844-3.0156 1.0039c-0.11328 0.039063-0.23438 0.027344-0.33984-0.03125l-1.543-0.85547-2.1523 0.64062c-0.11719 0.035157-0.23828 0.019532-0.33984-0.042968-0.10156-0.058594-0.17188-0.16016-0.19531-0.27734l-0.63281-3.0156-0.3125-1.4688-2.7227-0.33984c-0.003906 0.003907-0.007813 0.003907-0.011719 0l-3.1328-0.48828-0.14844 0.027344-0.050781 0.13281 0.11328 0.73438c0.003906 0.035157 0.007813 0.066407 0.003906 0.10156l-0.17969 2.3984c-0.011719 0.16406-0.11719 0.30859-0.27344 0.36719-0.15234 0.054687-0.32813 0.019531-0.44531-0.097657l-0.90625-0.91016-1.2383-0.41016c-0.058594-0.019531-0.11328-0.050781-0.15625-0.09375l-1.3359-1.2461c-0.0625-0.054687-0.10547-0.13281-0.125-0.21484l-0.41797-1.8477-0.72656-0.80469c-0.082031-0.09375-0.12109-0.21484-0.10547-0.33203 0.011719-0.12109 0.078125-0.23047 0.17969-0.30078l0.72266-0.50781 0.16016-2.1992c0.015625-0.18359 0.14453-0.33594 0.32422-0.37891l1.9414-0.48438c0.0625-0.12891 0.20312-0.40625 0.41406-0.84375 0.125-0.26562 0.25391-0.54297 0.35547-0.76953 0.10156-0.22656 0.17969-0.44141 0.17969-0.44141 0.050781-0.20312 0.24609-0.40625 0.4375-0.45703 0.1875-0.050781 0.32812-0.011719 0.44141 0.019531 0.22656 0.070313 0.38672 0.1875 0.38672 0.1875 0.11719 0.074219 0.1875 0.20312 0.19141 0.33984l0.046875 1.5195 0.30859-0.46094 0.33984-0.84766c0.054687-0.13281 0.16797-0.22656 0.30859-0.25781 0.13672-0.027344 0.28125 0.015625 0.38281 0.11328l0.14844 0.14844 0.74219-1.2578c0.074219-0.125 0.20703-0.20312 0.35547-0.20703l-0.058594-0.26953c-0.023438-0.10938-0.003906-0.22656 0.058594-0.32422l0.34375-0.53125c0.003906-0.011719 0.011718-0.019531 0.019531-0.027344l0.21875-0.29297c0.007813-0.058594 0.011719-0.09375 0.03125-0.19531 0.019531-0.085937 0.042969-0.17578 0.078125-0.26953 0.035156-0.097656 0.054688-0.20312 0.22266-0.33203 0.12891-0.09375 0.25781-0.15625 0.38672-0.22656 0.13281-0.070312 0.24609-0.125 0.24609-0.125 0.019531-0.011719 0.039062-0.019531 0.0625-0.027344l-0.15625-0.32031c-0.078125-0.16016-0.050781-0.35156 0.070312-0.48047l0.53125-0.5625c0.085938-0.085937 0.19922-0.13672 0.32031-0.13281 0.12109 0.003907 0.23438 0.058594 0.3125 0.14844l0.1875-0.33984c0.0625-0.11719 0.17969-0.19531 0.30859-0.21484 0.13281-0.019531 0.26562 0.027344 0.35937 0.11719l0.003907-0.11719c0.003906-0.12109 0.058593-0.23437 0.14844-0.30859 0.089844-0.078125 0.21094-0.11719 0.32812-0.10156l0.37891 0.054688 0.039062-0.082032-1.2148-2.1953-0.80469-1.2422c-0.035157-0.050781-0.058594-0.11328-0.070313-0.17578l-0.18359-1.3789-0.36719-2.4219-0.51562-0.80469c-0.070312-0.10937-0.085938-0.25-0.042969-0.37109l0.50781-1.3867c0.019531-0.058594 0.054687-0.11328 0.10156-0.16016l1.4219-1.3594 1.5469-2.1055c0.074219-0.10156 0.18359-0.16016 0.30859-0.17188l1.9375-0.17188 0.89062-1.2773 0.43359-0.67969c0.050781-0.085938 0.12891-0.14844 0.22266-0.17969l1.6992-0.56641c0.023437-0.007813 0.050781-0.011719 0.082031-0.015625l1.9062-0.23828 1.1719-0.82031c0.078125-0.054687 0.17188-0.082031 0.26953-0.078125l1.0078 0.0625c0.082031 0.007813 0.16406 0.039063 0.23047 0.089844l0.32422 0.25391 0.69531-1.0898c0.070312-0.11328 0.19531-0.1875 0.32812-0.19531 0.13672-0.007813 0.26562 0.050781 0.35156 0.15625l0.80859 0.97266 0.26172 0.085938c0.15234 0.050781 0.26172 0.18359 0.28516 0.34766l0.23438 1.7773 0.64062 0.85547 2.0625-1.3047c0.085938-0.054688 0.19141-0.074219 0.29688-0.058594l0.35938 0.0625 0.035156-0.17578c0.03125-0.13281 0.125-0.24609 0.25-0.29688l0.75781-0.3125c0.050781-0.023438 0.10547-0.035156 0.16016-0.035156h0.55859l0.13281-0.26953c0.050781-0.10547 0.14453-0.18359 0.25781-0.21484l0.32812-0.10156v-0.81641c-0.003907-0.03125 0-0.0625 0.007812-0.09375l0.1875-0.81641c0.035157-0.14453 0.14062-0.26172 0.27734-0.30859l0.89844-0.29688 0.89844-0.5625 0.39453-0.50781c0.007813-0.007812 0.015625-0.015624 0.023438-0.023437l0.69141-0.75391 0.34766-1.043c0.039063-0.11328 0.12109-0.20312 0.22656-0.25l0.50781-0.23438-0.050781-0.23438c-0.015625-0.066406-0.015625-0.13672 0.003906-0.20312l0.3125-1.1367c0.03125-0.10547 0.10156-0.19531 0.19922-0.25391l0.44141-0.25c0.085938-0.046875 0.18359-0.066406 0.27734-0.050781l0.70703 0.11719 0.74609-0.050781 0.30078-0.15234c0.058594-0.027343 0.125-0.042969 0.1875-0.046875z"/>
</svg>
