<?xml version="1.0" encoding="UTF-8"?>
<svg fill="#010658" width="100pt" height="100pt" version="1.1" viewBox="0 0 100 100" xmlns="http://www.w3.org/2000/svg">
 <path d="m17 5c-6.6484 0-12 5.3516-12 12v66c0 6.6484 5.3516 12 12 12h66c6.6484 0 12-5.3516 12-12v-66c0-6.6484-5.3516-12-12-12zm45.141 21.547h1.0938c0.13672 0 0.26562 0.058594 0.35156 0.16016l1.25 1.4688 0.19531-0.19141c0.10547-0.10938 0.26172-0.16016 0.41406-0.12891l1.0234 0.20703c0.11719 0.019531 0.22266 0.089844 0.28906 0.1875l0.85156 1.2148 1.4648 0.30469c0.17188 0.035157 0.30859 0.16797 0.34766 0.33984l0.14062 0.54688c0.058594 0.23438-0.074219 0.47266-0.30078 0.54688l-0.41406 0.14062c-0.023437 0.007812-0.046875 0.011719-0.070312 0.015625l-0.5 0.078125v0.42578l0.40625 0.64062c0.13672 0.21094 0.074218 0.49219-0.13281 0.63281l-0.61719 0.40625c-0.11719 0.078125-0.26562 0.097656-0.40234 0.054687l-1.6328-0.54688-1.7734-0.54688c-0.22266-0.066406-0.35938-0.28906-0.31641-0.51953l0.13281-0.75391-1.4531-0.43359c-0.074219-0.019531-0.14062-0.058594-0.19531-0.11328l-0.95312-0.95703c-0.046875-0.042968-0.082032-0.097656-0.10547-0.15234l-0.68359-1.7109c-0.085937-0.21094 0-0.45312 0.19531-0.56641l1.1602-0.6875c0.074219-0.039063 0.15234-0.0625 0.23438-0.0625zm10.984 4.4414v0.003907c0.03125 0 0.0625 0.003906 0.09375 0.007812l0.75 0.17188c0.15234 0.035156 0.27344 0.14453 0.32812 0.29297l0.29688 0.79688 1.2305 0.94531c0.10547 0.082031 0.16797 0.20703 0.17578 0.34375 0.007812 0.13281-0.046875 0.26172-0.14453 0.35547l-1.5742 1.4688c-0.14062 0.13672-0.35547 0.16406-0.52734 0.074219l-1.6758-0.89062c-0.14844-0.078125-0.24219-0.23438-0.24609-0.40625v-0.64844c0-0.12109 0.050781-0.23828 0.13672-0.32812l0.28125-0.28125-0.14062-0.92969c-0.019531-0.16406 0.042969-0.32422 0.16797-0.42578l0.54688-0.44531c0.085937-0.070312 0.19141-0.10547 0.30078-0.10547zm-47.688 10.605c0.046875 0 0.09375 0.007812 0.13672 0.023438l2.3203 0.77344c0.12109 0.039063 0.22266 0.12891 0.27734 0.25l0.86719 1.9336c0.046876 0.10156 0.054688 0.22266 0.019532 0.33203l-0.48438 1.4492c-0.03125 0.089843-0.089844 0.17188-0.16797 0.22656l-1.7422 1.2617c-0.11328 0.078125-0.25781 0.10547-0.39453 0.066406-0.13672-0.039062-0.24609-0.13672-0.30078-0.26953l-0.66016-1.6055-1.2383-2c-0.089843-0.14062-0.09375-0.32031-0.011718-0.46484l0.96875-1.7422c0.082031-0.14844 0.24219-0.23828 0.41016-0.23438zm18.844 9.0898c0.16016 0 0.30469 0.078125 0.39062 0.20703l0.86719 1.3555c0.10156 0.15625 0.097657 0.36328-0.011718 0.51562l-0.8125 1.1406 0.28125 0.62891c0.03125 0.074219 0.042968 0.16016 0.035156 0.23828l-0.17969 1.5234 0.66406 1.5 4.0469 2.6289c0.11328 0.078125 0.1875 0.19922 0.20312 0.33203l0.39062 3.2891c0.003906 0.039062 0 0.078125-0.003906 0.11719l-0.75 5.3633 1.4727 2.7695c0.0625 0.11719 0.074219 0.25781 0.023438 0.38281-0.046876 0.125-0.14844 0.21875-0.27344 0.26562l-1.3555 0.48438c-0.15625 0.054688-0.33203 0.023438-0.45703-0.089843l-1.8398-1.6445c-0.039062-0.035156-0.074218-0.078125-0.097656-0.125l-0.64062-1.1875-1.7773-1.5859c-0.10938-0.10156-0.16406-0.25-0.14844-0.39844l0.097656-0.86719c0.019531-0.17969 0.14062-0.32812 0.3125-0.38672l0.70312-0.23438-0.41016-1.1016c-0.03125-0.082032-0.039063-0.16797-0.023438-0.25391l0.21094-1.0234-0.65234-0.17969c-0.10938-0.03125-0.20312-0.097656-0.26562-0.19141l-2.0234-3.1328-3.5898-0.82813c-0.14453-0.035156-0.26172-0.13281-0.32031-0.27344l-0.42578-1.0156-1.2188-0.69141c-0.14453-0.085938-0.23438-0.24609-0.23047-0.41406 0.007813-0.16797 0.10547-0.32422 0.25781-0.39844l0.84766-0.42578 0.99609-1.6289c0.085937-0.14453 0.25-0.23047 0.42578-0.21875l2.2852 0.16406 0.60938-3.6484c0.027344-0.17188 0.15234-0.3125 0.32422-0.36328l1.9336-0.57812c0.042968-0.015625 0.085937-0.023437 0.12891-0.019531z"/>
</svg>
