<?xml version="1.0" encoding="UTF-8"?>
<svg fill="#162651" width="100pt" height="100pt" version="1.1" viewBox="0 0 100 100" xmlns="http://www.w3.org/2000/svg">
 <path d="m17 5c-6.6484 0-12 5.3516-12 12v66c0 6.6484 5.3516 12 12 12h66c6.6484 0 12-5.3516 12-12v-66c0-6.6484-5.3516-12-12-12zm48.672 22.871h0.046875c0.039062 0 0.082031 0.007812 0.125 0.023437l1.8555 0.64844 2.8672-0.14062c0.19922-0.011719 0.37891 0.11719 0.43359 0.30859l0.82422 2.8555c0.003906 0.027344 0.007812 0.050782 0.011719 0.078125l0.085937 0.92969 0.25 0.44922 0.52734 0.91406c0.007812 0.011719 0.011719 0.023438 0.019531 0.035156l0.48438 1.0664c0.027344 0.058594 0.039063 0.125 0.039063 0.19141l-0.050782 1.8789v2.4531l0.050782 1.543c0 0.039062-0.003907 0.078125-0.011719 0.11719l-0.097657 0.38672c-0.03125 0.13281-0.125 0.24219-0.25391 0.29297-0.125 0.050781-0.26562 0.039062-0.38281-0.03125l-1.5234-0.92969-0.14062 0.085938-0.47656 1.1758c-0.015625 0.039063-0.039063 0.074219-0.066407 0.10938l-0.60547 0.73438-0.14453 0.79297 0.24609 0.39062 0.79688 1.2344 0.80469 0.30469 0.90625-0.03125 0.19531-1.4805c0.03125-0.23047 0.23828-0.39453 0.46875-0.36719l2.6641 0.28906c0.125 0.011718 0.23828 0.082031 0.30859 0.1875 0.070312 0.10937 0.089843 0.23828 0.054687 0.36328l-0.67578 2.207-0.77344 3.375c-0.019531 0.089844-0.066406 0.16797-0.13281 0.23047l-2.4844 2.1445-1.8906 2.5078-2.168 3.75c-0.019531 0.039063-0.046875 0.074219-0.078125 0.10156l-2.1719 1.9805-3.6211 3.668c-0.015625 0.015626-0.035156 0.03125-0.050781 0.042969l-4.2109 3.0508c-0.035156 0.023438-0.070312 0.042969-0.10937 0.054688l-1.7891 0.62891c-0.050781 0.019532-0.10156 0.027344-0.15234 0.027344l-1.8086-0.046875-0.33594 0.21094 0.16797 0.33203c0.066406 0.13672 0.054687 0.30469-0.035157 0.43359-0.089843 0.12891-0.24219 0.19922-0.39844 0.17969l-2.1484-0.24609-0.039063 0.3125c-0.015625 0.11719-0.082031 0.22656-0.17969 0.29297-0.097657 0.070312-0.21875 0.09375-0.33594 0.070312l-3.582-0.75781-0.52734 0.11719-0.03125 0.13281c-0.054687 0.21875-0.26953 0.35547-0.48828 0.31641l-2.4492-0.43359-0.4375-0.039062-0.39062 0.10938c0 0.18359-0.125 0.34766-0.30078 0.40234l-0.37109 0.10938-0.35547 0.39453c-0.066406 0.074219-0.16016 0.125-0.26172 0.13672l-0.75391 0.09375-0.98828 0.23828c-0.042969 0.011719-0.085938 0.011719-0.12891 0.011719l-1.0156-0.074219 0.011719-0.089844c-0.035157 0.21875-0.23828 0.375-0.46094 0.35547l-0.90234-0.082031-1.1289 0.82422c-0.007812 0.007812-0.015625 0.011718-0.027344 0.019531l-0.38281 0.23828c-0.097656 0.0625-0.21094 0.082031-0.32031 0.058594l-1.1133-0.24609c-0.015625 0-0.03125-0.007812-0.046875-0.011719l-0.82422-0.28906c-0.17188-0.0625-0.28516-0.22266-0.28516-0.40234v-0.3125l-0.33594-0.23047h-0.92969c-0.12109 0-0.23047-0.046875-0.3125-0.13281-0.078125-0.085938-0.12109-0.20312-0.11328-0.32031l0.03125-0.50391-0.11719-0.042969-0.28516 0.070313-0.16016 0.41406c-0.074219 0.18359-0.26172 0.29297-0.45703 0.26953-0.19531-0.027343-0.34766-0.18359-0.36719-0.38281l-0.09375-1.0156c-0.011719-0.10547 0.015625-0.20703 0.078125-0.29297l0.21875-0.30469-0.8125-1.3828-0.90234-1.1875c-0.066406-0.089844-0.097656-0.19922-0.082031-0.30859l0.09375-0.82031c0.027344-0.22656 0.22656-0.39453 0.45312-0.37891l0.48047 0.03125 0.41016-0.88672-0.21875-1.8555-1.0469-1.5078c-0.007812-0.007813-0.015625-0.019532-0.019531-0.027344l-1.793-3.0469c-0.011719-0.023437-0.023438-0.050781-0.03125-0.074219l-0.96875-2.75-0.80859-2.0469-0.85156-1.4727c-0.058594-0.097656-0.074219-0.21875-0.042969-0.32812 0.03125-0.11328 0.10547-0.20703 0.20703-0.26172l0.59375-0.31641 0.52344-1.2617c0.054687-0.14062 0.1875-0.23828 0.33594-0.25781l0.72656-0.09375c0.23047-0.03125 0.44141 0.125 0.47656 0.35547l0.042969 0.26953h0.11719c0.20313-0.003906 0.375 0.14062 0.41797 0.33594l0.14453 0.67969s0 0.003906 0.003907 0.007812l0.12891 0.66016 1.0469 0.11328c0.074219 0.007812 0.14453 0.035156 0.20703 0.082031l0.65234 0.48438 2.5508-0.13672c0.085938-0.003906 0.16797 0.019532 0.24219 0.058594l0.26172 0.15625 0.35156-0.4375c0.015625-0.023438 0.03125-0.042969 0.050781-0.058594l0.72656-0.62891c0.035156-0.027344 0.070312-0.054688 0.11328-0.070312l1-0.42188 0.09375-12.254c0-0.15234 0.085938-0.29297 0.21875-0.37109 0.13281-0.074218 0.29688-0.070312 0.42969 0.007813l0.57031 0.34766c0.03125 0.019531 0.058594 0.039063 0.082031 0.0625l0.65234 0.65234c0.03125 0.035156 0.058594 0.074219 0.078125 0.11328l0.65234 1.3359c0.003906 0.011718 0.007812 0.023437 0.015625 0.035156l0.54688 1.4023c0.015625 0.046875 0.027344 0.097656 0.027344 0.15234v1.0977c0 0.070312-0.019532 0.14453-0.054688 0.20703l-0.50391 0.89453 0.11328 0.65234 0.03125-0.015625c0.09375-0.046875 0.19922-0.058594 0.30078-0.03125l0.73438 0.19141h1.6133l-0.007812-0.12891c-0.011719-0.19531 0.10938-0.37109 0.29297-0.43359l0.78516-0.25781 0.36328-0.53516c0.039063-0.054687 0.085938-0.097656 0.14453-0.13281l0.47656-0.26562 0.25781-0.3125c0.027344-0.035156 0.058594-0.0625 0.09375-0.089844l0.30469-0.20312 0.25-0.58203 0.64844-2.0781c0.046874-0.14453 0.16406-0.25391 0.30859-0.28516l1.2109-0.29297c0.12109-0.027344 0.24609-0.003906 0.34766 0.070313l1.6172 1.1641 0.52344-0.035156c0.085938-0.007813 0.17188 0.015625 0.24609 0.058594l1.0078 0.59766 0.95312 0.22656 0.41797-0.3125c0.11719-0.085937 0.26562-0.10938 0.40234-0.0625l0.62891 0.22266 0.70703-0.44141 0.66406-2.0234 0.042968-0.625c0.011719-0.1875 0.14453-0.34375 0.32422-0.38672l1.5508-0.375 0.125-0.44141c0.03125-0.11328 0.10938-0.20703 0.21094-0.26172l0.92969-0.48438 0.35156-1.9688c0.023438-0.13281 0.10938-0.24609 0.23047-0.30859l1.332-0.66797 0.27734-0.47266c0.066406-0.11328 0.18359-0.1875 0.3125-0.20703l0.53906-0.070312 1.543-2.168c0.066406-0.097657 0.16797-0.16016 0.28125-0.17969l1.3945-0.20703 0.52734-0.89062c0.070312-0.125 0.19922-0.20312 0.33984-0.21094l2.1758-0.14844z"/>
</svg>