<?xml version="1.0" encoding="UTF-8"?>
<svg fill="#E3DDDC" width="100pt" height="100pt" version="1.1" viewBox="0 0 100 100" xmlns="http://www.w3.org/2000/svg">
 <path d="m17 5c-6.6484 0-12 5.3516-12 12v66c0 6.6484 5.3516 12 12 12h66c6.6484 0 12-5.3516 12-12v-66c0-6.6484-5.3516-12-12-12zm34.055 19v0.003906h0.042968l0.85547 0.046875c0.20703 0.011719 0.37891 0.17188 0.40234 0.38281l0.023437 0.19531 0.86719-0.039062c0.070312-0.003906 0.13672 0.011718 0.20312 0.039062l1.0352 0.48828c0.14062 0.066406 0.23438 0.19922 0.24609 0.35547 0.011719 0.15234-0.058594 0.30078-0.1875 0.38672 0.03125 0.12109 0.007812 0.25-0.0625 0.35547l-0.10938 0.15234-0.070313 0.25391 0.042969 0.11328 0.30469 0.28516 0.46094 0.26172c0.17578 0.10156 0.25781 0.31641 0.19141 0.51172l-0.14844 0.44531c-0.011719 0.027344-0.019532 0.046875-0.03125 0.070313l0.46875-0.007813 0.37891-0.67969c0.0625-0.10547 0.16406-0.18359 0.28516-0.21094l0.69922-0.14844 0.054687-0.011719c0.058594-0.015625 0.12109-0.019531 0.18359-0.007812l-0.11328-0.023438 0.035156-0.10938c0.054688-0.14844 0.19141-0.25781 0.35156-0.28125l0.003906-0.015625c0.039062-0.12891 0.13281-0.23047 0.25781-0.28125l0.11719-0.042969 0.058594-0.15625c0.058594-0.15234 0.19922-0.25781 0.36328-0.26953l0.27734-0.027344 0.28125-0.12891c0.12109-0.14844 0.32812-0.19922 0.50391-0.12109s0.28125 0.26562 0.25 0.45312l-0.0625 0.4375 0.30859 0.65234 0.19141 0.27734c0.070313 0.10547 0.089844 0.23438 0.054687 0.35547-0.035156 0.125-0.12109 0.22266-0.23828 0.27344l-0.60156 0.26953-1.3086 2.5508c-0.054687 0.11328-0.16016 0.19531-0.28125 0.22266l-1.0938 0.25-0.40234 0.33984-0.019531 1.7305 0.42188 0.59766c0.023437 0.027344 0.039063 0.058594 0.050781 0.09375l0.20703 0.53906 0.43359 0.41797 0.60156-0.089844c0.14453-0.023438 0.29297 0.03125 0.39062 0.14062 0.09375 0.11328 0.125 0.26562 0.082031 0.40625l-0.066406 0.21094 0.47656 0.21875 0.27734-0.023437c0.12891-0.011719 0.25 0.035156 0.33984 0.125 0.089844 0.085937 0.13672 0.21094 0.125 0.33594l-0.058594 0.76172 0.058594 0.43359v0.078125l-0.054688 0.98828 0.44531 0.3125c0.09375 0.070313 0.15625 0.17188 0.17188 0.28906 0.019531 0.11328-0.011719 0.23047-0.082032 0.32031l-0.58594 0.76172 0.039063 0.39844c0.011718 0.12109-0.027344 0.24219-0.10938 0.33594l-0.58984 0.64062 0.035156 0.16016c0.035156 0.14062-0.007813 0.28906-0.10547 0.39062l-0.96875 1.0273-0.019531 0.26953c-0.011719 0.16016-0.10938 0.30078-0.25391 0.36328l-0.39062 0.16797-0.23438 0.48828c-0.054688 0.10938-0.15234 0.19141-0.26562 0.22656l-0.77344 0.21875-0.45703 0.67578c-0.12109 0.18359-0.36328 0.24219-0.55859 0.13672-0.066406 0.11719-0.18359 0.19141-0.31641 0.20312l-0.14453 0.015625-0.625 0.625-0.37109 0.6875 0.32812 1.1445 0.85156 1.3086 1.3047 0.625 1.2734-0.37109c0.13672-0.039062 0.28516-0.007812 0.39453 0.082032 0.10938 0.09375 0.16406 0.23437 0.14844 0.375l-0.11328 1.0352v0.050781l0.089844-0.011719 0.37891-0.125-0.12109-0.25c-0.058594-0.12891-0.050781-0.28516 0.023438-0.40625 0.074218-0.125 0.20703-0.19922 0.35156-0.20703l0.98047-0.03125c0.14844-0.003906 0.28516 0.066406 0.37109 0.1875l0.41016 0.59766c0.082031 0.11328 0.10156 0.25781 0.054687 0.38672l-0.19531 0.55859 0.17188 0.30078 0.82422 0.48438c0.10547 0.0625 0.17578 0.16797 0.19922 0.28906 0.023438 0.12109-0.007812 0.24609-0.085937 0.34375l0.24219 0.027344c0.10547-0.125 0.26953-0.17969 0.42969-0.14062l0.71484 0.17578c0.22266 0.054688 0.36328 0.28125 0.3125 0.50781l-0.4375 1.9844v1.8906l0.55859 0.6875c0.066406 0.082031 0.10156 0.1875 0.097656 0.29297l-0.027344 0.44531c-0.003906 0.14453-0.082031 0.27344-0.20312 0.34375l-0.35938 0.21875c-0.011719 0.007813-0.023438 0.011719-0.035156 0.015625l-3.6484 1.7773-0.23438 0.59375c-0.023437 0.0625-0.0625 0.11719-0.11328 0.16016l-0.62109 0.57031c-0.09375 0.085937-0.22266 0.125-0.34766 0.10547l-0.25391-0.039062 0.050781 0.46484c0.015625 0.12109-0.023437 0.24219-0.10938 0.33203l-0.80469 0.89453c-0.085937 0.097656-0.21094 0.14844-0.33984 0.14062l-0.8125-0.046875-0.24219 0.51172c-0.019531 0.042969-0.042969 0.082031-0.078125 0.11719l-0.54297 0.57031-0.023438 0.48438 0.63281 1.9219c0.007813 0.027344 0.015626 0.054687 0.019532 0.082031l0.20312 1.7383 0.082031 0.29687c0.027344 0.10938 0.011719 0.22656-0.046875 0.32422l-0.56641 0.98438c-0.023438 0.039063-0.050781 0.074219-0.085938 0.10547l-0.51953 0.46094-1.2461 2.0703c-0.070312 0.12109-0.19922 0.19922-0.33594 0.20703l-0.77344 0.046875-1.1914 0.70312c-0.11719 0.070313-0.26172 0.078125-0.38672 0.023438-0.125-0.054688-0.21875-0.16797-0.24609-0.30469l-2.8906-13.281-4.207-2.957c-0.10938-0.082031-0.17578-0.20703-0.17969-0.34375l-0.039063-2.0977-1.0625-1.6406-0.67578-0.046875c-0.12891-0.007813-0.24609-0.074219-0.31641-0.17969l-0.30469-0.42578-0.42578-0.10938-0.45703-0.046875c-0.20703-0.019531-0.36719-0.18359-0.38672-0.38672l-0.13672-1.5547-0.89062-1.7461c-0.03125-0.058594-0.046875-0.125-0.046875-0.19141v-0.27734l-0.12891-0.14062c-0.058594-0.0625-0.097656-0.14062-0.10938-0.22266l-0.14453-0.83984c-0.007813-0.039063-0.007813-0.082031-0.003907-0.125l0.16016-1.3164c0.007812-0.082031 0.042969-0.15625 0.09375-0.21875l0.75-0.91406c0.074219-0.089844 0.18359-0.14453 0.30078-0.15625l0.53516-0.039062 0.21484-0.98047c0.023438-0.12109 0.10156-0.22656 0.20703-0.28516l1.4453-0.79688 0.79688-0.5625 0.03125-0.058594-0.035157-0.074219c-0.0625-0.14062-0.042968-0.30078 0.046876-0.42578l0.26172-0.35547-0.015625-1.0391c0-0.027344 0-0.054688 0.007813-0.078125l0.23828-1.4336c0.015625-0.097656 0.070313-0.1875 0.14844-0.25391l0.61328-0.51172-0.19141-0.11719c-0.015626-0.011719-0.03125-0.023438-0.046876-0.035157l-0.375-0.3125c-0.09375-0.078125-0.15234-0.19531-0.15234-0.31641l-0.019531-0.73047c0-0.0625 0.011718-0.12109 0.039062-0.17969l0.17578-0.40234-0.085937-0.68359-0.125-0.5c-0.13281-0.070312-0.21875-0.20703-0.22656-0.35547l-0.054687-1.1211c-0.003906-0.039063 0-0.078125 0.007812-0.11719l0.42969-1.8594-0.058594-0.22656c-0.011719-0.046875-0.015625-0.097656-0.011719-0.14453l0.082031-0.82422c0.007813-0.070313 0.03125-0.13672 0.070313-0.19531l0.13281-0.20312-0.007813-0.26562-0.61719-0.078125c-0.16797-0.019531-0.30469-0.13672-0.35156-0.30078l-0.14062-0.44922c-0.03125-0.10938-0.019531-0.23047 0.039062-0.32812 0.054688-0.10156 0.14844-0.17578 0.26172-0.20703l0.69922-0.1875v0.046875c0-0.17578 0.10938-0.33203 0.26953-0.39453l0.25-0.10156 0.12109-0.32812-0.046875-0.23828c-0.027344-0.12109 0.003906-0.24219 0.074219-0.33984 0.070312-0.097656 0.18359-0.16016 0.30078-0.17188l0.75391-0.070312 0.16016-0.20703-0.019531-0.30078c-0.015625-0.21094 0.13281-0.40625 0.33984-0.44531l0.98438-0.19922 0.48047-0.46875 0.37891-0.66016c0.070313-0.125 0.19922-0.20703 0.33984-0.21484l0.48047-0.035156 0.28516-0.41406c0.089844-0.13281 0.25391-0.20312 0.41406-0.17969l0.82422 0.125 0.14844-0.17188c0.10547-0.125 0.26953-0.17578 0.42969-0.13672l0.10938 0.027344 0.42188-0.26172c0.039062-0.027344 0.085938-0.046875 0.12891-0.058594l0.88281-0.19531c0.023437-0.007813 0.050781-0.011719 0.074219-0.011719z"/>
</svg>
