<?xml version="1.0" encoding="UTF-8"?>
<svg fill="#E3DDDC" width="100pt" height="100pt" version="1.1" viewBox="0 0 100 100" xmlns="http://www.w3.org/2000/svg">
 <path d="m17 5c-6.6484 0-12 5.3516-12 12v66c0 6.6484 5.3516 12 12 12h66c6.6484 0 12-5.3516 12-12v-66c0-6.6484-5.3516-12-12-12zm45.77 22.332c0.12891 0.003907 0.25391 0.066407 0.33203 0.16797l1.1445 1.4844c0.14062-0.10547 0.32812-0.11719 0.47656-0.027344l1.6211 0.98438 1.8477 0.45703c0.042969 0.011718 0.082032 0.027343 0.11719 0.046874l2.2031 1.3164 2.0234 1.0664c0.015625 0.011719 0.03125 0.019531 0.046875 0.03125l1.0195 0.71875c0.078126 0.058594 0.13672 0.13672 0.16406 0.23047l0.51172 1.7422 0.80859 0.75781c0.042968 0.039062 0.078124 0.085937 0.10156 0.14453l0.77734 1.793c0.085937 0.19141 0.015625 0.41797-0.16406 0.53125l-1.5039 0.95312 0.41797 1.1133c0.035156 0.09375 0.035156 0.19922 0.003906 0.29297l-0.44922 1.2773 0.054688 0.50391v0.058593l-0.058594 2.3398 0.15234 0.64844 0.8125 0.039062c0.16016 0.007813 0.30078 0.10156 0.36719 0.24609s0.050782 0.3125-0.042968 0.4375l-0.53906 0.72266c-0.054687 0.074219-0.12891 0.12891-0.21875 0.15625l-1.6094 0.48047-0.17578 0.39062 0.11328 1.9844c0.003906 0.10938-0.03125 0.21875-0.10156 0.30078l-1.0312 1.2305 1.3438 1.6953c0.085937 0.10937 0.11328 0.25391 0.074218 0.38672-0.035156 0.13281-0.13672 0.23828-0.26953 0.28516l-12.191 4.2227 0.46875 1.0703c0.011719 0.023438 0.019531 0.046875 0.023437 0.074219l0.30469 1.2539c0.03125 0.125 0.003906 0.25391-0.070313 0.35547s-0.19141 0.16406-0.31641 0.17188l-4.3594 0.29297-1.207 0.98438c-0.042969 0.035156-0.097657 0.0625-0.15234 0.082031l-0.57812 0.16016-0.31641 2.0703c-0.023438 0.13672-0.10938 0.25391-0.23438 0.31641l-2.0312 1.0156c-0.003907 0.003906-0.007813 0.007813-0.011719 0.011719l-0.76562 0.35547-1.4258 0.77344-0.80859 1.082-0.046875 0.4375c-0.015625 0.12109-0.078125 0.23047-0.17578 0.29688l-1.2188 0.88281-0.55859 0.91016-0.074219 0.24219c-0.023437 0.082032-0.070312 0.15234-0.13672 0.20703l-0.46484 0.38672c-0.050781 0.042969-0.10938 0.070313-0.17188 0.085938l-1 0.24219-0.23047 0.23047c-0.13672 0.14453-0.35938 0.17188-0.53125 0.066406l-0.52734-0.33203-1.3477-0.40234-0.20312 0.082031-0.09375 0.085937c-0.070312 0.070313-0.16406 0.10938-0.26562 0.11719 0 0-0.23047 0.015625-0.47266 0.035156-0.125 0.007812-0.25 0.007812-0.35156 0.019531-0.097656 0-0.14844 0.011719-0.22266 0.011719-0.15625 0-0.29297-0.097656-0.35547-0.17188-0.058593-0.070313-0.074219-0.12109-0.09375-0.16797-0.023437-0.066406-0.027343-0.11328-0.035156-0.16406l-0.29688-0.16797-1.5156 0.035156c-0.085937 0.003907-0.17188-0.019531-0.24609-0.066406l-0.95312-0.63672c-0.007812-0.003906-0.019531-0.011718-0.03125-0.019531l-0.64453-0.51953-0.91797-0.28125-0.69531 0.22266c-0.17188 0.058594-0.35938-0.003906-0.46875-0.14453l-0.12109-0.15234-0.058594 0.035156c-0.09375 0.050781-0.20703 0.066407-0.3125 0.039063l-0.42969-0.10938-3.3711 0.70703c-0.15625 0.03125-0.3125-0.023438-0.41797-0.14453l-0.12891-0.15234-0.62891-0.17578c-0.082032-0.023438-0.15625-0.066406-0.21484-0.13281l-0.71484-0.82031-0.375-0.41016-0.40625-0.23047c-0.035156-0.023438-0.070312-0.046875-0.097656-0.074219l-1.9844-2.0664-1.1289-1.0508c-0.074219-0.070313-0.125-0.16406-0.13672-0.26172l-0.054688-0.5-0.13672-0.35547-0.24219-0.26172c-0.070312-0.078125-0.10938-0.17969-0.11328-0.28516l-0.046875-14.516c0-0.11328 0.046875-0.22656 0.12891-0.30469 0.082032-0.082031 0.19141-0.125 0.30859-0.125l8.0352 0.14063-0.21484-0.19531c-0.12109-0.10547-0.16797-0.27344-0.12891-0.42578l0.52344-1.9922 0.23828-6.4141c0.003906-0.16406 0.10156-0.30859 0.25-0.375s0.32031-0.046875 0.44922 0.054687l0.83594 0.67578 0.77344 0.27344c0.10938 0.039062 0.19922 0.12109 0.24609 0.22656 0.050782 0.10547 0.054688 0.22656 0.007813 0.33594l-0.29688 0.74219 0.24219 0.058593 0.42969-0.42578c0.058594-0.054688 0.13281-0.09375 0.21484-0.10938l2.8125-0.60547c0.125-0.023437 0.25781 0.007813 0.35547 0.089844 0.10156 0.078125 0.16016 0.20312 0.16016 0.33203v1.5117l0.60156 0.69922 1.9883 0.77344 3.6836 0.10938 0.24609-0.42578 0.10938-0.8125c0.023438-0.18359 0.16406-0.33203 0.34766-0.36328l0.65234-0.12109c0.17969-0.03125 0.35938 0.050781 0.44922 0.20312l0.58203 0.98828 0.63281 0.74609 0.96094 1.1211 0.71875 0.050781c0.058594 0.007812 0.10938 0.019531 0.16016 0.046875l2.0898 1.0156c0.078125 0.039062 0.14062 0.097656 0.1875 0.17188l0.54297 0.95312c0.011719 0.023438 0.023437 0.050781 0.035156 0.078125l0.14062 0.42578h0.10938c0.13672 0 0.26562 0.066406 0.34766 0.17969l1.543 2.1523h0.33984l1.8203-0.91016c0.11719-0.054687 0.25-0.058593 0.36719-0.003906 0.11719 0.050781 0.20312 0.15234 0.23828 0.27734v-3.9688l-0.44922 0.035156 0.15234 0.51562c0.039062 0.13281 0.007812 0.28125-0.082031 0.39062-0.089844 0.10938-0.22656 0.16797-0.36719 0.15625l-2.0977-0.1875c-0.12891-0.007813-0.24219-0.078125-0.31641-0.18359l-0.60156-0.87109-1.4102-0.78906c-0.0625-0.035156-0.11328-0.085937-0.15234-0.14453l-0.95312-1.5c-0.066406-0.10547-0.082031-0.23438-0.050781-0.35156l0.89844-3.0508c0.003906-0.011719 0.007812-0.023438 0.011718-0.03125l0.4375-1.1445-0.28516-1.8672c-0.007812-0.046875-0.007812-0.09375 0-0.14453l0.34766-1.8906-0.32422-1.4961h-0.37891c-0.16016 0-0.30859-0.089843-0.37891-0.23438l-0.29688-0.59375c-0.10547-0.20703-0.023438-0.46094 0.18359-0.57031l1.4883-0.77344 0.67188-1.4414-0.058594-0.91016c-0.015625-0.22266 0.14453-0.41797 0.36719-0.44922l8.082-1.2031c0.019531-0.003906 0.042969-0.003906 0.066406-0.003906z"/>
</svg>
